<svg width="115" height="115" viewBox="0 0 115 115" fill="none" xmlns="http://www.w3.org/2000/svg">
<path d="M16.2737 20.1195C16.2125 20.0205 16.1801 19.9063 16.1801 19.7898C16.1801 19.6734 16.2125 19.5592 16.2737 19.4602L16.3706 19.2933L16.4567 19.1184C16.5042 19.0136 16.5795 18.9239 16.6744 18.8589C16.7693 18.7939 16.8801 18.7561 16.995 18.7497L17.8023 18.7255L17.7189 16.0854L16.9115 16.1123C16.7984 16.1116 16.6875 16.0804 16.5905 16.0222C16.4934 15.964 16.4138 15.8808 16.3598 15.7813C16.2965 15.6657 16.2274 15.5535 16.1526 15.4449C16.0877 15.3518 16.0492 15.2428 16.0412 15.1296C16.0331 15.0164 16.0558 14.9031 16.1069 14.8017L16.489 14.0886L14.1638 12.8398L13.7817 13.553C13.7264 13.6552 13.6437 13.7401 13.543 13.7981C13.4422 13.856 13.3273 13.8849 13.2112 13.8813C13.0803 13.8733 12.9491 13.8733 12.8182 13.8813C12.7024 13.8922 12.5859 13.8705 12.4817 13.8187C12.3776 13.7668 12.29 13.6869 12.2289 13.588L11.801 12.9179L9.55651 14.3092L9.98441 15.0009C10.0451 15.0996 10.0772 15.2133 10.0772 15.3292C10.0772 15.4451 10.0451 15.5588 9.98441 15.6575C9.94943 15.7113 9.91713 15.7679 9.88753 15.8244L9.79872 15.9993C9.75184 16.1043 9.67666 16.1941 9.58159 16.2588C9.48653 16.3234 9.37534 16.3603 9.26048 16.3653L8.45312 16.3922L8.53655 19.0296L9.34391 19.0054C9.45653 19.0027 9.56778 19.0306 9.66585 19.086C9.76392 19.1414 9.84517 19.2224 9.90099 19.3202C9.96523 19.4358 10.0353 19.5481 10.1109 19.6566C10.1778 19.7516 10.217 19.8633 10.2241 19.9792C10.2312 20.0952 10.206 20.2108 10.1513 20.3133L9.76912 21.0238L12.097 22.2725L12.4791 21.562C12.5345 21.4598 12.6171 21.3749 12.7179 21.3169C12.8186 21.259 12.9335 21.2301 13.0497 21.2337C13.1808 21.236 13.3119 21.2315 13.4426 21.2202C13.5584 21.2098 13.6749 21.2314 13.7793 21.2827C13.8837 21.3339 13.972 21.4129 14.0347 21.5109L14.4599 22.1998L16.7043 20.8085L16.2737 20.1195ZM12.1078 19.4575C11.734 19.2553 11.4285 18.9471 11.2296 18.5716C11.0307 18.1961 10.9473 17.7702 10.99 17.3474C11.0327 16.9247 11.1996 16.524 11.4696 16.1959C11.7395 15.8678 12.1006 15.6269 12.5072 15.5036C12.9138 15.3802 13.3478 15.38 13.7546 15.5028C14.1613 15.6257 14.5227 15.8662 14.793 16.194C15.0634 16.5218 15.2307 16.9222 15.2739 17.3449C15.3171 17.7676 15.2342 18.1937 15.0358 18.5694C14.9029 18.821 14.7215 19.0437 14.502 19.2247C14.2825 19.4058 14.0293 19.5415 13.757 19.6241C13.4847 19.7067 13.1988 19.7345 12.9157 19.7059C12.6326 19.6773 12.358 19.5929 12.1078 19.4575Z" fill="#EBEBEB"/>
<path d="M8.3023 5.92082C8.2321 5.87988 8.17475 5.82013 8.13671 5.74833C8.09867 5.67652 8.08145 5.59552 8.087 5.51445C8.087 5.4687 8.087 5.42295 8.087 5.3772C8.087 5.33145 8.087 5.2857 8.087 5.23995C8.0818 5.15923 8.09888 5.07864 8.13638 5.00698C8.17387 4.93531 8.23034 4.87533 8.29961 4.83358L8.79209 4.56446L7.86901 2.94974L7.37653 3.22963C7.30596 3.27015 7.22545 3.29012 7.14412 3.28727C7.0628 3.28441 6.98389 3.25885 6.91633 3.21348C6.83899 3.16268 6.75904 3.11597 6.67682 3.07354C6.60413 3.03747 6.54295 2.98184 6.50016 2.91291C6.45737 2.84397 6.43467 2.76445 6.43461 2.68331V2.11816H4.58307V2.69139C4.58301 2.77253 4.56031 2.85204 4.51752 2.92098C4.47473 2.98992 4.41355 3.04555 4.34086 3.08161C4.25951 3.12406 4.18046 3.17077 4.10404 3.22155C4.03595 3.26687 3.95662 3.29237 3.87488 3.29522C3.79315 3.29808 3.71223 3.27816 3.64115 3.2377L3.15136 2.95243L2.22559 4.56715L2.72077 4.84434C2.79046 4.88564 2.84727 4.94553 2.88482 5.01731C2.92237 5.08909 2.93918 5.16991 2.93337 5.25071C2.93337 5.29377 2.93337 5.33952 2.93337 5.38527C2.93337 5.43102 2.93337 5.47677 2.93337 5.52252C2.93892 5.60359 2.9217 5.6846 2.88366 5.7564C2.84562 5.82821 2.78827 5.88795 2.71807 5.92889L2.22559 6.18994L3.15136 7.80465L3.64115 7.53553C3.71044 7.4932 3.79006 7.47081 3.87125 7.47081C3.95244 7.47081 4.03206 7.4932 4.10135 7.53553C4.17869 7.58633 4.25864 7.63304 4.34086 7.67547C4.41355 7.71154 4.47473 7.76717 4.51752 7.83611C4.56031 7.90505 4.58301 7.98456 4.58307 8.0657V8.63085H6.43461V8.07377C6.43467 7.99263 6.45737 7.91312 6.50016 7.84418C6.54295 7.77524 6.60413 7.71961 6.67682 7.68355C6.75937 7.64171 6.83935 7.59498 6.91633 7.54361C6.98613 7.50133 7.06617 7.47898 7.14778 7.47898C7.22938 7.47898 7.30942 7.50133 7.37922 7.54361L7.86901 7.81273L8.79209 6.18994L8.3023 5.92082ZM5.50884 6.88696C5.20872 6.88695 4.91536 6.79781 4.66597 6.63084C4.41657 6.46388 4.22239 6.2266 4.10803 5.94912C3.99368 5.67164 3.96431 5.36644 4.02365 5.07224C4.08299 4.77805 4.22836 4.5081 4.44134 4.29664C4.65431 4.08517 4.92529 3.94173 5.2199 3.88449C5.51452 3.82725 5.8195 3.85879 6.09616 3.97512C6.37282 4.09145 6.6087 4.28732 6.77388 4.5379C6.93907 4.78848 7.02611 5.08246 7.02398 5.38258C7.02044 5.78233 6.85933 6.16455 6.57564 6.44622C6.29196 6.72788 5.90861 6.88626 5.50884 6.88696Z" fill="#EBEBEB"/>
<path d="M112.352 44.0981C112.282 44.0569 112.225 43.9971 112.187 43.9253C112.149 43.8536 112.132 43.7727 112.137 43.6917C112.137 43.6459 112.137 43.6002 112.137 43.5544C112.137 43.5087 112.137 43.4629 112.137 43.4172C112.132 43.3362 112.15 43.2556 112.188 43.184C112.226 43.1123 112.283 43.0524 112.352 43.0108L112.845 42.7417L111.919 41.127L111.429 41.4122C111.358 41.4527 111.277 41.4726 111.196 41.4698C111.114 41.4669 111.034 41.4414 110.966 41.3961C110.89 41.3453 110.811 41.2986 110.73 41.2562C110.657 41.2201 110.596 41.1645 110.553 41.0955C110.51 41.0266 110.487 40.9471 110.487 40.8659V40.3008H108.636V40.8659C108.636 40.9471 108.613 41.0266 108.57 41.0955C108.527 41.1645 108.466 41.2201 108.394 41.2562C108.311 41.2986 108.231 41.3453 108.154 41.3961C108.087 41.4415 108.008 41.467 107.926 41.4699C107.845 41.4727 107.764 41.4528 107.694 41.4122L107.201 41.127L106.278 42.7417L106.771 43.027C106.841 43.0677 106.899 43.1274 106.937 43.1992C106.975 43.2711 106.992 43.3522 106.986 43.4333C106.986 43.4764 106.986 43.5221 106.986 43.5679C106.986 43.6136 106.986 43.6594 106.986 43.7051C106.991 43.7861 106.974 43.8669 106.936 43.9386C106.898 44.0103 106.841 44.0701 106.771 44.1115L106.278 44.3968L107.201 46.0115L107.691 45.7289C107.762 45.6885 107.843 45.6685 107.925 45.6714C108.007 45.6742 108.086 45.6997 108.154 45.7451C108.229 45.7935 108.31 45.8393 108.394 45.8823C108.466 45.9184 108.527 45.974 108.57 46.0429C108.613 46.1119 108.636 46.1914 108.636 46.2725V46.8377H110.487V46.2725C110.487 46.1914 110.51 46.1119 110.553 46.0429C110.596 45.974 110.657 45.9184 110.73 45.8823C110.813 45.8393 110.891 45.7935 110.969 45.7451C111.037 45.6997 111.116 45.6741 111.197 45.6713C111.278 45.6684 111.359 45.6884 111.429 45.7289L111.919 46.0115L112.845 44.3968L112.352 44.0981ZM109.562 45.0696C109.262 45.0696 108.969 44.9807 108.72 44.8142C108.471 44.6477 108.276 44.4111 108.162 44.1343C108.047 43.8574 108.017 43.5528 108.076 43.2588C108.134 42.9649 108.278 42.695 108.49 42.4831C108.702 42.2712 108.972 42.1269 109.266 42.0684C109.56 42.0099 109.865 42.0399 110.141 42.1546C110.418 42.2693 110.655 42.4635 110.821 42.7127C110.988 42.9618 111.077 43.2548 111.077 43.5544C111.077 43.9563 110.917 44.3417 110.633 44.6258C110.349 44.9099 109.963 45.0696 109.562 45.0696Z" fill="#EBEBEB"/>
<path d="M24.8965 66.9731H1.14941V99.8353H24.8965V66.9731Z" fill="#EBEBEB"/>
<path d="M26.048 65.7539H0V66.973H26.048V65.7539Z" fill="#DBDBDB"/>
<path d="M34.2398 65.7539H26.0479V66.973H34.2398V65.7539Z" fill="#EBEBEB"/>
<path d="M32.9431 66.9731H24.8965V99.8353H32.9431V66.9731Z" fill="#DBDBDB"/>
<path d="M22.3447 82.1867H3.71094V71.6479H22.3528L22.3447 82.1867ZM3.77553 82.1194H22.2802V71.7152H3.77014L3.77553 82.1194Z" fill="#C7C7C7"/>
<path d="M14.0506 74.7295H10.4229V76.8152H14.0506V74.7295Z" fill="#C7C7C7"/>
<path d="M15.1569 76.6994H11.4619V74.8613H15.1569V76.6994ZM11.5292 76.6321H15.0896V74.9286H11.5292V76.6321Z" fill="#C7C7C7"/>
<path d="M22.3447 95.4166H3.71094V84.8779H22.3528L22.3447 95.4166ZM3.77553 95.3493H22.2802V84.9452H3.77014L3.77553 95.3493Z" fill="#C7C7C7"/>
<path d="M14.0506 87.959H10.4229V90.0447H14.0506V87.959Z" fill="#C7C7C7"/>
<path d="M15.1569 89.9211H11.4619V88.083H15.1569V89.9211ZM11.5292 89.8538H15.0896V88.1503H11.5292V89.8538Z" fill="#C7C7C7"/>
<path d="M107.535 83.793H93.2285V99.6333H107.535V83.793Z" fill="#EBEBEB"/>
<path d="M114.921 83.7959H107.534V99.6389H114.921V83.7959Z" fill="#DBDBDB"/>
<path d="M101.596 87.2162H101.294H101.065L100.936 86.9524L100.753 87.2162L100.506 86.6752L100.271 87.2162H99.6014H99.2973L99.1869 86.8555L99.082 87.2162H98.8828V83.793H101.596V87.2162Z" fill="white"/>
<path d="M114.41 98.5462C113.872 97.4177 113.334 96.2874 112.796 95.1553L111.181 91.7483L109.601 88.3251C109.075 87.184 108.556 86.0376 108.043 84.8857C108.581 86.0142 109.119 87.1445 109.658 88.2766L111.259 91.6837L112.841 95.1069C113.374 96.2479 113.897 97.3944 114.41 98.5462Z" fill="#EBEBEB"/>
<path d="M114.411 84.8857C113.898 86.0376 113.379 87.184 112.853 88.3251L111.27 91.7483L109.669 95.1553C109.131 96.2892 108.588 97.4195 108.041 98.5462C108.558 97.3944 109.074 96.2479 109.602 95.1069L111.182 91.6837L112.796 88.2766C113.327 87.1445 113.866 86.0142 114.411 84.8857Z" fill="#EBEBEB"/>
<path d="M105.056 67.9771H90.75V83.8174H105.056V67.9771Z" fill="#EBEBEB"/>
<path d="M112.443 67.98H105.056V83.823H112.443V67.98Z" fill="#DBDBDB"/>
<path d="M99.117 71.4002H98.8129H98.5869L98.4577 71.1365L98.2747 71.4002L98.0271 70.8593L97.793 71.4002H97.1228H96.8187L96.7084 71.0396L96.6035 71.4002H96.4043V67.9771H99.117V71.4002Z" fill="white"/>
<path d="M111.932 82.7303C111.394 81.6018 110.855 80.4715 110.317 79.3394L108.702 75.9324L107.123 72.5092C106.599 71.3663 106.079 70.2199 105.564 69.0698C106.103 70.1965 106.641 71.3268 107.179 72.4607L108.78 75.8678L110.363 79.291C110.896 80.4338 111.419 81.5803 111.932 82.7303Z" fill="#EBEBEB"/>
<path d="M111.932 69.0698C111.418 70.2199 110.899 71.3663 110.373 72.5092L108.791 75.9324L107.19 79.3394C106.651 80.4715 106.109 81.6018 105.562 82.7303C106.078 81.5785 106.598 80.432 107.12 79.291L108.702 75.8678L110.317 72.4607C110.846 71.3286 111.384 70.1983 111.932 69.0698Z" fill="#EBEBEB"/>
<path d="M57.5355 114.456C87.7075 114.456 112.167 112.085 112.167 109.16C112.167 106.235 87.7075 103.864 57.5355 103.864C27.3635 103.864 2.9043 106.235 2.9043 109.16C2.9043 112.085 27.3635 114.456 57.5355 114.456Z" fill="#EBEBEB"/>
<path d="M0.0693359 99.7034L14.4349 99.6388L28.8005 99.6146L57.5344 99.5688L86.2682 99.6146L100.634 99.6361L114.999 99.7034L100.634 99.768L86.2682 99.7922L57.5344 99.838L28.8005 99.7922L14.4349 99.768L0.0693359 99.7034Z" fill="#263238"/>
<path d="M89.8811 12.8286H28.9121V93.8119H89.8811V12.8286Z" fill="#5D95E6"/>
<g opacity="0.1">
<path d="M89.8811 12.8286H28.9121V93.8119H89.8811V12.8286Z" fill="black"/>
</g>
<path d="M91.5393 12.8286H30.5703V93.8119H91.5393V12.8286Z" fill="#5D95E6"/>
<path d="M87.5031 16.0623L33.6836 16.748L34.6132 89.703L88.4326 89.0173L87.5031 16.0623Z" fill="#EBEBEB"/>
<path d="M34.9441 15.835L33.3652 88.7788L87.1765 89.9436L88.7554 16.9998L34.9441 15.835Z" fill="#DBDBDB"/>
<path d="M47.5269 43.5166H42.3652V48.6783H47.5269V43.5166Z" fill="#EBEBEB"/>
<path d="M67.0431 43.5166H50.3174V44.2728H67.0431V43.5166Z" fill="#263238"/>
<path d="M79.7456 44.9829H50.3174V45.7391H79.7456V44.9829Z" fill="#EBEBEB"/>
<path d="M79.7456 46.4526H50.3174V47.2089H79.7456V46.4526Z" fill="#EBEBEB"/>
<path d="M79.7456 47.9219H50.3174V48.6781H79.7456V47.9219Z" fill="#EBEBEB"/>
<path d="M42.7471 45.8281C42.9381 45.9869 43.1185 46.1538 43.2853 46.3206C43.4522 46.4875 43.6379 46.6597 43.8235 46.8293C44.1707 47.1737 44.5071 47.529 44.8381 47.8842L44.2461 47.9246C44.7164 46.9472 45.256 46.0047 45.8608 45.1042C46.1595 44.6521 46.4771 44.2107 46.8162 43.7855C47.1547 43.351 47.5224 42.9401 47.9168 42.5557C47.7608 43.0841 47.5684 43.6012 47.3409 44.1031C47.1203 44.601 46.878 45.0854 46.6197 45.5617C46.1008 46.5121 45.5172 47.4256 44.8731 48.296L44.5475 48.7293L44.2784 48.3337C44.0092 47.9327 43.7401 47.5263 43.471 47.1092C43.3472 46.8992 43.2153 46.692 43.0942 46.4767C42.9731 46.2614 42.8574 46.0515 42.7471 45.8281Z" fill="#5D95E6"/>
<path d="M47.5269 54.335H42.3652V59.4967H47.5269V54.335Z" fill="#EBEBEB"/>
<path d="M67.0458 54.335H50.3174V55.0912H67.0458V54.335Z" fill="#263238"/>
<path d="M79.7456 55.8018H50.3174V56.558H79.7456V55.8018Z" fill="#EBEBEB"/>
<path d="M79.7456 57.271H50.3174V58.0272H79.7456V57.271Z" fill="#EBEBEB"/>
<path d="M79.7456 58.7402H50.3174V59.4965H79.7456V58.7402Z" fill="#EBEBEB"/>
<path d="M47.5269 65.1538H42.3652V70.3155H47.5269V65.1538Z" fill="#EBEBEB"/>
<path d="M67.0431 65.1538H50.3174V65.91H67.0431V65.1538Z" fill="#263238"/>
<path d="M79.7456 66.6201H50.3174V67.3763H79.7456V66.6201Z" fill="#EBEBEB"/>
<path d="M79.7456 68.0898H50.3174V68.8461H79.7456V68.0898Z" fill="#EBEBEB"/>
<path d="M79.7456 69.5591H50.3174V70.3153H79.7456V69.5591Z" fill="#EBEBEB"/>
<path d="M47.5269 75.9722H42.3652V81.1339H47.5269V75.9722Z" fill="#EBEBEB"/>
<path d="M67.0458 75.9722H50.3174V76.7284H67.0458V75.9722Z" fill="#263238"/>
<path d="M79.7456 77.439H50.3174V78.1952H79.7456V77.439Z" fill="#EBEBEB"/>
<path d="M79.7456 78.9082H50.3174V79.6644H79.7456V78.9082Z" fill="#EBEBEB"/>
<path d="M79.7456 80.3774H50.3174V81.1337H79.7456V80.3774Z" fill="#EBEBEB"/>
<path d="M60.0034 36.4951H60.2268L60.8242 38.0129H60.574L60.4125 37.5985H59.8258L59.667 38.0129H59.4141L60.0034 36.4951ZM60.3533 37.4209L60.1084 36.7696L59.8554 37.4209H60.3533Z" fill="#263238"/>
<path d="M61.8742 36.8505C61.8563 36.8312 61.8354 36.8148 61.8123 36.8021C61.7825 36.7823 61.7509 36.7652 61.7181 36.7509C61.6377 36.718 61.552 36.6997 61.4651 36.6971C61.3865 36.6904 61.3078 36.7103 61.2418 36.7536C61.2069 36.7828 61.183 36.8228 61.1737 36.8672C61.1644 36.9116 61.1704 36.9579 61.1906 36.9985C61.2102 37.0231 61.2339 37.044 61.2606 37.0604C61.2987 37.0791 61.3383 37.0944 61.379 37.1062L61.5432 37.1519C61.6148 37.1666 61.685 37.1873 61.7531 37.2138C61.8096 37.2322 61.8625 37.2605 61.9092 37.2973C61.9508 37.3288 61.9848 37.3693 62.0088 37.4157C62.0338 37.4705 62.0457 37.5304 62.0437 37.5906C62.0461 37.6595 62.0313 37.7279 62.0007 37.7897C61.9723 37.8448 61.9307 37.892 61.8796 37.927C61.8267 37.9633 61.7673 37.9889 61.7046 38.0023C61.6341 38.0188 61.5618 38.0269 61.4894 38.0266C61.3752 38.0275 61.2617 38.0102 61.153 37.9754C61.0478 37.9418 60.9494 37.8899 60.8623 37.822L60.97 37.6175C60.9951 37.6403 61.0221 37.661 61.0507 37.6794C61.0893 37.7033 61.1298 37.724 61.1718 37.7413C61.2209 37.7616 61.2712 37.7786 61.3225 37.7924C61.378 37.8056 61.435 37.812 61.4921 37.8113C61.5678 37.8157 61.6433 37.7989 61.71 37.7628C61.7349 37.7479 61.7553 37.7265 61.769 37.7009C61.7827 37.6753 61.7893 37.6465 61.7881 37.6175C61.7891 37.5828 61.7787 37.5488 61.7585 37.5206C61.7369 37.4914 61.7081 37.4683 61.675 37.4533C61.6342 37.4312 61.5908 37.4141 61.5459 37.4022L61.3709 37.3511C61.3034 37.3344 61.2369 37.3137 61.1718 37.2892C61.1208 37.2706 61.0734 37.2433 61.0319 37.2084C60.9959 37.1786 60.9673 37.1409 60.9484 37.0981C60.9278 37.0497 60.9177 36.9974 60.9188 36.9447C60.9172 36.8767 60.9319 36.8093 60.9619 36.7483C60.989 36.6917 61.0285 36.642 61.0776 36.6029C61.1293 36.5618 61.1888 36.5316 61.2525 36.5141C61.3232 36.493 61.3968 36.483 61.4705 36.4845C61.5677 36.4834 61.6644 36.4998 61.7558 36.533C61.8374 36.5623 61.9144 36.6031 61.9845 36.6541L61.8742 36.8505Z" fill="#263238"/>
<path d="M63.1874 36.8503C63.1695 36.8309 63.1486 36.8146 63.1255 36.8018C63.0951 36.7815 63.0626 36.7644 63.0286 36.7507C62.9909 36.7334 62.9511 36.7207 62.9102 36.713C62.8662 36.7022 62.821 36.6968 62.7757 36.6969C62.6971 36.691 62.6187 36.7108 62.5523 36.7534C62.5295 36.7718 62.5113 36.7952 62.4992 36.8218C62.4871 36.8485 62.4813 36.8775 62.4823 36.9068C62.4801 36.9388 62.4876 36.9707 62.5039 36.9983C62.5227 37.0235 62.5465 37.0446 62.5738 37.0602C62.6107 37.0794 62.6495 37.0947 62.6896 37.1059L62.8564 37.1517C62.927 37.1667 62.9963 37.1874 63.0636 37.2136C63.121 37.232 63.1747 37.2603 63.2224 37.297C63.264 37.3286 63.298 37.369 63.322 37.4154C63.3457 37.4707 63.3577 37.5302 63.357 37.5904C63.3584 37.6595 63.3426 37.7279 63.3112 37.7895C63.2839 37.8445 63.2432 37.8917 63.1928 37.9268C63.1386 37.9624 63.0784 37.9879 63.0152 38.0021C62.9446 38.0187 62.8724 38.0269 62.7999 38.0263C62.6867 38.0269 62.574 38.0097 62.4662 37.9752C62.3602 37.9416 62.2609 37.8897 62.1729 37.8218L62.2832 37.6173C62.3083 37.6401 62.3353 37.6608 62.3639 37.6792C62.4026 37.703 62.4431 37.7237 62.485 37.7411C62.534 37.7617 62.5843 37.7788 62.6357 37.7922C62.6913 37.8054 62.7482 37.8117 62.8053 37.811C62.881 37.8154 62.9565 37.7986 63.0233 37.7626C63.0607 37.736 63.0865 37.6961 63.0955 37.6511C63.1045 37.6061 63.096 37.5593 63.0717 37.5204C63.0487 37.4926 63.0203 37.4697 62.9883 37.4531C62.9467 37.4306 62.9023 37.4134 62.8564 37.402L62.6815 37.3508C62.6148 37.3342 62.5492 37.3135 62.485 37.2889C62.434 37.2704 62.3867 37.2431 62.3451 37.2082C62.3091 37.1778 62.2798 37.1402 62.259 37.0979C62.2393 37.0492 62.2302 36.9969 62.2321 36.9445C62.2304 36.8765 62.2452 36.8091 62.2751 36.748C62.2978 36.691 62.3338 36.6403 62.3801 36.6C62.4315 36.5584 62.4911 36.5281 62.555 36.5112C62.6257 36.4901 62.6992 36.4801 62.773 36.4816C62.8648 36.4823 62.9558 36.4987 63.0421 36.53C63.1239 36.5588 63.201 36.5996 63.2709 36.6511L63.1874 36.8503Z" fill="#263238"/>
<path d="M64.2233 37.8057C64.2926 37.8088 64.3614 37.793 64.4224 37.76C64.4734 37.7288 64.5167 37.6865 64.5489 37.6362C64.5821 37.5836 64.6049 37.5251 64.6162 37.4639C64.6302 37.3985 64.6374 37.3317 64.6377 37.2648V36.4951H64.8799V37.2648C64.88 37.3638 64.8674 37.4624 64.8423 37.5581C64.8204 37.6458 64.781 37.7282 64.7265 37.8003C64.6734 37.8698 64.6041 37.9252 64.5247 37.9618C64.4301 38.0046 64.3271 38.0257 64.2233 38.0237C64.1173 38.0271 64.0121 38.0049 63.9165 37.9591C63.8365 37.921 63.7672 37.8637 63.7147 37.7923C63.6626 37.7181 63.6243 37.6351 63.6016 37.5474C63.58 37.4547 63.5691 37.3599 63.5693 37.2648V36.4951H63.8089V37.2648C63.8082 37.3325 63.8145 37.4002 63.8277 37.4666C63.8404 37.5278 63.8641 37.5862 63.8977 37.6389C63.9293 37.689 63.9727 37.7305 64.0241 37.76C64.0851 37.793 64.154 37.8088 64.2233 37.8057Z" fill="#263238"/>
<path d="M65.1973 38.013V36.4951H65.8593C65.9243 36.4945 65.9887 36.5083 66.0477 36.5355C66.1039 36.5632 66.1542 36.6016 66.1957 36.6485C66.2385 36.6943 66.2714 36.7484 66.2926 36.8073C66.3169 36.8644 66.3297 36.9256 66.3303 36.9876C66.33 37.0377 66.3228 37.0875 66.3087 37.1356C66.2942 37.1814 66.2733 37.2248 66.2468 37.2648C66.2221 37.3053 66.1902 37.3408 66.1526 37.3698C66.1173 37.3996 66.076 37.4216 66.0315 37.4344L66.3895 38.013H66.1203L65.7893 37.4747H65.4395V38.013H65.1973ZM65.4368 37.2729H65.8566C65.8896 37.2732 65.9221 37.2649 65.9508 37.2487C65.9789 37.2341 66.0029 37.2129 66.0208 37.1868C66.0416 37.16 66.058 37.13 66.0692 37.098C66.08 37.0622 66.0855 37.025 66.0854 36.9876C66.0852 36.9507 66.0779 36.9141 66.0638 36.88C66.0517 36.847 66.0344 36.8161 66.0127 36.7885C65.9905 36.7641 65.9641 36.7441 65.9346 36.7293C65.9068 36.7134 65.8752 36.7051 65.8431 36.7051H65.4368V37.2729Z" fill="#263238"/>
<path d="M67.0354 36.4951H67.2454L67.8428 38.0129H67.5898L67.431 37.5985H66.8444L66.6856 38.0129H66.4326L67.0354 36.4951ZM67.3826 37.4209L67.1404 36.7696L66.8874 37.4209H67.3826Z" fill="#263238"/>
<path d="M65.5554 22.8882H67.5334L71.912 34.4011H69.611L68.5345 31.5323H64.5327L63.4562 34.4011H61.1553L65.5554 22.8882ZM68.1335 29.9579L66.5457 25.434L64.8906 29.9579H68.1335Z" fill="#263238"/>
<path d="M74.2752 11.3511H47.8369V19.4112H74.2752V11.3511Z" fill="#C7C7C7"/>
<path d="M69.137 6.9458H52.7208L51.9941 11.3513H70.0978L69.137 6.9458ZM61.0635 10.116C60.8717 10.1166 60.6842 10.0602 60.5245 9.95406C60.3648 9.84793 60.2402 9.6968 60.1665 9.51982C60.0927 9.34284 60.0731 9.14795 60.1102 8.95984C60.1473 8.77173 60.2394 8.59885 60.3747 8.46309C60.5101 8.32733 60.6828 8.23479 60.8708 8.19718C61.0588 8.15958 61.2537 8.17861 61.4309 8.25186C61.6081 8.32511 61.7596 8.44928 61.8661 8.60867C61.9727 8.76805 62.0296 8.95546 62.0296 9.1472C62.0296 9.27488 62.0044 9.4013 61.9553 9.5192C61.9063 9.6371 61.8345 9.74414 61.7439 9.83417C61.6534 9.92421 61.546 9.99546 61.4278 10.0438C61.3096 10.0922 61.1831 10.1167 61.0554 10.116H61.0635Z" fill="#C7C7C7"/>
<path d="M70.1085 11.3514H52.0049L52.1664 10.3638H69.8879L70.1085 11.3514Z" fill="#A6A6A6"/>
<path d="M108.617 85.3566C108.428 86.0442 108.303 86.7478 108.245 87.4585C108.264 87.4934 108.261 87.6226 108.245 87.5876C108.245 87.7033 108.065 87.6818 108.065 87.5688C108.065 87.4558 108.065 87.4208 108.065 87.3481C107.653 86.8395 107.056 86.5165 106.574 86.0725C106.19 85.7232 105.91 85.2741 105.767 84.7753C105.368 83.3974 105.742 81.9361 105.261 80.5636C104.846 79.3795 104.103 78.3488 103.474 77.275C102.812 76.1393 102.322 74.9471 102.271 73.6176C102.233 72.6004 102.354 71.244 103.129 70.4797C103.95 69.6724 104.97 70.2779 105.6 70.9991C107.424 73.0929 108.269 75.741 108.611 78.4456C108.835 79.9404 108.944 81.4501 108.937 82.9615C108.91 83.7685 108.803 84.5709 108.617 85.3566Z" fill="#5D95E6"/>
<path d="M108.254 88.0019C108.354 86.5892 108.337 85.1705 108.203 83.7606C108.203 83.7606 108.203 83.7606 108.203 83.7444C108.224 82.598 108.316 81.4569 108.273 80.3078C108.215 79.0662 108.045 77.8322 107.767 76.6209C107.767 76.6074 107.742 76.6209 107.745 76.6209C107.968 77.8113 108.101 79.0167 108.143 80.2271C108.168 80.8765 108.163 81.5242 108.127 82.1701C108.127 82.3827 108.098 82.5953 108.084 82.8052C107.609 79.5857 106.446 76.5063 104.674 73.7763C104.65 73.7386 104.583 73.7763 104.607 73.8166C105.871 75.8918 106.808 78.1493 107.384 80.5096C106.507 78.8949 105.18 77.5493 104.198 75.9857C104.198 75.9857 104.179 75.9857 104.182 75.9857C105.067 77.7243 106.526 79.0941 107.454 80.8084C107.616 81.5081 107.75 82.2105 107.847 82.9209C107.979 83.8934 108.05 84.8731 108.06 85.8543C107.501 84.8779 106.991 83.8737 106.534 82.8456C106.533 82.842 106.532 82.8385 106.53 82.8355C106.528 82.8325 106.525 82.8301 106.522 82.8283C106.518 82.8266 106.515 82.8256 106.511 82.8254C106.507 82.8253 106.504 82.826 106.5 82.8274C106.497 82.8289 106.494 82.8312 106.492 82.834C106.489 82.8368 106.488 82.8401 106.487 82.8436C106.486 82.8472 106.486 82.8509 106.486 82.8545C106.487 82.8581 106.489 82.8615 106.491 82.8644C106.847 84.0096 107.377 85.0933 108.063 86.0777C108.063 86.7738 108.043 87.4691 108.003 88.1634C107.896 90.0149 107.578 91.8422 107.433 93.6884C107.435 93.6977 107.441 93.7059 107.448 93.7117C107.456 93.7176 107.465 93.7208 107.475 93.7208C107.484 93.7208 107.493 93.7176 107.501 93.7117C107.509 93.7059 107.514 93.6977 107.516 93.6884C107.89 91.8117 108.137 89.9119 108.254 88.0019Z" fill="#263238"/>
<path d="M106.286 73.7389C106.286 73.7254 106.262 73.7389 106.265 73.7389C106.604 74.6754 106.803 75.6227 107.04 76.5808C107.04 76.5901 107.044 76.599 107.05 76.6055C107.057 76.6121 107.066 76.6158 107.075 76.6158C107.084 76.6158 107.093 76.6121 107.1 76.6055C107.106 76.599 107.11 76.5901 107.11 76.5808C106.975 75.5984 106.698 74.641 106.286 73.7389Z" fill="#263238"/>
<path d="M114.877 77.6464C114.652 78.1953 114.392 78.7292 114.099 79.2449C113.491 80.351 112.856 81.3629 112.74 82.652C112.721 83.228 112.639 83.8001 112.495 84.3582C112.336 84.8379 112.106 85.2914 111.814 85.7038C111.155 86.6646 110.329 87.4934 109.718 88.4919C109.081 89.5332 108.611 90.6672 108.324 91.8532C108.308 91.9178 108.205 91.8989 108.221 91.8343C108.221 91.8343 108.221 91.8343 108.221 91.8209C108.125 89.057 108.345 86.2743 109.188 83.6289C109.563 82.4655 110.012 81.3275 110.533 80.2218C110.957 79.2438 111.572 78.3601 112.342 77.6222C112.856 77.1593 113.97 76.2766 114.702 76.7448C115.041 76.9467 115.017 77.2992 114.877 77.6464Z" fill="#5D95E6"/>
<path d="M112.102 83.906C111.612 84.7084 111.073 85.4796 110.487 86.2151C110.218 86.5622 109.949 86.9094 109.68 87.2592C109.553 87.4234 109.411 87.5876 109.295 87.7652C109.37 87.4745 109.44 87.1839 109.515 86.8959C109.836 85.4886 110.247 84.1034 110.745 82.7488C111.288 81.4463 111.928 80.1868 112.661 78.9811C112.68 78.9489 112.629 78.9273 112.61 78.9569C112.026 79.9177 111.434 80.8757 110.945 81.8876C110.673 82.452 110.437 83.0326 110.237 83.6261C110.461 82.3671 110.776 81.1259 111.179 79.9123C111.179 79.9123 111.165 79.8935 111.16 79.9123C110.633 81.1411 110.303 82.4453 110.183 83.7768C110.064 84.1348 109.954 84.4981 109.849 84.8533C109.416 86.3981 109.042 87.959 108.679 89.5252C108.674 88.4956 108.764 87.4677 108.948 86.4546C108.948 86.4304 108.918 86.425 108.913 86.4546C108.641 87.5082 108.55 88.6001 108.644 89.684C108.509 90.2788 108.374 90.8762 108.251 91.4737C107.982 92.7466 107.645 94.041 107.486 95.3355C107.488 95.3409 107.492 95.3456 107.496 95.3489C107.501 95.3522 107.506 95.354 107.512 95.354C107.518 95.354 107.523 95.3522 107.528 95.3489C107.532 95.3456 107.536 95.3409 107.537 95.3355C107.729 94.6385 107.842 93.9146 107.998 93.2095C108.154 92.5044 108.313 91.7966 108.477 91.0888C108.716 90.0635 108.969 89.0381 109.225 88.0128C109.434 87.6441 109.685 87.3009 109.973 86.9901C110.242 86.6457 110.511 86.2985 110.78 85.9486C111.276 85.2988 111.721 84.6113 112.11 83.8926C112.134 83.9033 112.11 83.8926 112.102 83.906Z" fill="#263238"/>
<path d="M112.217 82.7248C111.611 83.5017 111.085 84.3385 110.648 85.2222H110.667C111.206 84.3934 111.714 83.5591 112.244 82.7302C112.252 82.7275 112.228 82.7141 112.217 82.7248Z" fill="#263238"/>
<path d="M100.459 80.2651C100.817 80.8814 101.226 81.6107 101.073 82.3616C100.976 82.8298 100.632 83.2093 100.57 83.6883C100.433 84.7433 101.485 85.4403 102.244 85.9382C104.141 87.1842 106.743 88.293 107.088 90.8334C107.101 90.9249 107.255 90.9007 107.244 90.8146C107.245 90.8084 107.245 90.802 107.244 90.7958C107.244 90.7958 107.244 90.7958 107.244 90.7823C107.495 89.4997 107.483 88.1795 107.209 86.9016C106.899 85.6144 106.382 84.3858 105.68 83.2631C104.539 81.3147 103.331 79.3205 101.603 77.8296C101.127 77.4179 100.147 76.6751 99.7678 77.6062C99.3883 78.5374 100.021 79.5116 100.459 80.2651Z" fill="#5D95E6"/>
<path d="M102.208 84.3932C103.468 85.7549 105.468 86.5166 106.549 88.0425C105.945 85.7215 104.802 83.5753 103.215 81.7774C103.21 81.7729 103.207 81.7677 103.204 81.7618C103.202 81.756 103.2 81.7497 103.2 81.7433C103.2 81.737 103.201 81.7306 103.203 81.7247C103.206 81.7188 103.209 81.7133 103.214 81.7087C103.218 81.7041 103.223 81.7005 103.229 81.6979C103.235 81.6954 103.241 81.694 103.248 81.6939C103.254 81.6937 103.26 81.6949 103.266 81.6972C103.272 81.6995 103.278 81.703 103.282 81.7074C104.44 82.833 105.366 84.1742 106.008 85.6554C105.709 84.6216 105.316 83.6173 104.835 82.6547C104.831 82.6472 104.83 82.6383 104.832 82.63C104.834 82.6217 104.84 82.6146 104.847 82.6103C104.855 82.606 104.864 82.6049 104.872 82.6072C104.88 82.6094 104.887 82.6149 104.892 82.6224C105.488 83.673 105.915 84.811 106.156 85.9945C107.583 89.4473 107.715 93.4975 107.416 97.136C107.416 97.1871 107.333 97.1898 107.333 97.136C107.416 94.2672 107.367 91.3499 106.681 88.5484C106.668 88.4919 106.652 88.4327 106.635 88.3762C105.459 86.7345 103.468 85.9729 102.187 84.4147C102.163 84.3986 102.182 84.3771 102.208 84.3932Z" fill="#263238"/>
<path d="M101.905 83.2227C102.564 83.8282 103.215 84.4472 103.877 85.0527C103.13 84.5479 102.457 83.941 101.878 83.2496C101.878 83.2424 101.881 83.2356 101.886 83.2305C101.891 83.2255 101.898 83.2227 101.905 83.2227Z" fill="#263238"/>
<path d="M104.773 99.7036H110.554L109.776 91.9233H105.664L104.773 99.7036Z" fill="#455A64"/>
<path d="M105.519 93.1882H109.903L109.776 91.9233H105.661L105.519 93.1882Z" fill="#263238"/>
<path d="M104.954 92.3027H110.374V91.0594H104.954V92.3027Z" fill="#455A64"/>
<path d="M57.2477 28.2925H53.8164C53.8164 28.2925 53.8164 28.4163 53.8164 28.6181C53.8164 28.6881 53.8164 28.7661 53.8164 28.8522C53.8282 29.0693 53.8561 29.2852 53.8998 29.4981C53.916 29.5762 53.9348 29.6542 53.9537 29.735C54.0066 29.9371 54.0834 30.1322 54.1824 30.3163C54.2226 30.3977 54.2703 30.4752 54.325 30.5477C54.4652 30.7338 54.6468 30.8848 54.8553 30.9888C55.0638 31.0928 55.2936 31.1469 55.5267 31.1469C55.7597 31.1469 55.9895 31.0928 56.198 30.9888C56.4066 30.8848 56.5881 30.7338 56.7283 30.5477C56.7829 30.4746 56.8315 30.3972 56.8736 30.3163C56.9712 30.1319 57.0471 29.9368 57.0997 29.735C57.1185 29.6542 57.1373 29.5762 57.1535 29.4981C57.1973 29.2852 57.2251 29.0693 57.2369 28.8522C57.2369 28.7661 57.2369 28.6881 57.2369 28.6181C57.2461 28.5098 57.2496 28.4011 57.2477 28.2925ZM55.633 30.693H55.4311V28.5912H55.633V30.693Z" fill="#5D95E6"/>
<path d="M57.2668 28.0338H53.8086C53.8086 27.361 54.5298 26.7231 55.5336 26.7231C56.5375 26.7231 57.2668 27.361 57.2668 28.0338Z" fill="#5D95E6"/>
<path d="M54.0451 28.8518H53.3804L52.9121 28.0471L53.1139 27.9287L53.5149 28.6177H54.0451V28.8518Z" fill="#5D95E6"/>
<path d="M54.2202 29.498H53.0469V29.7322H54.2202V29.498Z" fill="#5D95E6"/>
<path d="M53.4288 31.0049L53.2539 30.8461L53.7329 30.3159H54.5053V30.5501H53.8379L53.4288 31.0049Z" fill="#5D95E6"/>
<path d="M57.6835 28.8518H57.0215V28.6177H57.549L57.9499 27.9287L58.1518 28.0471L57.6835 28.8518Z" fill="#5D95E6"/>
<path d="M58.0171 29.498H56.8438V29.7322H58.0171V29.498Z" fill="#5D95E6"/>
<path d="M57.6378 31.0049L57.226 30.5501H56.5586V30.3159H57.331L57.81 30.8461L57.6378 31.0049Z" fill="#5D95E6"/>
<path d="M55.0702 27.3961L54.0986 26.4246V25.4907H54.3328V26.3277L55.237 27.2292L55.0702 27.3961Z" fill="#5D95E6"/>
<path d="M55.9933 27.3961L55.8291 27.2292L56.7306 26.3277V25.4907H56.9648V26.4246L55.9933 27.3961Z" fill="#5D95E6"/>
<path d="M69.9551 108.506C70.4933 108.678 85.6501 108.482 86.2233 108.107C86.4413 107.968 86.5436 105.758 86.5866 103.083C86.5866 103.053 86.8369 93.1982 86.8369 93.1982L77.1325 93.3005L76.8095 103.183C76.8095 103.183 71.0369 105.852 70.4529 106.331C69.869 106.81 69.4222 108.336 69.9551 108.506Z" fill="#F7A9A0"/>
<path d="M86.6641 100.002C86.6211 101.711 86.5995 103.073 86.5995 103.073C86.5565 105.748 86.4542 107.957 86.2362 108.097C85.663 108.471 70.4981 108.668 69.968 108.495C69.4378 108.323 69.8846 106.797 70.4658 106.321C71.0471 105.845 76.8224 103.172 76.8224 103.172L76.9274 99.9912L86.6641 100.002Z" fill="#DBDBDB"/>
<path d="M74.5107 104.219C74.5484 104.219 74.57 104.195 74.5726 104.184C74.5512 104.194 74.5305 104.206 74.5107 104.219Z" fill="#5D95E6"/>
<path d="M69.9149 108.495C70.2594 108.608 76.7129 108.589 81.409 108.46C82.4855 108.43 83.4893 108.393 84.2913 108.352C85.3947 108.296 86.1374 108.231 86.2558 108.153C86.525 107.981 86.6272 104.738 86.6649 101.32L76.7586 101.385L76.8205 103.172C76.8205 103.172 71.0129 105.836 70.4236 106.312C69.8342 106.789 69.3901 108.32 69.9149 108.495Z" fill="#5D95E6"/>
<path d="M70.1351 107.884C72.6863 107.798 82.9909 107.69 85.5206 107.798C85.5395 107.798 85.5395 107.812 85.5206 107.814C82.9909 107.954 72.689 107.981 70.1351 107.927C70.0813 107.916 70.0813 107.887 70.1351 107.884Z" fill="#263238"/>
<path d="M76.4622 102.609C77.4633 102.41 78.6959 102.553 79.4682 103.263C79.4978 103.29 79.4682 103.333 79.4279 103.323C78.465 103.021 77.4725 102.825 76.4675 102.736C76.4528 102.734 76.4394 102.726 76.4295 102.715C76.4195 102.704 76.4138 102.69 76.4131 102.675C76.4125 102.66 76.417 102.645 76.426 102.633C76.4349 102.622 76.4477 102.613 76.4622 102.609Z" fill="#263238"/>
<path d="M75.7405 103.053C76.7443 102.854 77.9742 102.997 78.7465 103.707C78.7788 103.734 78.7465 103.777 78.7062 103.766C77.7434 103.465 76.7509 103.268 75.7459 103.18C75.7311 103.177 75.7177 103.17 75.7078 103.159C75.6979 103.148 75.6921 103.134 75.6915 103.119C75.6908 103.104 75.6954 103.089 75.7043 103.077C75.7132 103.065 75.726 103.057 75.7405 103.053Z" fill="#263238"/>
<path d="M75.0276 103.498C76.0314 103.298 77.2613 103.441 78.0337 104.152C78.0659 104.179 78.0336 104.222 77.9933 104.211C77.0305 103.909 76.038 103.713 75.033 103.624C75.0183 103.622 75.0048 103.614 74.9949 103.603C74.985 103.592 74.9792 103.578 74.9786 103.563C74.9779 103.548 74.9825 103.534 74.9914 103.522C75.0003 103.51 75.0131 103.501 75.0276 103.498Z" fill="#263238"/>
<path d="M74.2983 103.939C75.3021 103.742 76.532 103.885 77.307 104.596C77.3366 104.622 77.307 104.663 77.264 104.655C76.3012 104.353 75.3086 104.157 74.3037 104.068C74.2952 104.068 74.2867 104.067 74.2787 104.064C74.2708 104.061 74.2635 104.057 74.2572 104.051C74.251 104.045 74.2459 104.038 74.2423 104.031C74.2388 104.023 74.2367 104.015 74.2364 104.006C74.236 103.998 74.2373 103.989 74.2403 103.981C74.2432 103.973 74.2477 103.966 74.2534 103.96C74.2591 103.953 74.2661 103.948 74.2738 103.945C74.2815 103.941 74.2898 103.939 74.2983 103.939Z" fill="#263238"/>
<path d="M89.6812 49.5176C89.6812 49.5176 87.208 75.2023 86.8367 77.1561C86.7505 77.6029 86.6079 102.278 86.6079 102.278L76.2549 102.12C76.2549 102.12 77.2614 80.8942 77.735 76.9893C78.2087 73.0843 80.4262 49.5176 80.4262 49.5176H89.6812Z" fill="#263238"/>
<path d="M86.2881 100.112C85.9785 100.071 85.6667 100.048 85.3543 100.045L84.4205 100.002C83.8069 99.9773 83.196 99.9504 82.5824 99.9289C81.3364 99.8859 80.0876 99.8455 78.8416 99.7997C78.1392 99.7728 77.4368 99.7728 76.7344 99.7782C76.7287 99.7782 76.7232 99.7805 76.7192 99.7845C76.7152 99.7885 76.7129 99.794 76.7129 99.7997C76.7129 99.8054 76.7152 99.8109 76.7192 99.815C76.7232 99.819 76.7287 99.8213 76.7344 99.8213C79.2157 100.072 81.7239 100.123 84.2159 100.185L85.2924 100.203C85.6306 100.218 85.9694 100.213 86.307 100.187C86.3312 100.19 86.3312 100.128 86.2881 100.112Z" fill="#37474F"/>
<path d="M88.2822 50.6506C87.5287 56.913 86.7724 63.1754 86.1481 69.454C85.8386 72.5677 85.548 75.6841 85.3542 78.8058C85.1604 81.9276 85.0851 85.1059 85.0393 88.26C84.9882 91.8231 84.9048 95.389 84.9613 98.9548C84.9613 98.9871 85.0124 98.9844 85.0151 98.9548C85.3246 92.6574 85.2358 86.3439 85.5695 80.0465C85.9032 73.7491 86.5868 67.4705 87.2811 61.2081C87.6686 57.7096 88.0319 54.1868 88.3952 50.6748C88.4006 50.5941 88.2903 50.5941 88.2822 50.6506Z" fill="#37474F"/>
<path d="M91.0299 109.693C91.5869 109.736 106.289 106.009 106.757 105.511C106.938 105.325 106.52 103.151 105.95 100.54L105.931 100.457C105.813 99.9184 102.702 90.8706 102.702 90.8706L93.164 93.325L96.4069 102.758L96.4499 102.916C96.4499 102.916 91.4631 106.862 91.003 107.462C90.5428 108.062 90.4728 109.652 91.0299 109.693Z" fill="#F7A9A0"/>
<path d="M106.757 105.51C106.289 106.008 91.5895 109.736 91.0325 109.693C90.4754 109.65 90.5534 108.062 91.0082 107.462C91.4631 106.861 96.4552 102.916 96.4552 102.916L96.4095 102.757L95.4568 99.9908C97.311 99.3934 102.08 98.2039 104.957 97.5015C105.468 99.0301 105.88 100.268 105.92 100.462C105.92 100.491 105.92 100.518 105.939 100.545C106.515 103.15 106.94 105.325 106.757 105.51Z" fill="#DBDBDB"/>
<path d="M91.0081 109.76C91.3714 109.784 97.6285 108.21 102.155 106.953C103.202 106.66 104.157 106.385 104.924 106.146C105.985 105.823 106.687 105.58 106.787 105.476C107.002 105.244 106.321 102.074 105.535 98.7476L95.933 101.202L96.4255 102.919C96.4255 102.919 91.4441 106.913 90.9758 107.518C90.5076 108.124 90.451 109.72 91.0081 109.76Z" fill="#5D95E6"/>
<path d="M91.067 109.117C93.5241 108.417 103.495 105.823 105.976 105.319C105.998 105.319 106 105.319 105.976 105.319C103.554 106.067 93.5618 108.578 91.0724 109.144C91.024 109.168 91.0159 109.13 91.067 109.117Z" fill="#263238"/>
<path d="M95.9325 102.47C96.8583 102.036 98.0854 101.877 99.0112 102.378C99.0462 102.397 99.0112 102.448 98.9843 102.445C97.9773 102.386 96.9668 102.435 95.9702 102.591C95.9553 102.592 95.9402 102.589 95.9277 102.58C95.9151 102.572 95.9058 102.56 95.9014 102.546C95.8969 102.531 95.8976 102.516 95.9032 102.502C95.9089 102.488 95.9193 102.477 95.9325 102.47Z" fill="#263238"/>
<path d="M95.3413 103.072C96.267 102.642 97.4942 102.483 98.4173 102.984C98.455 103.003 98.4173 103.054 98.3931 103.051C97.3852 102.992 96.3738 103.04 95.3762 103.196C95.3604 103.199 95.344 103.196 95.3303 103.188C95.3166 103.179 95.3066 103.166 95.3022 103.15C95.2979 103.135 95.2994 103.118 95.3066 103.104C95.3139 103.089 95.3262 103.078 95.3413 103.072Z" fill="#263238"/>
<path d="M94.7485 103.678C95.6743 103.245 96.9014 103.086 97.8245 103.586C97.8595 103.608 97.8245 103.656 97.7976 103.656C96.7906 103.597 95.7801 103.646 94.7835 103.802C94.7676 103.805 94.7513 103.802 94.7376 103.793C94.7239 103.785 94.7138 103.771 94.7095 103.756C94.7051 103.74 94.7067 103.724 94.7139 103.709C94.7211 103.695 94.7334 103.684 94.7485 103.678Z" fill="#263238"/>
<path d="M94.1566 104.283C95.0823 103.85 96.3095 103.691 97.2326 104.192C97.2676 104.211 97.2326 104.262 97.2057 104.259C96.1987 104.2 95.1882 104.249 94.1916 104.405C94.1769 104.405 94.1624 104.401 94.1504 104.393C94.1384 104.384 94.1297 104.372 94.1256 104.358C94.1215 104.344 94.1224 104.329 94.128 104.315C94.1336 104.302 94.1437 104.291 94.1566 104.283Z" fill="#263238"/>
<path d="M95.4803 102.02L105.976 99.4933C105.976 99.4933 98.1257 79.0617 97.6817 77.6946C97.3614 76.6989 94.7591 64.5481 93.8441 59.2411C93.8441 59.2411 95.2112 55.3658 92.1513 49.5151H80.4258C80.4258 49.5151 80.6949 55.0832 82.1078 58.614C83.0535 58.9452 83.967 59.3623 84.8366 59.8601C84.8366 59.8601 88.1953 78.8626 88.7469 80.5822C89.9418 84.3391 95.4803 102.02 95.4803 102.02Z" fill="#263238"/>
<path d="M86.7049 70.0247C86.2815 67.7892 85.8617 65.5466 85.4454 63.2967C85.327 62.667 85.1925 62.0373 85.0633 61.4129C84.9341 60.7886 84.8184 60.1481 84.6381 59.5291C84.6349 59.521 84.6289 59.5143 84.6213 59.5101C84.6137 59.5059 84.6048 59.5044 84.5962 59.506C84.5877 59.5076 84.5799 59.5121 84.5743 59.5188C84.5687 59.5254 84.5655 59.5338 84.5654 59.5425C84.6004 60.1131 84.7054 60.6836 84.7807 61.2514C84.8561 61.8193 84.9395 62.3548 85.031 62.9038C85.2248 64.0314 85.4347 65.1564 85.6473 66.2813C86.0752 68.5257 86.5004 70.7783 87.0225 73.0093C87.3158 74.2607 87.5903 75.5174 87.9025 76.7769C87.9025 76.8038 87.9456 76.7904 87.9429 76.7769C87.55 74.5109 87.1382 72.2692 86.7049 70.0247Z" fill="#37474F"/>
<path d="M84.2341 57.0529C84.3902 56.6627 84.2664 56.2106 84.1937 55.8149C84.1022 55.3117 84.0161 54.8084 83.9246 54.3052C83.7147 53.1695 83.4868 52.0374 83.241 50.9089H83.2195C83.3298 51.8131 83.4536 52.7147 83.5828 53.6001C83.712 54.4855 83.8896 55.4059 84.0026 56.3128C84.0376 56.6089 84.0026 57.1848 83.5882 57.1875C83.2276 57.1875 83.0123 56.6492 82.8965 56.3801C82.5942 55.5755 82.3742 54.7424 82.2399 53.8934C82.0327 52.895 81.8631 51.8885 81.6882 50.8847C81.6882 50.8497 81.6263 50.8605 81.629 50.8847C81.6954 51.8822 81.813 52.8757 81.9815 53.8611C82.1349 54.8004 82.2803 55.788 82.6759 56.66C82.8239 56.9883 83.0311 57.392 83.4106 57.4943C83.4634 57.507 83.5176 57.5133 83.572 57.5131C83.607 57.8118 83.6528 58.1105 83.7147 58.4066C83.7695 58.7164 83.8487 59.0215 83.9515 59.3189C83.9515 59.3282 83.9552 59.3371 83.9617 59.3436C83.9683 59.3502 83.9772 59.3539 83.9865 59.3539C83.9958 59.3539 84.0047 59.3502 84.0112 59.3436C84.0178 59.3371 84.0215 59.3282 84.0215 59.3189C83.9959 59.0103 83.95 58.7037 83.8842 58.4012C83.8247 58.1034 83.7501 57.8088 83.6608 57.5185C83.7878 57.4951 83.9068 57.4403 84.0069 57.3589C84.1071 57.2776 84.1852 57.1723 84.2341 57.0529Z" fill="#37474F"/>
<path d="M86.1986 59.9918C85.602 59.722 84.9787 59.5154 84.339 59.3756C83.7184 59.24 83.0888 59.15 82.4551 59.1064C82.4494 59.1064 82.4439 59.1087 82.4399 59.1128C82.4359 59.1168 82.4336 59.1223 82.4336 59.128C82.4336 59.1337 82.4359 59.1392 82.4399 59.1432C82.4439 59.1472 82.4494 59.1495 82.4551 59.1495C83.0822 59.2464 85.5608 59.8546 86.1824 60.0107C86.204 60.0134 86.2147 60.0134 86.1986 59.9918Z" fill="#37474F"/>
<path d="M101.49 92.052C100.93 90.5628 100.369 89.0728 99.8079 87.5819C98.691 84.6216 97.5419 81.6855 96.4331 78.7306C95.3244 75.7756 94.8695 72.705 94.2802 69.6505C93.9734 68.095 93.672 66.5368 93.3652 64.9813C93.0584 63.4258 92.6924 61.8945 92.5121 60.3309C92.3318 58.7673 92.5659 57.2737 92.4313 55.7559C92.3102 54.3906 91.9457 53.0581 91.3549 51.8213C91.2041 51.5065 91.04 51.2024 90.8597 50.9037C90.8381 50.8687 90.787 50.9037 90.8058 50.9386C91.4895 52.2171 91.9449 53.605 92.1514 55.04C92.2497 55.7532 92.2875 56.4734 92.2645 57.193C92.2429 57.9626 92.1891 58.735 92.2268 59.5074C92.2995 61.0494 92.6574 62.57 92.9534 64.0824C93.2494 65.5949 93.5589 67.1638 93.863 68.7059C94.1671 70.2479 94.4793 71.8169 94.7834 73.3724C95.049 74.8925 95.4131 76.3938 95.8734 77.8667C96.3658 79.3361 96.9498 80.7786 97.4881 82.2264C98.0532 83.7174 98.6157 85.2056 99.1862 86.6938C100.319 89.6541 101.431 92.6279 102.615 95.5747C102.755 95.9165 102.884 96.2583 103.045 96.5947C103.064 96.6404 103.134 96.5947 103.121 96.5597C102.639 95.0257 102.05 93.5402 101.49 92.052Z" fill="#37474F"/>
<path d="M104.773 97.2972C104.464 97.3468 104.159 97.4151 103.858 97.5018L102.951 97.7332C102.359 97.8893 101.764 98.04 101.172 98.1988L97.5554 99.1595C96.8745 99.3372 96.2098 99.5417 95.5316 99.7516C95.5275 99.7531 95.5239 99.7559 95.5214 99.7595C95.5189 99.7631 95.5176 99.7674 95.5176 99.7718C95.5176 99.7762 95.5189 99.7805 95.5214 99.7841C95.5239 99.7877 95.5275 99.7904 95.5316 99.792C97.9779 99.3102 100.392 98.6348 102.798 97.9673C103.142 97.8731 103.484 97.7736 103.826 97.674C104.155 97.5928 104.477 97.4894 104.792 97.3645C104.843 97.3484 104.811 97.2919 104.773 97.2972Z" fill="#37474F"/>
<path d="M77.8854 42.0255L79.5001 42.109C79.9995 41.2122 80.2073 40.1823 80.0949 39.1621C80.0734 38.9307 80.5874 40.2817 80.3183 42.152C82.0191 42.2382 84.3308 42.3566 86.3519 42.44C86.4111 41.6515 86.5053 40.9249 86.5053 40.9249C86.5554 41.4444 86.6509 41.9586 86.7906 42.4615L87.5979 42.4938C87.6181 41.3707 87.6989 40.2496 87.8401 39.1352C87.9562 40.3105 88.2644 41.4587 88.7525 42.5342C90.0362 42.5745 90.8812 42.5772 90.8274 42.5127C88.9435 40.2332 90.4048 38.9899 89.907 37.0145C89.3095 34.6463 87.2938 34.2184 87.4015 32.4557C87.4876 31.0213 87.7379 28.4189 85.9375 27.8134C85.4599 27.3211 84.8481 26.9801 84.1782 26.8327C83.5083 26.6853 82.8099 26.7381 82.1698 26.9845C79.2714 28.0017 80.286 32.4611 80.0653 33.3572C79.7504 34.6355 79.1261 35.0715 78.6282 36.5274C78.1303 37.9834 78.7708 39.0033 78.8193 40.026C78.8677 41.0486 77.5625 42.0148 77.8854 42.0255Z" fill="#263238"/>
<path d="M90.8846 42.1978C90.6289 41.8026 90.4304 41.3731 90.2953 40.9222C90.1914 40.4777 90.2062 40.0136 90.3383 39.5766C90.4379 39.1164 90.5563 38.6508 90.6075 38.1637C90.6737 37.6678 90.6398 37.1636 90.5079 36.6809C90.3642 36.1982 90.1109 35.7552 89.7678 35.3864C89.4374 35.0341 89.0772 34.7108 88.6913 34.4203C88.3198 34.1396 87.986 33.8122 87.6983 33.4461C87.4235 33.0654 87.2578 32.6169 87.2192 32.1489C87.1866 32.6358 87.303 33.1211 87.553 33.5403C87.8154 33.9499 88.1374 34.3181 88.5083 34.6329C88.8614 34.9381 89.1949 35.2653 89.5068 35.6125C89.8014 35.9531 90.0189 36.3534 90.1446 36.7858C90.2609 37.2243 90.2946 37.6806 90.2441 38.1314C90.2038 38.5916 90.1069 39.0491 90.0315 39.5255C89.9912 39.7666 89.9687 40.0104 89.9643 40.2548C89.9679 40.5062 90.0162 40.755 90.1069 40.9895C90.2931 41.4348 90.5564 41.8439 90.8846 42.1978Z" fill="#263238"/>
<path d="M80.4907 28.5854C80.2745 29.133 80.1272 29.7052 80.052 30.289C79.9632 30.8676 79.904 31.4516 79.8502 32.0329L79.7613 32.8994C79.7385 33.1802 79.6871 33.458 79.6079 33.7283C79.4241 34.2612 79.1451 34.7564 78.7844 35.1896C78.6054 35.4302 78.4419 35.6819 78.2947 35.9432C78.1498 36.2132 78.0351 36.4984 77.9529 36.7936C77.88 37.0862 77.8296 37.384 77.8022 37.6844C77.7726 37.9874 77.7807 38.293 77.8264 38.594C77.8721 38.8927 77.9475 39.178 78.0094 39.4579C78.0736 39.7363 78.1114 40.0201 78.1224 40.3056C78.123 40.5908 78.0557 40.8721 77.9261 41.1262C77.7965 41.3803 77.6082 41.5999 77.377 41.7669C77.6398 41.6192 77.8619 41.4086 78.0234 41.1541C78.185 40.8996 78.2809 40.609 78.3027 40.3083C78.3168 40.0095 78.2996 39.71 78.2516 39.4148C78.2085 39.1188 78.1439 38.8362 78.1197 38.5563C78.0787 37.9947 78.1398 37.4303 78.3 36.8905C78.3792 36.6242 78.4866 36.367 78.6203 36.1235C78.7625 35.8766 78.9207 35.6392 79.0939 35.413C79.2722 35.1748 79.4383 34.9278 79.5918 34.6729C79.7467 34.407 79.8687 34.1232 79.9551 33.8279C80.0304 33.5343 80.0772 33.2342 80.0951 32.9317C80.1193 32.6384 80.1327 32.345 80.1462 32.0544C80.1731 31.4704 80.1946 30.8891 80.2377 30.3078C80.2629 29.7265 80.3476 29.1494 80.4907 28.5854Z" fill="#263238"/>
<path d="M84.7562 39.668C83.015 42.0632 76.4377 47.4348 73.4909 47.0742C71.1172 46.7835 65.2424 43.1397 63.7057 42.1439C62.4085 41.307 65.6756 35.7631 66.8355 36.2583C68.2834 36.8746 72.6216 41.1293 74.0533 41.1024C74.6185 41.1024 78.4319 39.6196 83.0231 37.803C84.8019 37.1006 85.7923 38.239 84.7562 39.668Z" fill="#F7A9A0"/>
<path d="M61.5717 42.0146C62.8043 42.7654 65.9207 43.3117 66.7227 43.1557C67.5246 42.9996 68.6334 37.7302 68.0898 37.0897C67.5462 36.4492 63.2053 34.2478 61.7466 34.4362C60.288 34.6246 60.2934 41.2395 61.5717 42.0146Z" fill="#F7A9A0"/>
<path d="M59.0705 31.8243L57.8896 32.9019L62.0727 37.4861L63.2535 36.4086L59.0705 31.8243Z" fill="#455A64"/>
<path d="M59.7902 24.5381C59.1463 23.833 58.3384 23.2976 57.4382 22.9793C56.538 22.6609 55.5732 22.5694 54.6292 22.7129C53.6852 22.8564 52.7911 23.2305 52.0261 23.8019C51.2612 24.3734 50.6489 25.1247 50.2436 25.9892C49.8382 26.8538 49.6523 27.8049 49.7023 28.7585C49.7523 29.712 50.0366 30.6385 50.53 31.456C51.0235 32.2734 51.7109 32.9566 52.5314 33.445C53.3519 33.9334 54.2802 34.2119 55.234 34.256H55.5031C56.9965 34.2555 58.4323 33.6798 59.5123 32.6484C60.5923 31.617 61.2334 30.2093 61.3026 28.7175C61.3026 28.626 61.3026 28.5318 61.3026 28.4484C61.3082 27.0011 60.7682 25.6049 59.7902 24.5381ZM59.0636 30.125C58.8422 30.5911 58.5324 31.0097 58.1513 31.3576C57.4811 31.9739 56.6179 32.3387 55.7088 32.3898C54.7997 32.4409 53.9011 32.1751 53.166 31.6378C52.431 31.1005 51.9051 30.3249 51.6779 29.4432C51.4507 28.5615 51.5364 27.6283 51.9202 26.8026C52.3041 25.977 52.9624 25.3101 53.783 24.9155C54.6036 24.521 55.5356 24.4233 56.4202 24.639C57.3048 24.8547 58.0871 25.3706 58.6339 26.0986C59.1807 26.8266 59.4581 27.7217 59.4188 28.6314C59.3987 29.1476 59.2781 29.655 59.0636 30.125Z" fill="#263238"/>
<path opacity="0.1" d="M59.4187 28.6312C59.3985 29.1477 59.2753 29.6549 59.0562 30.1231C58.8371 30.5912 58.5267 31.0109 58.1431 31.3574C57.4713 31.9716 56.6072 32.3339 55.6981 32.3825C54.7891 32.4311 53.8913 32.1629 53.1578 31.6237C52.4244 31.0845 51.9005 30.3077 51.6757 29.4255C51.4508 28.5434 51.5387 27.6106 51.9245 26.7861C52.3104 25.9615 52.9702 25.2963 53.7915 24.9037C54.6129 24.5111 55.5449 24.4155 56.4289 24.6331C57.3128 24.8508 58.0939 25.3682 58.6391 26.0972C59.1843 26.8263 59.4598 27.7218 59.4187 28.6312Z" fill="white"/>
<path opacity="0.1" d="M59.419 28.6314C59.4128 28.7739 59.3984 28.9158 59.3759 29.0566C59.2774 29.693 59.0245 30.2955 58.6394 30.8116C58.2542 31.3276 57.7485 31.7415 57.1665 32.0169C56.8258 32.1788 56.463 32.2894 56.09 32.3453C55.8327 32.3845 55.5722 32.398 55.3122 32.3856C55.0491 32.3727 54.7878 32.3349 54.5318 32.2726L54.338 32.2188C53.7498 32.0404 53.2128 31.7239 52.7718 31.2957C52.7072 31.2365 52.6453 31.1719 52.5861 31.1073C52.3933 30.896 52.2245 30.6641 52.0828 30.4157C51.9647 30.2145 51.8656 30.0028 51.7868 29.7833C51.7653 29.7214 51.7437 29.6595 51.7276 29.5976C51.6029 29.1861 51.5466 28.757 51.5607 28.3273C51.5607 28.3112 51.5607 28.2923 51.5607 28.2762C51.6059 27.2835 52.025 26.3447 52.7339 25.6483C53.4427 24.9519 54.3889 24.5495 55.3822 24.522H55.5087C55.8962 24.5219 56.2816 24.579 56.6525 24.6915C56.7144 24.7104 56.7763 24.7292 56.8355 24.7534C57.0566 24.8303 57.2702 24.9276 57.4733 25.0441C57.7968 25.2322 58.0922 25.465 58.3506 25.7357L58.4179 25.8057C58.8112 26.2354 59.1035 26.7475 59.2737 27.3047C59.2952 27.3666 59.3114 27.4312 59.3275 27.4931C59.4132 27.866 59.444 28.2495 59.419 28.6314Z" fill="white"/>
<g opacity="0.3">
<path d="M58.3427 25.7332L52.7827 31.2932C52.7181 31.234 52.6562 31.1694 52.597 31.1048C52.4042 30.8935 52.2355 30.6616 52.0938 30.4131L57.4761 25.0308C57.7966 25.223 58.0883 25.4595 58.3427 25.7332Z" fill="#EBEBEB"/>
<path d="M55.3827 24.522L51.5801 28.3246C51.5801 28.3085 51.5801 28.2896 51.5801 28.2735C51.6256 27.2844 52.0424 26.3489 52.7472 25.6535C53.452 24.9582 54.3931 24.5541 55.3827 24.522Z" fill="#EBEBEB"/>
<path d="M59.3841 29.0649C59.3291 29.4372 59.2213 29.7997 59.0638 30.1414L57.18 32.0253C56.8393 32.1871 56.4766 32.2977 56.1035 32.3536L59.3841 29.0649Z" fill="#EBEBEB"/>
<path d="M59.3144 27.4901L54.5375 32.2697L54.3438 32.2159L59.2606 27.3018C59.2821 27.3637 59.2982 27.4282 59.3144 27.4901Z" fill="#EBEBEB"/>
<path d="M56.8224 24.7587L51.7926 29.7885C51.7711 29.7266 51.7495 29.6647 51.7334 29.6028L56.6394 24.6968C56.7013 24.7075 56.7632 24.7264 56.8224 24.7587Z" fill="#EBEBEB"/>
</g>
<path d="M63.1885 35.6588L61.4014 37.2896L65.5608 41.8479L67.348 40.2172L63.1885 35.6588Z" fill="#263238"/>
<path d="M63.2158 34.6729C63.7271 35.2408 62.7663 35.518 62.7663 35.518C62.7663 35.518 64.2438 35.4507 64.5452 36.2419C64.8466 37.0331 63.6598 37.2942 63.5764 37.3184C63.6544 37.3184 65.0162 37.2915 65.2342 38.1257C65.4522 38.96 64.233 39.073 64.1577 39.0811C64.233 39.0999 65.2153 39.3906 65.2342 40.0526C65.2745 41.1937 62.7394 40.5236 61.959 41.0215C61.959 41.0215 62.6533 42.437 62.6641 42.4828C62.6641 42.4828 60.242 41.8934 59.6257 40.8062C59.536 40.6488 59.5019 40.4658 59.5287 40.2867C59.5555 40.1076 59.6419 39.9427 59.7737 39.8185C59.7737 39.8185 58.9664 39.7162 58.7753 39.073C58.6784 38.742 59.1198 38.2899 59.1198 38.2899C58.9393 38.2567 58.7714 38.1747 58.6343 38.0528C58.4971 37.9308 58.3961 37.7736 58.342 37.5983C58.2317 37.1327 58.6919 36.7532 58.6919 36.7532C58.6919 36.7532 58.1267 36.363 58.1671 35.8517C58.2532 34.8075 62.1097 33.4565 63.2158 34.6729Z" fill="#F7A9A0"/>
<path d="M59.1016 38.2793C59.1016 38.2793 59.0774 38.2604 59.1016 38.2524C60.4407 37.3947 62.0428 37.0452 63.6174 37.2674C63.6712 37.2674 63.7116 37.34 63.647 37.3347C62.5598 37.2324 60.3099 37.7357 59.1016 38.2793Z" fill="#263238"/>
<path d="M64.2629 39.127C62.7209 38.9252 61.273 39.2373 59.8278 39.7729C59.809 39.7729 59.8009 39.7514 59.8278 39.7433C60.463 39.2885 61.4183 39.0436 62.1772 38.9144C62.8797 38.7832 63.6043 38.8379 64.2791 39.0732C64.2952 39.0813 64.2925 39.1297 64.2629 39.127Z" fill="#263238"/>
<path d="M62.7668 35.5237C63.0516 35.5362 63.3346 35.5758 63.6118 35.6421C63.8834 35.6939 64.1362 35.8175 64.3438 36.0001C64.4349 36.0893 64.4896 36.2092 64.4972 36.3365C64.5038 36.4638 64.4779 36.5906 64.4219 36.7052C64.3553 36.8149 64.2666 36.9097 64.1614 36.9833C64.0563 37.057 63.9369 37.108 63.811 37.1331L63.2028 37.2757L63.8244 37.3537C64.1045 37.3824 64.3776 37.4588 64.6318 37.5798C64.7516 37.628 64.86 37.7008 64.95 37.7935C65.0399 37.8862 65.1094 37.9968 65.1539 38.118C65.191 38.2317 65.1892 38.3546 65.1488 38.4672C65.1083 38.5797 65.0315 38.6756 64.9305 38.7397C64.6967 38.8734 64.4328 38.9456 64.1635 38.9496L63.4234 38.99L64.1339 39.1945C64.331 39.252 64.52 39.3343 64.6964 39.4394C64.8685 39.5315 65.0091 39.673 65.1001 39.8458C65.138 39.9247 65.1531 40.0127 65.1436 40.0997C65.1341 40.1868 65.1004 40.2694 65.0462 40.3383C64.9024 40.4757 64.7221 40.5691 64.5268 40.6074C64.1065 40.6952 63.68 40.75 63.2512 40.7715C63.0359 40.7904 62.8179 40.8065 62.5999 40.8361C62.3814 40.8532 62.1688 40.9155 61.9756 41.0191C62.1756 40.9378 62.3894 40.8958 62.6053 40.8953C62.8233 40.8953 63.0386 40.8819 63.2566 40.8819C63.6956 40.8887 64.1343 40.8554 64.5672 40.7823C64.8033 40.7468 65.0234 40.6419 65.1996 40.4809C65.2869 40.3843 65.3439 40.2642 65.3635 40.1355C65.3831 40.0068 65.3645 39.8752 65.31 39.757C65.2022 39.5397 65.0328 39.359 64.8229 39.2376C64.6268 39.1221 64.4171 39.0317 64.1985 38.9684L64.1662 39.2133C64.4843 39.2114 64.7965 39.128 65.0732 38.9711C65.2232 38.8787 65.3365 38.7369 65.3934 38.5701C65.4446 38.4045 65.4446 38.2272 65.3934 38.0615C65.3383 37.9078 65.2512 37.7674 65.1381 37.6496C65.0249 37.5318 64.8882 37.4392 64.7368 37.378C64.4573 37.2522 64.1591 37.1731 63.854 37.1438L63.8675 37.3645C64.0224 37.3287 64.1676 37.2595 64.2931 37.162C64.4185 37.0644 64.5213 36.9406 64.5941 36.7993C64.6573 36.6528 64.6814 36.4924 64.6641 36.3338C64.6466 36.1734 64.571 36.025 64.4515 35.9166C64.2184 35.7324 63.9391 35.616 63.6441 35.5802C63.355 35.5264 63.0604 35.5074 62.7668 35.5237Z" fill="#263238"/>
<path d="M67.8131 36.9013C67.8131 36.9013 62.2934 31.8203 61.6529 34.4038C61.4619 35.1708 61.5937 38.551 62.2746 38.5375C63.1519 38.5187 63.3511 37.0977 63.3511 36.1854C63.3511 36.1854 64.7532 37.749 66.1338 37.095C66.6582 36.8518 67.247 36.7838 67.8131 36.9013Z" fill="#F7A9A0"/>
<path d="M61.7197 34.1914C61.6078 34.4838 61.5407 34.7913 61.5206 35.1037C61.4887 35.4139 61.4797 35.726 61.4937 36.0376C61.508 36.6641 61.5773 37.2882 61.7009 37.9026C61.7335 38.0659 61.7897 38.2237 61.8677 38.3708C61.9133 38.4552 61.9767 38.5287 62.0534 38.5861C62.0952 38.6173 62.1415 38.6418 62.1907 38.6588C62.2406 38.6727 62.2923 38.679 62.3441 38.6776C62.5322 38.6718 62.7119 38.5982 62.85 38.4704C62.9737 38.3517 63.0757 38.2124 63.1514 38.0586C63.2942 37.7671 63.3852 37.4529 63.4206 37.1302C63.4576 36.8168 63.472 36.5011 63.4636 36.1856L63.2725 36.2555C63.4366 36.4285 63.6168 36.5853 63.8108 36.7238C64.0044 36.8609 64.2108 36.979 64.4271 37.0764C64.6458 37.1701 64.8769 37.2318 65.1133 37.2594C65.3476 37.2885 65.5854 37.2711 65.813 37.2082C65.5846 37.2393 65.3525 37.2311 65.1268 37.184C64.9034 37.1374 64.6878 37.0595 64.4863 36.9526C64.2838 36.8488 64.0926 36.7244 63.9157 36.5812C63.7393 36.4414 63.5762 36.2856 63.4286 36.1156L63.2483 35.903V36.1856C63.2454 36.49 63.222 36.7939 63.1783 37.0952C63.1388 37.3911 63.0506 37.6785 62.9173 37.9456C62.7881 38.1932 62.5755 38.422 62.3387 38.422C62.1019 38.422 62.005 38.1259 61.9323 37.846C61.8597 37.5662 61.8112 37.2513 61.7628 36.9472C61.7143 36.6431 61.6767 36.3363 61.6498 36.0322C61.5769 35.4187 61.6005 34.7976 61.7197 34.1914Z" fill="#263238"/>
<path d="M68.6579 37.1948L66.8145 44.531C66.8145 44.531 71.4783 47.3944 73.8708 47.3783C76.2632 47.3621 82.1058 43.1343 84.1188 40.9867C86.1318 38.8391 86.2933 36.4117 82.4422 37.7573C78.5911 39.1029 74.1802 40.8441 74.0591 40.8683C73.938 40.8925 68.6579 37.1948 68.6579 37.1948Z" fill="#EBEBEB"/>
<path d="M69.4997 41.6729C69.6289 41.1346 70.1025 38.9413 70.1617 38.3896C70.1617 38.3735 70.1348 38.3708 70.1294 38.3896C69.9383 38.9278 69.4028 41.0996 69.2763 41.6459C69.026 42.7413 68.7569 43.8393 68.6035 44.9534C68.6035 44.9776 68.6385 44.9884 68.6439 44.9534C69.0018 43.8877 69.244 42.7736 69.4997 41.6729Z" fill="#263238"/>
<path d="M79.8233 51.9396C79.8233 51.9396 84.6675 53.0887 93.8633 52.2948C93.8633 52.2948 90.2705 40.825 87.3775 37.7328C86.0588 36.3253 84.7724 36.5406 83.6798 37.4448C83.4107 37.6709 80.0333 41.9553 79.748 43.4462C79.495 44.7675 80.5553 46.2316 80.5553 46.2316L79.8233 51.9396Z" fill="#EBEBEB"/>
<path d="M93.8658 53.0997C84.6753 53.8936 79.6455 53.3231 79.6455 53.3231L80.5713 46.2318C80.5713 46.2318 79.4948 44.7678 79.7639 43.4464C79.9469 42.4964 82.0191 39.1782 83.2275 37.5258C83.4428 37.2298 83.5585 37.3213 83.5585 37.3213C83.2409 38.6669 81.89 41.1616 82.7296 41.4253C83.4535 41.6541 85.5069 38.8849 86.4381 36.9741C86.676 37.0654 86.9056 37.1771 87.1243 37.3078C90.4641 39.9075 93.8658 53.0997 93.8658 53.0997Z" fill="#5D95E6"/>
<path d="M86.8524 37.7787C86.1123 37.9805 85.8244 39.6356 86.0451 40.8897C86.2657 42.1438 87.4095 43.6078 88.311 43.2903C89.3687 42.9189 89.3256 41.3257 89.0107 40.0608C88.7524 38.9897 87.6006 37.5769 86.8524 37.7787Z" fill="#EBEBEB"/>
<path d="M81.5078 40.2896C81.2091 40.6879 80.9427 41.0969 80.687 41.5248C80.7919 41.2853 80.8888 41.0431 80.975 40.7955C80.975 40.7955 80.9615 40.7767 80.9561 40.7955C80.8673 40.9704 80.7785 41.1481 80.7031 41.3338C80.6278 41.5194 80.574 41.6621 80.5121 41.8289C80.1889 42.3173 79.9327 42.8468 79.7505 43.4033C79.6278 43.9124 79.6389 44.4445 79.7828 44.948C79.8551 45.2074 79.9553 45.4583 80.0815 45.6962C80.1828 45.9123 80.3162 46.1119 80.4771 46.2882C80.3856 46.8265 80.3237 47.3647 80.2537 47.8841C80.1678 48.4024 80.1139 48.9255 80.0922 49.4504C80.0941 49.4564 80.0979 49.4617 80.103 49.4654C80.108 49.4692 80.1142 49.4712 80.1205 49.4712C80.1268 49.4712 80.133 49.4692 80.138 49.4654C80.1431 49.4617 80.1469 49.4564 80.1488 49.4504L80.181 49.3374V49.3212C80.2968 48.8395 80.3452 48.3362 80.4125 47.8518C80.4798 47.3674 80.6089 46.2909 80.6089 46.2829C80.6089 46.2748 80.3667 45.8415 80.2725 45.6397C80.1615 45.3938 80.0715 45.1391 80.0034 44.8781C79.8591 44.3837 79.8489 43.8598 79.9738 43.3602C80.1512 42.8264 80.3906 42.3152 80.687 41.837C80.9723 41.3257 81.2683 40.817 81.5616 40.3111C81.5536 40.295 81.5213 40.2707 81.5078 40.2896Z" fill="#263238"/>
<path d="M93.2388 50.8631H79.9658L80.0277 50.3867H93.0961C93.1473 50.5428 93.193 50.7016 93.2388 50.8631Z" fill="white"/>
<path d="M93.5138 51.8213H79.8398L79.9017 51.3423H93.3792C93.4277 51.5118 93.4734 51.6706 93.5138 51.8213Z" fill="white"/>
<path d="M82.7138 41.4443C82.2643 42.1701 81.988 42.9897 81.9064 43.8395C81.888 44.0489 81.8817 44.2591 81.8876 44.4692C81.9028 44.6786 81.9289 44.887 81.9656 45.0936C82.042 45.5054 82.1723 45.9053 82.3532 46.2831V46.3073V46.3288C82.3182 47.5237 82.2482 48.7159 82.1944 49.9081C82.1406 51.1003 82.0571 52.2925 81.9602 53.4847C81.9602 52.2898 81.9925 51.0949 82.0248 49.9001C82.0571 48.7052 82.1002 47.513 82.1648 46.3208V46.3665C81.9804 45.9711 81.8492 45.553 81.7746 45.1232C81.7369 44.9089 81.7153 44.6921 81.71 44.4746C81.71 44.2566 81.71 44.0386 81.7503 43.8233C81.856 42.9643 82.1773 42.1459 82.6842 41.4443H82.7138Z" fill="#263238"/>
<path d="M81.1025 44.0653L72.1504 44.627L72.8816 56.2811L81.8337 55.7195L81.1025 44.0653Z" fill="#263238"/>
<path d="M74.5085 45.1716L78.752 44.9009L78.6699 43.6144L74.4264 43.8851L74.5085 45.1716Z" fill="#A6A6A6"/>
<path d="M75.3888 43.8312L75.9109 43.7962L75.8732 43.2041L77.1435 43.1234L77.1812 43.7155L77.7033 43.6832L77.636 42.604L75.3135 42.752L75.3888 43.8312Z" fill="#A6A6A6"/>
<path d="M88.3011 39.0893C89.8647 42.8139 92.494 51.3638 90.5994 52.6448C87.483 54.7493 81.0215 55.6455 79.0784 55.6428C78.2334 55.6428 76.9685 49.2136 77.8324 48.9471C78.8712 48.6242 85.6692 48.2313 85.7849 47.6904C85.8495 47.3809 85.8145 44.6601 86.0728 41.2315C86.3716 37.2781 87.5557 37.3158 88.3011 39.0893Z" fill="#F7A9A0"/>
<path d="M71.0825 48.7589C71.0089 48.9571 70.9976 49.1731 71.05 49.378C71.1024 49.5828 71.2161 49.7668 71.3759 49.9053C71.0831 50.113 70.8726 50.4168 70.7811 50.7638C70.6466 51.3828 71.5589 51.8618 71.5589 51.8618C71.3003 52.141 71.1324 52.4919 71.0772 52.8683C71.0099 53.4739 71.8603 54.0875 71.8603 54.0875C71.765 54.4751 71.8128 54.8841 71.9949 55.2393C72.5169 56.1704 74.1478 56.2485 75.1785 56.3158C76.2093 56.383 79.2019 55.5757 79.7858 55.4815L80.2245 48.845C80.2245 48.845 75.6629 47.2599 74.4385 47.3622C73.4131 47.4402 71.3947 48.0134 71.0825 48.7589Z" fill="#F7A9A0"/>
<path d="M71.4265 49.8C72.503 49.4448 73.6252 49.426 74.7447 49.3452C74.769 49.3452 74.7717 49.3829 74.7447 49.3829C73.6306 49.4529 72.5433 49.7408 71.4346 49.8538C71.4274 49.8549 71.4202 49.8531 71.4144 49.8488C71.4086 49.8445 71.4047 49.8381 71.4036 49.831C71.4026 49.8238 71.4044 49.8166 71.4086 49.8108C71.4129 49.805 71.4194 49.8011 71.4265 49.8Z" fill="#263238"/>
<path d="M71.5855 51.7755C71.8379 51.7186 72.0967 51.6951 72.3552 51.7055C72.6243 51.7055 72.8935 51.7055 73.176 51.7055C73.7143 51.7055 74.2714 51.7297 74.8204 51.7647C74.8446 51.7647 74.8473 51.8024 74.8204 51.8024C74.2821 51.8024 73.7358 51.8078 73.1814 51.8186L72.3741 51.8535C72.1175 51.8831 71.8583 51.8831 71.6017 51.8535C71.5921 51.854 71.5827 51.8509 71.5751 51.8451C71.5676 51.8392 71.5624 51.8308 71.5604 51.8214C71.5585 51.812 71.5599 51.8022 71.5645 51.7938C71.5691 51.7854 71.5766 51.7789 71.5855 51.7755Z" fill="#263238"/>
<path d="M71.8847 54.0927C72.1129 54.0447 72.3477 54.0356 72.579 54.0658L73.3298 54.0846C73.8277 54.0846 74.3283 54.1035 74.8261 54.0981C74.853 54.0981 74.8557 54.1358 74.8261 54.1358C74.3202 54.1358 73.8116 54.1627 73.3056 54.1681H72.5575C72.3298 54.1899 72.1001 54.1707 71.8793 54.1115C71.8793 54.1115 71.8739 54.0927 71.8847 54.0927Z" fill="#263238"/>
<path d="M80.1836 48.4979L81.3085 55.8395C81.3085 55.8395 89.2691 54.4428 90.9968 52.4997C92.5496 50.7558 89.4332 41.3421 88.6366 39.4609C87.84 37.5798 86.7286 37.02 86.2146 39.73C85.7005 42.4401 85.6198 47.5345 85.601 47.5991C85.5821 47.6637 80.1836 48.4979 80.1836 48.4979Z" fill="#EBEBEB"/>
<path d="M82.5842 51.7434C82.5089 51.1863 82.1752 48.9795 82.0245 48.4413C82.0245 48.4251 81.9922 48.4413 81.9922 48.4413C81.9922 49.001 82.2775 51.232 82.3555 51.7891C82.5116 52.9006 82.6515 54.0228 82.9072 55.1208C82.9072 55.1423 82.9502 55.1396 82.9476 55.1208C82.9072 53.9905 82.7376 52.8629 82.5842 51.7434Z" fill="#263238"/>
<path d="M85.792 44.4984C85.8486 43.4407 85.9239 42.3804 85.9993 41.3228C85.9993 41.3039 85.967 41.3012 85.9643 41.3228C85.8728 41.9095 85.8001 42.4961 85.7436 43.0882C85.7221 42.7706 85.7086 42.4531 85.7005 42.1355C85.7005 42.1113 85.6655 42.114 85.6655 42.1355C85.6409 42.5461 85.658 42.9582 85.7167 43.3654C85.6844 43.7233 85.6548 44.0839 85.6333 44.4419C85.601 44.9801 85.5095 47.2918 85.5175 47.5583C84.5945 47.6417 83.7521 47.8274 82.8263 47.9566C82.3796 48.0265 81.9302 48.0965 81.4808 48.1745C81.0188 48.2239 80.5604 48.3021 80.1082 48.4087C80.084 48.4087 80.1325 48.5405 80.1459 48.5998C80.1594 48.659 80.1917 48.632 80.189 48.5998C80.1863 48.5675 80.189 48.5432 80.189 48.5217C80.4043 48.5217 81.2951 48.3737 81.5346 48.3387L82.8802 48.1342C83.7925 47.9969 85.6817 47.709 85.6844 47.6955C85.7194 47.4614 85.7678 45.0366 85.792 44.4984Z" fill="#263238"/>
<path d="M86.1851 37.3641C86.1312 37.6117 84.9659 39.2318 83.8356 39.1914C83.467 39.1914 83.4535 37.1623 83.4535 37.1623L83.4185 37.0143L82.9287 34.934L85.3508 33.3381L85.7006 33.1255C85.7006 33.1255 85.7975 33.7041 85.9106 34.4226L85.9267 34.5249C85.9267 34.5653 85.9428 34.6056 85.9482 34.6433C85.9644 34.751 85.9832 34.8586 85.9994 34.969C86.0155 35.0793 86.0236 35.1331 86.0343 35.2219C86.0451 35.3107 86.0559 35.3969 86.0693 35.491C86.15 36.1121 86.1887 36.7379 86.1851 37.3641Z" fill="#F7A9A0"/>
<path d="M85.9186 34.4226C85.7151 35.0103 85.386 35.5465 84.9543 35.9941C84.5225 36.4416 83.9984 36.7898 83.4185 37.0143L82.9287 34.934L85.3508 33.3381L85.7006 33.1255C85.7006 33.1255 85.8056 33.7041 85.9186 34.4226Z" fill="#263238"/>
<path d="M79.8424 31.0856C78.7659 34.6784 80.8032 35.7253 81.5782 35.954C82.2833 36.1639 84.7054 36.7829 86.1371 33.3193C87.5688 29.8558 86.2394 28.2249 84.657 27.6678C83.0745 27.1107 80.9108 27.4956 79.8424 31.0856Z" fill="#F7A9A0"/>
<path d="M80.5335 30.6176C80.6197 30.6176 80.7031 30.6176 80.8027 30.6338C80.8938 30.6514 80.9882 30.6392 81.0718 30.5988C81.0951 30.5805 81.112 30.5552 81.1197 30.5266C81.1275 30.498 81.1258 30.4676 81.1148 30.44C81.0839 30.3898 81.0403 30.3486 80.9883 30.3207C80.9363 30.2928 80.8778 30.2792 80.8188 30.2812C80.6993 30.2649 80.578 30.2947 80.4797 30.3647C80.458 30.381 80.4414 30.4032 80.4319 30.4287C80.4224 30.4541 80.4203 30.4817 80.426 30.5083C80.4316 30.5349 80.4448 30.5593 80.4638 30.5787C80.4829 30.598 80.5071 30.6116 80.5335 30.6176Z" fill="#263238"/>
<path d="M83.0156 31.2876C82.9363 31.2525 82.8591 31.2129 82.7842 31.1692C82.6976 31.1385 82.6231 31.081 82.5716 31.005C82.5609 30.9772 82.5596 30.9466 82.5679 30.918C82.5761 30.8893 82.5935 30.8642 82.6173 30.8462C82.6677 30.8159 82.7254 30.7998 82.7842 30.7998C82.843 30.7998 82.9007 30.8159 82.951 30.8462C83.0614 30.8939 83.1497 30.9813 83.1986 31.0911C83.2121 31.1173 83.2172 31.1469 83.2131 31.176C83.2091 31.2051 83.1962 31.2323 83.1762 31.2537C83.1562 31.2752 83.13 31.29 83.1013 31.2961C83.0725 31.3022 83.0426 31.2992 83.0156 31.2876Z" fill="#263238"/>
<path d="M82.1996 32.0249C82.1996 32.0249 82.213 32.0411 82.1996 32.0518C82.1188 32.294 82.0677 32.5901 82.2642 32.73C82.2642 32.73 82.2642 32.7488 82.2642 32.7434C82.0246 32.6197 82.0838 32.2348 82.1996 32.0249Z" fill="#263238"/>
<path d="M82.4936 31.8284C82.8972 31.9145 82.69 32.7138 82.3186 32.6357C81.9472 32.5577 82.1572 31.7557 82.4936 31.8284Z" fill="#263238"/>
<path d="M82.6388 31.9118C82.698 31.9737 82.7465 32.0705 82.8272 32.1001C82.908 32.1297 83.0156 32.0705 83.0963 32.006C83.0587 32.1593 82.9591 32.302 82.7895 32.2751C82.62 32.2482 82.5635 32.0948 82.5635 31.9333C82.5796 31.9198 82.6173 31.8849 82.6388 31.9118Z" fill="#263238"/>
<path d="M80.8383 31.6133C80.8383 31.6133 80.8168 31.6133 80.8141 31.6294C80.7602 31.8797 80.658 32.1677 80.4131 32.1838C80.693 32.2269 80.8275 31.8582 80.8383 31.6133Z" fill="#263238"/>
<path d="M80.6793 31.3009C80.289 31.169 80.0576 31.9602 80.4101 32.0814C80.7627 32.2025 81.0103 31.4086 80.6793 31.3009Z" fill="#263238"/>
<path d="M80.5013 31.3036C80.4259 31.3278 80.3425 31.387 80.2672 31.3681C80.1918 31.3493 80.138 31.2443 80.1084 31.1475C80.1084 31.1475 80.0949 31.1475 80.0922 31.1475C80.0588 31.2135 80.0499 31.2892 80.0672 31.3612C80.0844 31.4332 80.1267 31.4967 80.1864 31.5404C80.3102 31.605 80.4555 31.5027 80.5255 31.3628C80.539 31.3439 80.5309 31.2928 80.5013 31.3036Z" fill="#263238"/>
<path d="M80.8594 33.3946C80.9177 33.5645 81.0187 33.7165 81.1527 33.836C81.2293 33.8985 81.3232 33.9361 81.4218 33.9436C81.6344 33.9571 81.691 33.7795 81.7152 33.6153C81.726 33.5259 81.726 33.4356 81.7152 33.3462C81.4428 33.4552 81.1423 33.4722 80.8594 33.3946Z" fill="#263238"/>
<path d="M81.1533 33.836C81.2299 33.8985 81.3238 33.9361 81.4224 33.9437C81.635 33.9571 81.6916 33.7795 81.7158 33.6153C81.6109 33.5825 81.498 33.5864 81.3956 33.6265C81.2933 33.6667 81.2078 33.7406 81.1533 33.836Z" fill="#FF97B8"/>
<path d="M80.9159 32.8861C80.9159 32.8861 80.7652 33.2413 80.7195 33.4243C80.7195 33.4405 80.7544 33.4593 80.8136 33.4809C80.9554 33.5483 81.113 33.5754 81.2692 33.5593C81.4253 33.5431 81.5741 33.4844 81.6991 33.3894C81.7152 33.3759 81.6991 33.3517 81.6802 33.3571C81.4197 33.449 81.1363 33.4538 80.8729 33.3705C80.8729 33.3194 81.142 32.7731 81.1231 32.7623C80.9845 32.7389 80.8434 32.7335 80.7033 32.7462C80.9966 32.0007 81.403 31.3037 81.6829 30.5555C81.685 30.5499 81.6849 30.5438 81.6827 30.5382C81.6805 30.5327 81.6763 30.5282 81.671 30.5255C81.6657 30.5228 81.6595 30.5222 81.6538 30.5238C81.6481 30.5254 81.6431 30.529 81.6398 30.534C81.1806 31.2651 80.7939 32.0394 80.4853 32.8457C80.445 32.9319 80.8379 32.8969 80.9159 32.8861Z" fill="#263238"/>
<path d="M85.9139 33.2335C85.0527 33.0558 85.3487 31.7022 85.3487 31.7022C85.3487 31.7022 84.3934 31.4061 84.6598 29.8183C84.4028 30.0948 84.0848 30.3074 83.7311 30.4392C83.3774 30.571 82.9978 30.6182 82.6225 30.5772C82.3346 30.5584 83.4299 30.039 83.4299 30.039C83.4299 30.039 82.0843 30.8168 80.0848 29.9825C79.9421 29.9233 80.7279 27.7919 82.5257 27.3909C84.3234 26.9899 85.7067 27.7327 86.4979 28.9841C86.4979 28.9841 87.5743 29.7914 87.4721 30.9567C87.3698 32.122 86.2476 33.3007 85.9139 33.2335Z" fill="#263238"/>
<path d="M85.7526 34.6461C85.6926 34.6524 85.6322 34.6524 85.5723 34.6461C85.5126 34.6444 85.4536 34.6336 85.3973 34.6138C85.3238 34.5922 85.2565 34.5535 85.2009 34.5008C85.1558 34.462 85.1168 34.4167 85.0852 34.3662C85.0387 34.2949 85.0058 34.2155 84.9883 34.1321L85.392 33.1929C85.392 33.1929 86.4308 32.2106 86.8883 32.6035C87.3458 32.9964 86.4092 34.5466 85.7526 34.6461Z" fill="#F7A9A0"/>
<path d="M85.7305 34.4818C85.7217 34.5026 85.7089 34.5216 85.6927 34.5375C85.6766 34.5534 85.6575 34.5659 85.6365 34.5744C85.6155 34.5829 85.593 34.5872 85.5704 34.587C85.5477 34.5868 85.5253 34.5821 85.5045 34.5733C85.4722 34.5601 85.4446 34.5377 85.4252 34.5088C85.4058 34.4799 85.3955 34.4459 85.3955 34.4111C85.3955 34.3763 85.406 34.3423 85.4254 34.3134C85.4449 34.2846 85.4725 34.2622 85.5048 34.2491C85.5371 34.236 85.5725 34.2329 85.6066 34.2401C85.6406 34.2473 85.6717 34.2645 85.696 34.2894C85.7202 34.3144 85.7365 34.3461 85.7426 34.3803C85.7488 34.4146 85.7445 34.4499 85.7305 34.4818Z" fill="white"/>
<path d="M86.1341 34.2962C86.121 34.3261 86.0968 34.3496 86.0666 34.3617C86.0363 34.3738 86.0026 34.3735 85.9726 34.3608C85.9579 34.3547 85.9446 34.3457 85.9334 34.3343C85.9222 34.323 85.9134 34.3096 85.9074 34.2948C85.9014 34.2801 85.8983 34.2643 85.8984 34.2484C85.8985 34.2325 85.9018 34.2167 85.908 34.2021C85.9205 34.1717 85.9445 34.1476 85.9748 34.135C86.0051 34.1224 86.0391 34.1223 86.0695 34.1348C86.0993 34.1478 86.1228 34.172 86.1349 34.2023C86.147 34.2325 86.1467 34.2662 86.1341 34.2962Z" fill="white"/>
<path d="M80.1064 28.8467C80.1064 28.8467 82.071 24.8395 85.6557 26.5646C89.2403 28.2896 87.3377 32.3264 87.3377 32.3264L80.1064 28.8467Z" fill="#5D95E6"/>
<path d="M87.7458 32.1647L79.9756 28.4268L79.7014 28.9967L87.4717 32.7346L87.7458 32.1647Z" fill="#5D95E6"/>
<path d="M83.801 30.2732L82.1836 29.4954L84.4603 25.7358L86.0777 26.5163L83.801 30.2732Z" fill="#5D95E6"/>
<path opacity="0.1" d="M83.801 30.2732L82.1836 29.4954L84.4603 25.7358L86.0777 26.5163L83.801 30.2732Z" fill="black"/>
<path d="M16.3051 34.2346C12.4567 36.409 5.45419 43.0348 5.96821 44.8755C7.00432 48.5894 11.6547 53.708 12.89 54.7145C13.6112 55.2985 19.365 50.632 18.6868 49.9081C17.8956 49.063 12.9868 44.4826 12.9761 44.0305C12.9761 43.686 15.7695 39.9937 17.8364 36.8692C20.2342 33.2361 18.1378 33.1958 16.3051 34.2346Z" fill="#C95F50"/>
<path d="M17.9282 49.4155C17.9282 49.4155 20.2991 50.9414 21.8062 52.0125C22.6458 52.61 23.9914 53.7645 24.4086 54.4857C25.0302 55.5622 26.9437 60.4709 25.7542 60.9607C24.6777 61.4048 23.5797 56.9778 23.5797 56.9778C23.5797 56.9778 25.0921 61.3456 23.7062 61.6416C22.3202 61.9376 21.7416 56.784 21.7416 56.784C21.7416 56.784 23.1948 61.3052 21.7201 61.386C20.6032 61.4452 19.8093 56.7975 19.8093 56.7975C19.8093 56.7975 21.0311 60.6916 19.8874 60.8047C18.6225 60.9284 17.6187 56.6817 17.6187 56.6817C14.6584 56.4772 12.901 55.2985 12.352 53.786C12.2471 53.4712 17.9282 49.4155 17.9282 49.4155Z" fill="#C95F50"/>
<path d="M23.1595 55.4387C23.3559 55.9447 23.5578 56.456 23.6977 56.9781C23.8377 57.5002 23.9668 58.0276 24.0826 58.5632C24.2282 59.2576 24.2941 59.9664 24.279 60.6758C24.2144 59.4136 23.7031 57.5352 23.5524 57.0131C23.4017 56.491 23.2833 55.9635 23.1299 55.4414C23.1353 55.4387 23.1568 55.4226 23.1595 55.4387Z" fill="#263238"/>
<path d="M21.2655 55.9445C21.4889 56.6011 21.7338 57.247 21.9276 57.9144C22.1213 58.5818 22.2424 59.225 22.3904 59.9005C22.3904 59.9543 22.3689 59.9436 22.3555 59.9005C22.1832 59.2331 21.9706 58.6276 21.7903 57.9602C21.61 57.2927 21.4539 56.6146 21.2521 55.9579C21.2467 55.9391 21.2628 55.9337 21.2655 55.9445Z" fill="#263238"/>
<path d="M19.559 56.0899C19.9251 57.09 20.1867 58.1253 20.3395 59.1793C20.3395 59.2305 20.3099 59.2116 20.2964 59.1578C20.0569 58.1271 19.8766 57.317 19.524 56.1033C19.5187 56.0845 19.551 56.0683 19.559 56.0899Z" fill="#263238"/>
<path d="M17.5192 48.6217L11.7843 54.5316C11.7843 54.5316 5.29854 46.8725 5.69415 44.4046C6.08975 41.9368 12.4221 36.1561 15.8776 34.24C19.3331 32.3239 19.6291 34.2857 18.0898 36.8747C16.5504 39.4636 13.1837 44.0306 13.2456 44.157C13.3075 44.2835 17.5192 48.6217 17.5192 48.6217Z" fill="#EBEBEB"/>
<path d="M13.6193 50.4166C14.0311 50.0291 14.4267 49.6362 14.8358 49.2406C15.0295 49.0522 15.2233 48.8638 15.409 48.6673C15.5947 48.4709 15.8342 48.2556 16.0199 48.0322C16.0231 48.0294 16.025 48.0254 16.0253 48.0211C16.0256 48.0168 16.0241 48.0126 16.0212 48.0093C16.0184 48.0061 16.0144 48.0042 16.0101 48.0039C16.0058 48.0037 16.0016 48.0051 15.9984 48.008C15.7642 48.1802 15.5516 48.3928 15.3283 48.5785C15.1049 48.7642 14.9219 48.9365 14.7227 49.1168C14.3029 49.4962 13.8858 49.873 13.4767 50.2605C12.6559 51.0356 11.862 51.8295 11.0735 52.6395C11.071 52.6437 11.0699 52.6485 11.0705 52.6533C11.071 52.6581 11.0732 52.6626 11.0766 52.666C11.08 52.6694 11.0845 52.6716 11.0893 52.6722C11.0941 52.6727 11.099 52.6717 11.1031 52.6691C11.9562 51.9398 12.7985 51.1863 13.6193 50.4166Z" fill="#263238"/>
<path d="M18.0899 36.8856C16.5533 39.4745 13.1812 44.0414 13.2458 44.1679C13.3104 44.2944 17.514 48.6219 17.514 48.6219L11.7845 54.5344C11.7845 54.5344 8.78917 50.9874 6.99414 47.9464L18.5824 33.5942C19.2821 33.9791 19.0211 35.3166 18.0899 36.8856Z" fill="#C7C7C7"/>
<path d="M6.85408 91.8262C6.85408 91.8262 6.58496 102.486 6.58496 102.494C6.58496 104.464 6.63071 106.192 6.73567 107.069C6.7344 107.073 6.7344 107.078 6.73567 107.083C6.73695 107.294 6.78667 107.502 6.88099 107.691L6.89445 107.704C7.48113 108.1 23.23 108.512 23.7844 108.337C24.3388 108.162 23.8947 106.574 23.2973 106.071C22.6998 105.567 16.7361 102.715 16.7361 102.715L16.9084 92.0576L6.85408 91.8262Z" fill="#C95F50"/>
<path d="M6.56543 100.381C6.56543 100.381 6.58427 102.491 6.58427 102.499C6.58427 104.469 6.63002 106.197 6.73498 107.074C6.7337 107.079 6.7337 107.083 6.73498 107.088C6.75962 107.295 6.80839 107.5 6.8803 107.696L6.89376 107.709C7.48044 108.105 23.2293 108.517 23.7837 108.342C24.3381 108.167 23.894 106.579 23.2966 106.076C22.6991 105.573 16.7354 102.72 16.7354 102.72V100.567L6.56543 100.381Z" fill="white"/>
<path d="M17.7046 102.734C16.6551 102.561 15.3794 102.747 14.599 103.509C14.5667 103.538 14.599 103.581 14.6447 103.571C15.6365 103.227 16.6624 102.99 17.7046 102.866C17.7198 102.863 17.7335 102.854 17.7433 102.842C17.7532 102.83 17.7585 102.815 17.7585 102.8C17.7585 102.784 17.7532 102.769 17.7433 102.757C17.7335 102.745 17.7198 102.737 17.7046 102.734Z" fill="#263238"/>
<path d="M18.4662 103.172C17.4193 103 16.1437 103.186 15.3605 103.947C15.3309 103.977 15.3605 104.02 15.4063 104.009C16.3982 103.666 17.424 103.429 18.4662 103.304C18.4814 103.301 18.495 103.293 18.5049 103.281C18.5147 103.269 18.52 103.254 18.52 103.238C18.52 103.223 18.5147 103.208 18.5049 103.196C18.495 103.184 18.4814 103.175 18.4662 103.172Z" fill="#263238"/>
<path d="M19.2308 103.611C18.1812 103.438 16.9083 103.624 16.1251 104.386C16.0955 104.415 16.1386 104.458 16.1709 104.448C17.1628 104.104 18.1886 103.868 19.2308 103.743C19.246 103.739 19.2597 103.731 19.2695 103.719C19.2793 103.707 19.2847 103.692 19.2847 103.677C19.2847 103.661 19.2793 103.646 19.2695 103.634C19.2597 103.622 19.246 103.614 19.2308 103.611Z" fill="#263238"/>
<path d="M23.7871 108.35C23.2327 108.522 7.48382 108.113 6.89445 107.718C6.66839 107.57 6.59573 105.271 6.58496 102.494V102.405L16.7469 102.556V102.728C16.7469 102.728 22.7052 105.581 23.308 106.084C23.9109 106.587 24.3414 108.186 23.7871 108.35Z" fill="#37474F"/>
<path d="M6.58496 102.405V102.494C6.58496 105.271 6.66839 107.57 6.89445 107.718C7.16357 107.898 10.576 108.081 14.2629 108.213C18.6792 108.369 23.4856 108.447 23.7871 108.353C24.3414 108.183 23.8947 106.587 23.3 106.084C22.7052 105.581 16.7388 102.728 16.7388 102.728V102.556L13.3479 102.508L6.58496 102.405Z" fill="#5D95E6"/>
<path d="M23.6256 107.737C20.9721 107.602 10.2585 107.311 7.6265 107.381C7.60497 107.381 7.60497 107.395 7.6265 107.397C10.2531 107.589 20.9667 107.79 23.6229 107.78C23.6795 107.78 23.6795 107.739 23.6256 107.737Z" fill="#263238"/>
<path opacity="0.1" d="M13.3584 102.507C13.6087 104.208 13.9854 106.716 14.2626 108.213C18.6789 108.369 23.4854 108.447 23.7868 108.353C24.3412 108.183 23.8944 106.587 23.2997 106.084C22.7049 105.581 16.7385 102.728 16.7385 102.728V102.556L13.3584 102.507Z" fill="black"/>
<path d="M5.66699 102.55L17.0642 102.658C17.0642 102.658 17.7101 84.105 17.7585 77.9152C17.815 70.8482 17.414 49.6577 17.414 49.6577H8.89373C8.89373 49.6577 6.60891 54.3296 7.91414 59.5882L8.28552 78.4911L5.66699 102.55Z" fill="#37474F"/>
<path d="M6.5119 100.557C6.8127 100.516 7.11544 100.492 7.41883 100.484C7.75792 100.46 8.09163 100.435 8.43072 100.419C9.0793 100.392 9.72518 100.382 10.3764 100.379C11.6844 100.379 12.9923 100.379 14.3002 100.425C15.0457 100.449 15.7884 100.478 16.5312 100.519C16.5376 100.519 16.5438 100.521 16.5483 100.526C16.5529 100.53 16.5554 100.537 16.5554 100.543C16.5554 100.549 16.5529 100.556 16.5483 100.56C16.5438 100.565 16.5376 100.567 16.5312 100.567C15.2341 100.613 13.9369 100.635 12.6371 100.659C11.3372 100.683 10.0427 100.71 8.74828 100.686C8.3742 100.686 8.00282 100.686 7.63143 100.653C7.26005 100.621 6.88059 100.653 6.51728 100.6C6.49575 100.597 6.48768 100.559 6.5119 100.557Z" fill="#263238"/>
<path d="M16.243 90.3135C16.3749 87.2455 16.4744 84.1749 16.5579 81.1042C16.7247 74.9647 16.7687 68.8234 16.6897 62.6803C16.6467 59.2356 16.5552 55.7909 16.4529 52.3462C16.4529 52.3058 16.5121 52.3085 16.5121 52.3462C16.8404 58.5144 16.9642 64.6907 16.9696 70.8669C16.975 77.0432 16.8485 83.1576 16.5471 89.2882C16.3749 92.7302 16.165 96.1749 15.842 99.6089C15.8433 99.6125 15.8437 99.6164 15.8431 99.6203C15.8426 99.6241 15.8411 99.6277 15.8389 99.6309C15.8366 99.634 15.8337 99.6366 15.8303 99.6384C15.8268 99.6401 15.823 99.6411 15.8191 99.6411C15.8153 99.6411 15.8115 99.6401 15.808 99.6384C15.8046 99.6366 15.8016 99.634 15.7994 99.6309C15.7972 99.6277 15.7957 99.6241 15.7952 99.6203C15.7946 99.6164 15.795 99.6125 15.7963 99.6089C15.9335 96.5086 16.1084 93.4111 16.243 90.3135Z" fill="#263238"/>
<path d="M19.0498 93.519C19.0498 93.519 19.1359 103.824 19.1359 103.829C19.1359 105.799 19.1844 107.527 19.2866 108.42C19.2856 108.425 19.2856 108.429 19.2866 108.434C19.2883 108.645 19.3389 108.853 19.4346 109.042C19.4346 109.042 19.4346 109.042 19.4346 109.055C20.024 109.451 35.7729 109.863 36.3246 109.688C36.8763 109.513 36.4376 107.925 35.8375 107.422C35.2373 106.918 29.2763 104.063 29.2763 104.063L29.0906 93.7666L19.0498 93.519Z" fill="#C95F50"/>
<path d="M19.1152 101.727C19.1152 101.727 19.1314 103.837 19.1314 103.842C19.1314 105.812 19.1798 107.54 19.2821 108.434C19.2811 108.438 19.2811 108.443 19.2821 108.447C19.307 108.655 19.3566 108.859 19.4301 109.055C19.4301 109.055 19.4301 109.055 19.4301 109.069C20.0195 109.464 35.7683 109.876 36.32 109.701C36.8717 109.526 36.4331 107.938 35.8329 107.435C35.2328 106.932 29.2772 104.063 29.2772 104.063V101.91L19.1152 101.727Z" fill="white"/>
<path d="M30.2513 104.071C29.2017 103.896 27.9288 104.085 27.1457 104.846C27.1161 104.876 27.1457 104.919 27.1914 104.908C28.1833 104.565 29.2091 104.328 30.2513 104.203C30.2665 104.2 30.2802 104.192 30.29 104.18C30.2998 104.168 30.3052 104.153 30.3052 104.137C30.3052 104.122 30.2998 104.107 30.29 104.095C30.2802 104.083 30.2665 104.074 30.2513 104.071Z" fill="#263238"/>
<path d="M31.015 104.51C29.9654 104.335 28.6925 104.523 27.9093 105.285C27.8797 105.314 27.9093 105.357 27.9551 105.347C28.946 105.003 29.9709 104.767 31.0123 104.642C31.0276 104.639 31.0414 104.631 31.0515 104.619C31.0616 104.607 31.0673 104.592 31.0676 104.577C31.0679 104.561 31.0628 104.546 31.0532 104.534C31.0437 104.522 31.0301 104.513 31.015 104.51Z" fill="#263238"/>
<path d="M31.7798 104.957C30.7303 104.784 29.4546 104.973 28.6742 105.734C28.6419 105.764 28.6742 105.807 28.7199 105.793C29.7109 105.451 30.7359 105.215 31.7771 105.091C31.795 105.091 31.8122 105.085 31.8251 105.072C31.838 105.06 31.8454 105.043 31.8458 105.025C31.8461 105.007 31.8394 104.99 31.827 104.977C31.8146 104.964 31.7977 104.957 31.7798 104.957Z" fill="#263238"/>
<path d="M36.3356 109.688C35.7786 109.86 20.0324 109.451 19.443 109.055C19.217 108.907 19.1416 106.609 19.1309 103.829C19.1309 103.802 19.1309 103.772 19.1309 103.743L29.2928 103.893V104.066C29.2928 104.066 35.2511 106.918 35.8512 107.422C36.4514 107.925 36.89 109.531 36.3356 109.688Z" fill="#5D95E6"/>
<path d="M36.1718 109.074C33.5183 108.939 22.8073 108.649 20.1753 108.719C20.1538 108.719 20.1538 108.719 20.1753 108.735C22.8019 108.923 33.5183 109.128 36.1745 109.117C36.2283 109.117 36.2283 109.077 36.1718 109.074Z" fill="#263238"/>
<path d="M13.8374 60.5519C13.8374 60.5519 18.512 75.2862 18.5982 77.9962C18.6708 80.3053 18.3748 103.996 18.3748 103.996L30.216 104.068C30.216 104.068 29.2176 79.907 29.0319 77.4984C28.6874 73.0014 24.7448 60.6488 21.9272 49.6445H9.16016C9.16016 49.6445 9.2705 55.4064 11.8917 59.575C11.8917 59.5777 13.0785 60.1267 13.8374 60.5519Z" fill="#37474F"/>
<path d="M19.002 101.818C20.3691 101.778 21.7874 101.738 23.1545 101.773C24.5216 101.808 25.8726 101.826 27.2263 101.907C27.9933 101.953 28.7602 101.98 29.5272 102.055C29.5314 102.057 29.5349 102.059 29.5374 102.063C29.5399 102.067 29.5413 102.071 29.5413 102.075C29.5413 102.08 29.5399 102.084 29.5374 102.088C29.5349 102.091 29.5314 102.094 29.5272 102.096C28.1601 102.176 26.7876 102.16 25.4205 102.147C24.0534 102.133 22.7051 102.12 21.3487 102.058C20.5817 102.023 19.8147 101.983 19.0477 101.931C18.9643 101.923 18.9213 101.821 19.002 101.818Z" fill="#263238"/>
<path d="M21.5911 56.5903C22.0136 57.9978 22.3688 59.4268 22.7456 60.8478C23.1224 62.2687 23.5072 63.7112 23.884 65.1537C24.6133 67.9229 25.3345 70.7002 25.8809 73.5152C26.4391 76.3385 26.7561 79.2042 26.8281 82.0813C26.89 85.0147 26.8281 87.9535 26.8093 90.8869C26.7905 93.8203 26.7636 96.7859 26.7124 99.7355C26.7124 100.104 26.699 100.47 26.6855 100.836C26.6855 100.843 26.6827 100.85 26.6776 100.855C26.6726 100.86 26.6657 100.863 26.6586 100.863C26.6515 100.863 26.6446 100.86 26.6396 100.855C26.6345 100.85 26.6317 100.843 26.6317 100.836C26.551 97.9028 26.594 94.9613 26.6021 92.0279C26.6102 89.0945 26.6505 86.1557 26.6263 83.2197C26.6159 80.3064 26.3648 77.399 25.8755 74.5271C25.3803 71.704 24.6833 68.9187 23.962 66.1467C23.5494 64.5643 23.1367 62.9828 22.7241 61.4022C22.3123 59.809 21.8683 58.2185 21.505 56.6145C21.5043 56.6041 21.5073 56.5937 21.5133 56.5852C21.5194 56.5767 21.5282 56.5705 21.5382 56.5676C21.5483 56.5648 21.5591 56.5655 21.5687 56.5696C21.5783 56.5738 21.5862 56.5811 21.5911 56.5903Z" fill="#263238"/>
<path d="M16.7652 60.8396C16.1759 60.8357 15.588 60.7817 15.0079 60.6781C14.4323 60.5508 13.8637 60.3936 13.3044 60.2072C12.7544 60.0824 12.1971 59.9925 11.6358 59.938C11.0687 59.855 10.5166 59.69 9.9969 59.4482C9.97268 59.4482 9.95384 59.4752 9.97806 59.4859C10.4809 59.7567 11.0058 59.9845 11.547 60.1668C12.1068 60.3444 12.6935 60.3686 13.264 60.5059C13.8387 60.6781 14.4239 60.813 15.016 60.9096C15.5994 60.9818 16.19 60.9718 16.7706 60.88C16.7948 60.8746 16.7868 60.8396 16.7652 60.8396Z" fill="#263238"/>
<path d="M17.5107 72.5598C17.4003 72.1238 17.2927 71.6851 17.1743 71.2519C16.9347 70.3718 16.6925 69.4918 16.4261 68.6199C15.8879 66.8867 15.4008 65.1429 14.841 63.4178C14.5234 62.4409 14.2409 61.4505 13.8668 60.4925C13.8668 60.4875 13.8648 60.4827 13.8613 60.4792C13.8577 60.4756 13.8529 60.4736 13.8479 60.4736C13.8429 60.4736 13.8382 60.4756 13.8346 60.4792C13.8311 60.4827 13.8291 60.4875 13.8291 60.4925C14.0175 61.3859 14.2812 62.2606 14.518 63.1433C14.7549 64.026 15.0078 64.9006 15.2635 65.7753C15.7668 67.5165 16.2619 69.2604 16.8136 70.9881C16.9679 71.4725 17.1276 71.9543 17.2927 72.4333C17.4649 72.9258 17.5968 73.4317 17.804 73.9081C17.8028 73.9113 17.8024 73.9148 17.8028 73.9183C17.8033 73.9217 17.8045 73.925 17.8065 73.9278C17.8085 73.9307 17.8111 73.933 17.8142 73.9346C17.8173 73.9362 17.8207 73.9371 17.8242 73.9371C17.8276 73.9371 17.8311 73.9362 17.8341 73.9346C17.8372 73.933 17.8399 73.9307 17.8419 73.9278C17.8438 73.925 17.8451 73.9217 17.8455 73.9183C17.846 73.9148 17.8456 73.9113 17.8444 73.9081C17.7663 73.4506 17.6264 73.0092 17.5107 72.5598Z" fill="#263238"/>
<path d="M20.9344 36.5274C20.0706 36.5435 18.7815 34.84 18.4424 33.7016C18.5936 33.1368 18.7733 32.5799 18.9806 32.0331C19.1502 31.4949 19.3251 30.9001 19.4462 30.3403L22.7644 31.955C22.4113 32.6091 22.1401 33.3042 21.9571 34.0246C21.9419 34.1027 21.9329 34.1819 21.9302 34.2614C21.9314 34.2739 21.9314 34.2865 21.9302 34.2991C21.9006 34.7485 21.7741 36.5112 20.9344 36.5274Z" fill="#C95F50"/>
<path d="M21.9274 34.2564C21.9287 34.2698 21.9287 34.2833 21.9274 34.2968C21.804 34.2874 21.6816 34.2676 21.5614 34.2376C19.5188 33.6993 19.4812 31.2773 19.5404 30.3892L22.7698 31.9554C22.417 32.6087 22.1458 33.3028 21.9624 34.0223C21.9447 34.0993 21.933 34.1776 21.9274 34.2564Z" fill="#263238"/>
<path d="M19.3998 26.1206C18.8293 27.3208 18.9504 31.0481 19.7227 31.9927C20.8423 33.3599 22.9522 33.7905 24.1767 32.3803C25.3689 31.0158 25.1267 26.1582 24.2386 25.2728C22.928 23.9703 20.2448 24.3497 19.3998 26.1206Z" fill="#C95F50"/>
<path d="M22.751 28.8633C22.751 28.8633 22.7322 28.8633 22.7322 28.8848C22.7322 29.1351 22.7134 29.4231 22.4873 29.5119V29.528C22.7672 29.4849 22.8022 29.1001 22.751 28.8633Z" fill="#263238"/>
<path d="M22.5216 28.6021C22.1179 28.5779 22.0964 29.3906 22.4731 29.4095C22.8499 29.4283 22.8607 28.6236 22.5216 28.6021Z" fill="#263238"/>
<path d="M24.1639 28.8926C24.1639 28.8926 24.1854 28.8926 24.1827 28.9168C24.1827 29.1671 24.1827 29.455 24.4196 29.5465C24.4196 29.5465 24.4196 29.5627 24.4196 29.56C24.1397 29.5142 24.1074 29.1294 24.1639 28.8926Z" fill="#263238"/>
<path d="M24.3927 28.6371C24.7991 28.6156 24.8099 29.4283 24.4358 29.4445C24.0617 29.4606 24.0536 28.6533 24.3927 28.6371Z" fill="#263238"/>
<path d="M22.2129 28.2253C22.3197 28.196 22.4248 28.161 22.5278 28.1204C22.6444 28.1006 22.7513 28.0429 22.8319 27.9562C22.8516 27.9237 22.8602 27.8855 22.8563 27.8477C22.8524 27.8098 22.8363 27.7742 22.8104 27.7463C22.7502 27.7003 22.6789 27.671 22.6037 27.6615C22.5285 27.6521 22.4522 27.6628 22.3825 27.6925C22.2305 27.7321 22.0995 27.8284 22.0165 27.9616C22.0007 27.9921 21.9939 28.0263 21.9967 28.0605C21.9995 28.0946 22.0119 28.1273 22.0323 28.1548C22.0528 28.1823 22.0806 28.2035 22.1125 28.216C22.1444 28.2284 22.1792 28.2317 22.2129 28.2253Z" fill="#263238"/>
<path d="M24.7178 28.2359C24.6095 28.2111 24.5026 28.1806 24.3976 28.1444C24.28 28.1279 24.1712 28.0731 24.0881 27.9883C24.0652 27.9586 24.0527 27.9222 24.0527 27.8847C24.0527 27.8472 24.0652 27.8108 24.0881 27.7811C24.1463 27.7326 24.2164 27.7006 24.2912 27.6883C24.3659 27.676 24.4426 27.6839 24.5133 27.7111C24.6657 27.7429 24.8004 27.8314 24.8901 27.9587C24.9076 27.9876 24.9167 28.0208 24.9166 28.0546C24.9164 28.0884 24.9068 28.1215 24.889 28.1502C24.8712 28.1789 24.8457 28.2021 24.8155 28.2172C24.7853 28.2323 24.7515 28.2388 24.7178 28.2359Z" fill="#263238"/>
<path d="M22.4281 31.1397C22.4873 31.1989 22.5465 31.2823 22.6353 31.2904C22.7281 31.2915 22.8199 31.2722 22.9044 31.2339C22.9044 31.2339 22.9206 31.2339 22.9044 31.2473C22.8677 31.2965 22.8181 31.3345 22.7611 31.3573C22.7041 31.3801 22.642 31.3868 22.5815 31.3765C22.531 31.3616 22.486 31.3323 22.4521 31.2921C22.4181 31.2519 22.3967 31.2027 22.3904 31.1505C22.389 31.1455 22.3896 31.1401 22.3921 31.1356C22.3946 31.131 22.3989 31.1277 22.4039 31.1262C22.4089 31.1248 22.4142 31.1254 22.4188 31.128C22.4233 31.1305 22.4267 31.1347 22.4281 31.1397Z" fill="#263238"/>
<path d="M22.7106 30.3941C22.7721 30.495 22.8538 30.582 22.9506 30.6496C23.0474 30.7173 23.1572 30.764 23.2731 30.787C23.3736 30.8103 23.4771 30.8176 23.5799 30.8086C23.5995 30.8114 23.6194 30.8114 23.6391 30.8086H23.6956C23.7092 30.8062 23.7216 30.7994 23.7309 30.7891C23.7401 30.7789 23.7457 30.7658 23.7467 30.7521C23.748 30.7431 23.748 30.7341 23.7467 30.7251V30.6794C23.7467 30.4856 23.7467 30.1923 23.7467 30.1923C23.8167 30.23 24.1719 30.3995 24.1692 30.2999C24.167 29.4274 24.0768 28.5574 23.9001 27.7029C23.9001 27.6965 23.8976 27.6903 23.893 27.6858C23.8885 27.6813 23.8823 27.6787 23.8759 27.6787C23.8695 27.6787 23.8633 27.6813 23.8588 27.6858C23.8542 27.6903 23.8517 27.6965 23.8517 27.7029C23.8517 28.5103 23.9862 29.3176 23.997 30.125C23.87 30.063 23.7351 30.0186 23.596 29.9931C23.5664 29.9931 23.6283 30.561 23.6149 30.6471C23.4556 30.6586 23.2958 30.6381 23.1446 30.5868C22.9935 30.5355 22.8541 30.4544 22.7348 30.3484C22.716 30.3564 22.6972 30.3726 22.7106 30.3941Z" fill="#263238"/>
<path d="M23.469 30.7092C23.359 30.8442 23.2163 30.9489 23.0545 31.0133C22.9669 31.0408 22.873 31.0408 22.7854 31.0133C22.5863 30.9568 22.5863 30.7711 22.6266 30.615C22.6501 30.5319 22.6826 30.4516 22.7235 30.3755C22.93 30.5634 23.1912 30.6804 23.469 30.7092Z" fill="#263238"/>
<path d="M23.0545 31.0135C22.9669 31.041 22.873 31.041 22.7854 31.0135C22.5863 30.957 22.5863 30.7713 22.6266 30.6152C22.7324 30.6237 22.8322 30.6677 22.9099 30.74C22.9875 30.8123 23.0385 30.9086 23.0545 31.0135Z" fill="#FF97B8"/>
<path d="M24.5402 25.779C24.4867 25.7129 24.4131 25.666 24.3305 25.6456C24.2479 25.6252 24.1609 25.6324 24.0827 25.666C23.8298 25.7683 23.8136 26.0643 23.4073 26.18C23.0009 26.2957 22.0778 25.4453 21.2543 25.6741C20.4308 25.9028 20.202 26.8986 20.159 27.6521C20.1159 28.4056 19.6208 29.5359 19.0825 29.5359C18.9722 28.2307 19.061 26.799 19.3705 26.1343C20.1967 24.3581 22.8986 23.9382 24.2146 25.23C24.3563 25.3912 24.4667 25.5774 24.5402 25.779Z" fill="#263238"/>
<path d="M19.7337 29.1968C19.7337 29.1968 19.0636 27.9131 18.4904 28.1365C17.9172 28.3598 18.3182 30.1468 18.9129 30.4616C18.9866 30.5073 19.0688 30.5375 19.1545 30.5505C19.2403 30.5636 19.3277 30.5592 19.4117 30.5375C19.4956 30.5159 19.5744 30.4775 19.6431 30.4247C19.7119 30.3719 19.7692 30.3057 19.8118 30.2302L19.7337 29.1968Z" fill="#C95F50"/>
<path d="M18.6172 28.645C18.6172 28.645 18.6172 28.6585 18.6172 28.6612C18.8063 28.7874 18.9666 28.9521 19.0877 29.1446C19.2087 29.337 19.2877 29.5529 19.3196 29.778C19.2997 29.7308 19.2698 29.6884 19.2319 29.6538C19.1941 29.6192 19.1492 29.5933 19.1004 29.5777C19.0515 29.5621 18.9999 29.5572 18.949 29.5635C18.8981 29.5697 18.8492 29.5869 18.8056 29.6138C18.8033 29.6149 18.8014 29.6167 18.8 29.6188C18.7987 29.621 18.798 29.6234 18.798 29.626C18.798 29.6285 18.7987 29.631 18.8 29.6331C18.8014 29.6352 18.8033 29.637 18.8056 29.6381C18.8861 29.6246 18.9689 29.636 19.0429 29.6706C19.1169 29.7052 19.1786 29.7614 19.22 29.8318C19.2864 29.9517 19.3405 30.0779 19.3815 30.2086C19.3815 30.249 19.4703 30.2382 19.4595 30.1898C19.5483 29.6219 19.2119 28.7796 18.6172 28.645Z" fill="#263238"/>
<path d="M25.401 26.6751C25.401 26.6751 24.8197 22.7998 21.3642 23.2923C17.9087 23.7848 18.4281 27.6682 18.4281 27.6682L25.401 26.6751Z" fill="#5D95E6"/>
<path d="M18.2037 27.9762L25.7012 26.9092L25.6231 26.3603L18.1256 27.4274L18.2037 27.9762Z" fill="#5D95E6"/>
<path d="M21.9301 26.8877L23.491 26.667L22.5814 22.9155L21.0205 23.1389L21.9301 26.8877Z" fill="#5D95E6"/>
<path opacity="0.1" d="M21.9301 26.8877L23.491 26.667L22.5814 22.9155L21.0205 23.1389L21.9301 26.8877Z" fill="black"/>
<path d="M18.165 33.6748L18.348 32.2861L22.183 34.4956L22.296 35.8573L18.165 33.6748Z" fill="#EBEBEB"/>
<path d="M7.10446 52.2818C7.13406 52.3329 23.2516 55.635 23.4319 55.4978C23.6849 55.3067 24.5434 38.9066 22.011 35.2546C21.3866 34.3558 18.9726 33.0855 18.0818 33.5026C15.7755 34.5791 14.1069 37.4452 13.0547 39.0949C12.2769 40.3194 11.2139 42.4562 10.202 44.6603C8.53348 48.2934 7.00219 52.1042 7.10446 52.2818Z" fill="#5D95E6"/>
<path d="M20.5924 34.7998C18.243 34.9989 18.8189 41.7135 21.5262 41.4847C24.2336 41.256 22.9445 34.6006 20.5924 34.7998Z" fill="#EBEBEB"/>
<path d="M23.7087 51.803C23.7087 51.9698 23.7087 52.134 23.7087 52.2901L8.25586 49.1171C8.31776 48.9718 8.37965 48.8211 8.44155 48.6704L23.7087 51.803Z" fill="white"/>
<path d="M23.6713 52.7826C23.6713 52.9494 23.6551 53.1109 23.6444 53.2643L7.88477 50.0349C7.94128 49.8896 8.00049 49.7388 8.06777 49.5854L23.6713 52.7826Z" fill="white"/>
<path d="M20.7675 38.9712C22.8881 42.7388 27.186 49.5583 30.2243 50.005C33.4538 50.4733 37.975 47.2627 39.8884 46.3073C40.6958 45.9037 36.6886 40.6316 35.7413 40.8442C34.794 41.0568 31.839 43.2232 31.1151 43.2475C30.3912 43.2717 26.1768 38.9416 23.2084 36.6137C19.7206 33.866 19.0505 35.9167 20.7675 38.9712Z" fill="#C95F50"/>
<path d="M37.0998 34.178C37.0998 34.178 35.8215 33.0316 35.1083 33.9654C34.3952 34.8992 35.8457 35.825 35.8457 35.825L37.0998 34.178Z" fill="#455A64"/>
<path d="M45.4047 43.0886L47.0625 43.3577L47.6007 43.4546L47.3666 42.9513L46.6615 41.4443L37.0485 34.1377L35.7891 35.7928L45.4074 43.0994L45.4047 43.0886Z" fill="#455A64"/>
<path d="M47.0654 43.3712L47.6117 43.4654L47.3776 42.9595L47.0654 43.3712Z" fill="#37474F"/>
<path d="M36.0159 36.1694L37.4826 34.2452L37.1005 33.9546L35.6338 35.8788L36.0159 36.1694Z" fill="#37474F"/>
<path d="M36.4378 36.49L37.9045 34.5658L37.5224 34.2778L36.0557 36.1993L36.4378 36.49Z" fill="#37474F"/>
<path d="M37.9043 34.5659L37.4307 35.1876L41.1714 37.4886L41.3302 37.249L37.9043 34.5659Z" fill="#37474F"/>
<path d="M42.1327 35.607C42.3167 35.7215 42.4619 35.8888 42.5493 36.0871C42.6367 36.2854 42.6622 36.5055 42.6225 36.7185C42.9917 36.7015 43.3552 36.8138 43.6505 37.0361C44.1511 37.4532 43.7151 38.422 43.7151 38.422C44.1019 38.4828 44.4612 38.6592 44.7458 38.928C45.1845 39.3747 44.8858 40.4135 44.8858 40.4135C45.209 40.6669 45.4306 41.0278 45.5101 41.4308C45.677 42.5073 44.4094 43.6106 43.6101 44.3157C42.8109 45.0208 39.8828 46.2722 39.35 46.5656L34.627 41.3662C34.627 41.3662 36.3951 38.0399 38.5238 36.6001C39.4092 36.0026 41.4061 35.2007 42.1327 35.607Z" fill="#C95F50"/>
<path d="M42.5152 36.6703C41.4172 37.0633 40.4995 37.763 39.5414 38.4062C39.5384 38.4096 39.5366 38.4139 39.5362 38.4185C39.5358 38.4231 39.5369 38.4277 39.5393 38.4316C39.5417 38.4355 39.5453 38.4385 39.5496 38.4402C39.5538 38.4419 39.5585 38.4423 39.5629 38.4411C40.5075 37.7872 41.5706 37.3324 42.5394 36.7188C42.5458 36.7156 42.5507 36.7099 42.553 36.7031C42.5552 36.6963 42.5547 36.6889 42.5515 36.6824C42.5483 36.676 42.5427 36.6711 42.5358 36.6689C42.529 36.6666 42.5216 36.6671 42.5152 36.6703Z" fill="#263238"/>
<path d="M43.6397 38.3683C43.3995 38.4823 43.1752 38.6271 42.9723 38.7989C42.7462 38.9684 42.5255 39.1406 42.3049 39.3183C41.8635 39.6708 41.4329 40.0314 41.0104 40.4082C40.9943 40.4243 41.0104 40.4566 41.0346 40.4405C41.4733 40.0906 41.9173 39.7462 42.3802 39.4151C42.6063 39.2483 42.835 39.0841 43.0638 38.9227C43.2903 38.7831 43.5006 38.6188 43.6908 38.4329C43.6994 38.4261 43.7049 38.4162 43.7062 38.4053C43.7074 38.3945 43.7043 38.3836 43.6976 38.375C43.6908 38.3664 43.6809 38.3609 43.67 38.3597C43.6592 38.3584 43.6483 38.3615 43.6397 38.3683Z" fill="#263238"/>
<path d="M44.8664 40.4297C44.6506 40.5362 44.4541 40.6781 44.2852 40.8495C44.0887 41.0137 43.8922 41.1778 43.6931 41.3393C43.2948 41.6649 42.8857 41.9906 42.4874 42.3001C42.4659 42.3162 42.4874 42.3485 42.509 42.3324C42.9261 42.0202 43.3486 41.7107 43.7631 41.3931L44.3713 40.9222C44.5687 40.7962 44.7419 40.6358 44.8826 40.4485L44.8664 40.4297Z" fill="#263238"/>
<path d="M34.312 41.3204L38.2142 48.2152C38.2142 48.2152 32.2371 51.4016 29.161 50.0399C26.085 48.6781 21.6822 41.6137 20.2801 38.4301C18.878 35.2464 20.3312 34.1511 23.0978 36.3632C25.8643 38.5754 30.7408 42.8221 30.9399 42.927C31.1391 43.032 34.312 41.3204 34.312 41.3204Z" fill="#EBEBEB"/>
<path d="M34.7209 45.3385C34.4518 44.8406 34.1826 44.3481 33.9135 43.8556C33.7817 43.6188 33.6444 43.382 33.5152 43.1505C33.3861 42.9191 33.23 42.6311 33.0631 42.3943C33.0607 42.3921 33.0577 42.3907 33.0545 42.3903C33.0512 42.3898 33.048 42.3904 33.0451 42.3918C33.0422 42.3933 33.0397 42.3956 33.0382 42.3984C33.0366 42.4013 33.0359 42.4045 33.0362 42.4078C33.1385 42.6769 33.2865 42.946 33.4076 43.2151C33.5287 43.4842 33.6444 43.6995 33.7655 43.9417C34.0185 44.445 34.2715 44.9482 34.5379 45.4461C35.0761 46.4419 35.6144 47.4188 36.1957 48.393C36.1985 48.398 36.2032 48.4016 36.2088 48.4031C36.2143 48.4047 36.2203 48.4039 36.2253 48.4011C36.2303 48.3982 36.2339 48.3935 36.2354 48.3879C36.2369 48.3824 36.2362 48.3764 36.2333 48.3714C35.7355 47.3461 35.2457 46.3369 34.7209 45.3385Z" fill="#263238"/>
<path d="M23.6822 44.2809C23.398 43.8593 23.1365 43.4227 22.899 42.973L22.159 41.6786C21.6557 40.812 21.1632 39.9374 20.66 39.0708C20.66 39.0708 20.6411 39.0708 20.6438 39.0708C20.878 39.6279 21.1363 40.1715 21.4108 40.707L21.3381 40.6075C21.1767 40.4056 21.0098 40.2065 20.8457 40.01C20.8457 40.01 20.8161 40.01 20.8241 40.0262C20.9748 40.2442 21.1229 40.4622 21.2816 40.6721C21.3812 40.8039 21.4889 40.9412 21.5938 41.0596C21.7176 41.291 21.8441 41.5198 21.976 41.7485C22.2289 42.1899 22.4981 42.6214 22.7833 43.043C23.0524 43.4628 23.3861 43.8504 23.6472 44.2971C23.6606 44.3267 23.6983 44.3025 23.6822 44.2809Z" fill="#263238"/>
</svg>
