<svg width="144" height="144" viewBox="0 0 144 144" fill="none" xmlns="http://www.w3.org/2000/svg">
<g clip-path="url(#clip0_246_531)">
<mask id="mask0_246_531" style="mask-type:luminance" maskUnits="userSpaceOnUse" x="0" y="0" width="144" height="144">
<path d="M144 0H0V144H144V0Z" fill="white"/>
</mask>
<g mask="url(#mask0_246_531)">
<path d="M72.9509 44.1359L64.198 91.514C64.0771 92.1686 64.5096 92.7973 65.1643 92.9182L104.756 100.233C105.411 100.354 106.04 99.9212 106.161 99.2666L114.914 51.8886C115.035 51.234 114.602 50.6053 113.947 50.4843L74.3555 43.1697C73.7009 43.0487 73.0719 43.4813 72.9509 44.1359Z" fill="#4D4D4D"/>
<path d="M73.0261 43.7316L64.2732 91.1097C64.1522 91.7643 64.5848 92.393 65.2394 92.5139L104.831 99.8286C105.486 99.9495 106.115 99.517 106.236 98.8623L114.989 51.4843C115.11 50.8297 114.677 50.201 114.023 50.08L74.4307 42.7654C73.7761 42.6444 73.1471 43.077 73.0261 43.7316Z" fill="#666666"/>
<path d="M69.749 91.9839L68.6621 97.8654L71.7572 96.2639L73.9158 98.6862L74.9756 92.9496L70.3314 92.0916L69.749 91.9839Z" fill="#DB1F21"/>
<g style="mix-blend-mode:multiply" opacity="0.55">
<path d="M111.747 52.9343L112.194 50.5146L75.9255 43.814L75.4785 46.2337L111.747 52.9343Z" fill="black"/>
</g>
<path d="M65.7725 91.2494L104.785 98.4569L113.642 50.5175L74.6293 43.3101L65.7725 91.2494ZM110.874 52.09C110.477 52.0166 110.212 51.6508 110.282 51.273C110.351 50.8951 110.73 50.648 111.127 50.7214C111.524 50.7949 111.79 51.1606 111.72 51.5385C111.65 51.9164 111.272 52.1635 110.874 52.09ZM108.231 51.6016C107.834 51.5281 107.569 51.1624 107.639 50.7845C107.708 50.4067 108.087 50.1599 108.484 50.2333C108.881 50.3067 109.147 50.6725 109.077 51.0503C109.007 51.4282 108.629 51.675 108.231 51.6016ZM105.588 51.1134C105.191 51.04 104.926 50.6742 104.996 50.2964C105.066 49.9185 105.444 49.6714 105.841 49.7448C106.238 49.8183 106.504 50.184 106.434 50.5619C106.364 50.9398 105.986 51.1869 105.588 51.1134ZM102.946 50.6253C102.549 50.5518 102.283 50.1858 102.353 49.8079C102.423 49.4301 102.801 49.1832 103.199 49.2567C103.596 49.3301 103.861 49.6959 103.791 50.0737C103.721 50.4516 103.343 50.6987 102.946 50.6253ZM100.303 50.1368C99.9056 50.0634 99.6404 49.6976 99.7101 49.3198C99.7798 48.9419 100.159 48.6948 100.556 48.7682C100.953 48.8417 101.218 49.2074 101.148 49.5853C101.078 49.9631 100.7 50.2103 100.303 50.1368ZM97.6598 49.6486C97.2627 49.5752 96.9974 49.2092 97.0671 48.8313C97.1368 48.4534 97.5155 48.2066 97.9127 48.2801C98.3098 48.3535 98.5751 48.7193 98.5051 49.0971C98.4354 49.475 98.057 49.7221 97.6598 49.6486ZM95.0168 49.1602C94.6197 49.0868 94.3547 48.721 94.4244 48.3431C94.4941 47.9653 94.8726 47.7185 95.2697 47.7919C95.6669 47.8654 95.9321 48.2311 95.8624 48.609C95.7924 48.9868 95.414 49.2336 95.0168 49.1602ZM92.3739 48.672C91.9767 48.5986 91.7118 48.2328 91.7815 47.855C91.8511 47.4771 92.2296 47.23 92.6267 47.3035C93.0239 47.3769 93.2891 47.7427 93.2194 48.1205C93.1497 48.4984 92.771 48.7455 92.3739 48.672ZM89.9195 48.2184C89.5224 48.145 89.2574 47.7792 89.3271 47.4014C89.3968 47.0235 89.7752 46.7767 90.1724 46.8502C90.5695 46.9236 90.8348 47.2894 90.7651 47.6672C90.6954 48.0451 90.3167 48.2919 89.9195 48.2184ZM87.2768 47.7303C86.8797 47.6568 86.6144 47.2911 86.6841 46.9132C86.7538 46.5354 87.1323 46.2883 87.5294 46.3617C87.9266 46.4351 88.1918 46.8009 88.1221 47.1788C88.0524 47.5566 87.674 47.8037 87.2768 47.7303ZM84.6339 47.2418C84.2367 47.1684 83.9715 46.8026 84.0412 46.4248C84.1109 46.0469 84.4893 45.8001 84.8864 45.8735C85.2836 45.947 85.5491 46.3127 85.4791 46.6906C85.4095 47.0685 85.031 47.3153 84.6339 47.2418ZM81.9909 46.7537C81.5937 46.6802 81.3285 46.3145 81.3982 45.9366C81.4679 45.5588 81.8466 45.3119 82.2438 45.3854C82.6409 45.4588 82.9059 45.8243 82.8362 46.2022C82.7665 46.58 82.388 46.8271 81.9909 46.7537ZM79.3479 46.2655C78.9508 46.1921 78.6855 45.826 78.7552 45.4482C78.8249 45.0703 79.2036 44.8235 79.6008 44.8969C79.9979 44.9704 80.2632 45.3361 80.1935 45.714C80.1238 46.0918 79.7451 46.339 79.3479 46.2655ZM76.7049 45.7771C76.3078 45.7036 76.0428 45.3379 76.1125 44.96C76.1822 44.5822 76.5607 44.3353 76.9578 44.4088C77.355 44.4822 77.6202 44.848 77.5505 45.2258C77.4808 45.6037 77.1021 45.8505 76.7049 45.7771Z" fill="#E9EEFF"/>
<path d="M101.45 46.6887L101.168 48.2127L100.959 49.3457C100.912 49.5963 100.672 49.7619 100.421 49.7155L100.398 49.7115C100.148 49.6651 99.9819 49.4244 100.028 49.1738L100.237 48.0408L100.519 46.5167C100.565 46.2662 100.806 46.1003 101.057 46.1466L101.08 46.151C101.33 46.1973 101.496 46.4381 101.45 46.6887ZM82.7048 42.756L82.682 42.752C82.4315 42.7056 82.1907 42.8715 82.1443 43.1221L81.8627 44.6462L81.6536 45.7789C81.6072 46.0294 81.7725 46.2705 82.0234 46.3168L82.0464 46.3209C82.297 46.3672 82.5377 46.2014 82.5841 45.9508L82.7932 44.8181L83.0749 43.294C83.1212 43.0434 82.9553 42.8024 82.7048 42.756ZM98.4189 45.6703L98.3962 45.6663C98.1456 45.6199 97.9049 45.7855 97.8585 46.036L97.5768 47.5604L97.3677 48.6931C97.3214 48.9437 97.487 49.1845 97.7375 49.2308L97.7603 49.2351C98.0108 49.2815 98.2519 49.1156 98.2983 48.8651L98.5073 47.7324L98.789 46.208C98.8354 45.9574 98.6695 45.7167 98.4189 45.6703ZM93.1416 44.6845L93.1189 44.6801C92.8683 44.6338 92.6275 44.7997 92.5812 45.0502L92.2995 46.5743L92.0904 47.7073C92.044 47.9579 92.2096 48.1986 92.4602 48.245L92.4832 48.249C92.7338 48.2954 92.9746 48.1298 93.0209 47.8792L93.23 46.7463L93.5117 45.2222C93.5581 44.9716 93.3922 44.7308 93.1416 44.6845ZM95.7664 45.1692L95.7437 45.1651C95.4931 45.1188 95.2524 45.2844 95.206 45.5349L94.9243 47.0593L94.715 48.192C94.6686 48.4426 94.8345 48.6833 95.085 48.7297L95.1078 48.734C95.3584 48.7804 95.5991 48.6145 95.6455 48.3639L95.8549 47.2312L96.1365 45.7071C96.1829 45.4566 96.017 45.2155 95.7664 45.1692ZM85.4042 43.2548L85.3812 43.2505C85.1306 43.2041 84.8898 43.37 84.8435 43.6206L84.5618 45.145L84.3527 46.2777C84.3064 46.5282 84.4722 46.769 84.7228 46.8154L84.7456 46.8197C84.9961 46.8661 85.2369 46.7002 85.2832 46.4496L85.4926 45.3169L85.774 43.7925C85.8204 43.542 85.6548 43.3012 85.4042 43.2548ZM88.0288 43.7398L88.006 43.7355C87.7554 43.6891 87.5147 43.855 87.4683 44.1056L87.1866 45.6297L86.9773 46.7627C86.9309 47.0132 87.0968 47.254 87.3473 47.3004L87.3701 47.3044C87.6207 47.3508 87.8617 47.1852 87.9081 46.9346L88.1172 45.8016L88.3988 44.2775C88.4452 44.027 88.2793 43.7862 88.0288 43.7398ZM90.6412 44.2225L90.6182 44.2182C90.3676 44.1718 90.1268 44.3377 90.0805 44.5883L89.7991 46.1124L89.5897 47.2451C89.5433 47.4956 89.7092 47.7367 89.9598 47.7831L89.9825 47.7871C90.2331 47.8335 90.4739 47.6676 90.5202 47.417L90.7296 46.2843L91.011 44.7602C91.0574 44.5096 90.8918 44.2689 90.6412 44.2225ZM103.704 46.6357L103.682 46.6316C103.431 46.5853 103.19 46.7511 103.144 47.0017L102.862 48.5258L102.653 49.6585C102.606 49.9091 102.772 50.1501 103.023 50.1965L103.046 50.2005C103.296 50.2469 103.537 50.081 103.583 49.8304L103.793 48.6977L104.074 47.1736C104.121 46.9231 103.955 46.682 103.704 46.6357ZM77.4528 41.7857L77.4301 41.7817C77.1795 41.7353 76.9384 41.9009 76.8921 42.1515L76.6107 43.6759L76.4013 44.8086C76.355 45.0591 76.5208 45.2999 76.7714 45.3463L76.7942 45.3506C77.045 45.397 77.2855 45.2311 77.3319 44.9805L77.5412 43.8478L77.8226 42.3234C77.869 42.0729 77.7034 41.8321 77.4528 41.7857ZM106.329 47.1207L106.306 47.1163C106.056 47.07 105.815 47.2359 105.768 47.4864L105.487 49.0108L105.278 50.1435C105.231 50.3941 105.397 50.6348 105.648 50.6812L105.67 50.6855C105.921 50.7319 106.162 50.566 106.208 50.3154L106.418 49.1827L106.699 47.6583C106.746 47.4078 106.58 47.167 106.329 47.1207ZM109.021 47.618L108.998 47.6137C108.747 47.5673 108.506 47.7332 108.46 47.9838L108.179 49.5082L107.969 50.6409C107.923 50.8914 108.089 51.1322 108.339 51.1786L108.362 51.1829C108.613 51.2293 108.853 51.0634 108.9 50.8128L109.109 49.6798L109.391 48.1557C109.437 47.9052 109.271 47.6644 109.021 47.618ZM111.645 48.1027L111.623 48.0987C111.372 48.0523 111.131 48.2182 111.085 48.4688L110.803 49.9929L110.594 51.1256C110.547 51.3761 110.713 51.6172 110.964 51.6636L110.987 51.6676C111.237 51.714 111.478 51.5481 111.525 51.2975L111.734 50.1648L112.015 48.6407C112.062 48.3899 111.896 48.1491 111.645 48.1027ZM80.1174 42.2782L80.0946 42.2739C79.8441 42.2275 79.6033 42.3934 79.5569 42.644L79.2753 44.1681L79.0659 45.3011C79.0195 45.5516 79.1854 45.7924 79.436 45.8388L79.4587 45.8428C79.7093 45.8892 79.9501 45.7236 79.9964 45.473L80.2058 44.34L80.4875 42.8159C80.5338 42.5654 80.368 42.3246 80.1174 42.2782Z" fill="#586066"/>
<path d="M78.1631 54.2417L100.815 58.4165" stroke="#BCCBFF" stroke-width="1.296" stroke-miterlimit="10"/>
<path d="M76.8066 61.3359L99.459 65.5108" stroke="#BCCBFF" stroke-width="1.296" stroke-miterlimit="10"/>
<path d="M75.4961 68.4385L98.1484 72.6133" stroke="#BCCBFF" stroke-width="1.296" stroke-miterlimit="10"/>
<path d="M74.2285 75.5493L96.8809 79.7242" stroke="#BCCBFF" stroke-width="1.296" stroke-miterlimit="10"/>
<path d="M72.917 82.6514L95.5693 86.8262" stroke="#BCCBFF" stroke-width="1.296" stroke-miterlimit="10"/>
<path d="M101.418 73.149L102.423 74.3238L104.559 72.7139" stroke="#00C83C" stroke-width="0.8352" stroke-miterlimit="10"/>
<path d="M102.758 65.6876L103.762 66.8624L105.899 65.2524" stroke="#00C83C" stroke-width="0.8352" stroke-miterlimit="10"/>
<path d="M104.092 58.5231L105.096 59.6978L107.233 58.0879" stroke="#00C83C" stroke-width="0.8352" stroke-miterlimit="10"/>
<path d="M94.3284 106.876L75.6902 108.704L37.5469 110.727L33.4521 33.5223L91.191 30.46L94.2196 87.5646L94.3284 106.876Z" fill="#E9EEFF"/>
<path d="M94.3284 106.876L75.6902 108.704L37.5469 110.727L33.4521 33.5223L91.191 30.46L94.2196 87.5646L94.3284 106.876Z" stroke="#BCCBFF" stroke-width="0.576"/>
<path d="M52.6857 84.7002L43.9858 85.1619L43.5244 76.4617L52.2243 76L52.6857 84.7002ZM44.9756 84.0608L51.5852 83.7103L51.2345 77.101L44.6249 77.4515L44.9756 84.0608Z" fill="#BCCBFF"/>
<path d="M46.1172 80.4899L47.8872 81.7632C47.8872 81.7632 49.519 79.7869 50.0939 79.0908" stroke="#00C83C" stroke-width="1.1808" stroke-miterlimit="10"/>
<path d="M53.2609 96.7964L44.561 97.258L44.0996 88.5579L52.7995 88.0962L53.2609 96.7964ZM45.5508 96.157L52.1604 95.8065L51.8097 89.1972L45.2001 89.5477L45.5508 96.157Z" fill="#BCCBFF"/>
<path d="M46.7451 92.595L48.5152 93.8682L50.9194 90.9565" stroke="#00C83C" stroke-width="1.1808" stroke-miterlimit="10"/>
<path d="M83.6045 42.0477L71.9192 42.6672C71.5085 42.6891 71.1577 42.3737 71.1358 41.963C71.114 41.5523 71.4296 41.2015 71.8403 41.1796L83.5256 40.5602C83.9363 40.5383 84.2871 40.8536 84.309 41.2643C84.3308 41.675 84.0152 42.0258 83.6045 42.0477Z" fill="#BCCBFF"/>
<path d="M83.8213 46.1253L72.136 46.7448C71.7253 46.7667 71.3745 46.4513 71.3526 46.0406C71.3307 45.63 71.6464 45.2792 72.0571 45.2573L83.7424 44.6378C84.1531 44.6159 84.5039 44.9313 84.5258 45.342C84.5476 45.7526 84.232 46.1034 83.8213 46.1253Z" fill="#FF1C48"/>
<path d="M84.2276 53.785L72.5422 54.4045C72.1316 54.4264 71.7808 54.111 71.7589 53.7003C71.737 53.2896 72.0526 52.9388 72.4633 52.9169L84.1486 52.2975C84.5593 52.2756 84.9101 52.5909 84.932 53.0016C84.9539 53.4123 84.6382 53.7631 84.2276 53.785Z" fill="#FFB60E"/>
<path d="M84.4434 57.8626L72.7581 58.4824C72.3474 58.5043 71.9966 58.1886 71.9747 57.7779C71.9528 57.3673 72.2685 57.0165 72.6792 56.9946L84.3645 56.3751C84.7752 56.3532 85.1259 56.6686 85.1478 57.0793C85.1697 57.4899 84.8541 57.8407 84.4434 57.8626Z" fill="#BCCBFF"/>
<path d="M84.7433 63.5203L43.553 65.7048C43.1423 65.7267 42.7915 65.4113 42.7696 65.0007C42.7477 64.59 43.0634 64.2392 43.4741 64.2173L84.6644 62.0328C85.0751 62.0109 85.4259 62.3263 85.4478 62.737C85.4697 63.1477 85.154 63.4984 84.7433 63.5203Z" fill="#BCCBFF"/>
<path d="M84.9367 67.1527L43.7463 69.3371C43.3357 69.359 42.9849 69.0437 42.963 68.633C42.9411 68.2223 43.2567 67.8715 43.6674 67.8496L84.8578 65.6651C85.2685 65.6432 85.6192 65.9586 85.6411 66.3693C85.663 66.78 85.3474 67.1308 84.9367 67.1527Z" fill="#BCCBFF"/>
<path d="M76.6078 80.5609L57.789 81.5588C57.3783 81.5807 57.0278 81.2653 57.006 80.8546C56.9841 80.4439 57.2994 80.0931 57.7101 80.0713L76.5292 79.0733C76.9399 79.0515 77.2904 79.3668 77.3123 79.7775C77.3342 80.1882 77.0185 80.539 76.6078 80.5609Z" fill="#BCCBFF"/>
<path d="M85.1796 76.0169L57.5722 77.4814C57.1615 77.5033 56.811 77.1876 56.7892 76.7769C56.7673 76.3663 57.0829 76.0155 57.4936 75.9936L85.1007 74.5294C85.5114 74.5075 85.8622 74.8232 85.8841 75.2338C85.906 75.6445 85.5903 75.995 85.1796 76.0169Z" fill="#BCCBFF"/>
<path d="M77.183 92.6571L58.3642 93.655C57.9535 93.6769 57.603 93.3615 57.5812 92.9508C57.5593 92.5401 57.8746 92.1893 58.2853 92.1675L77.1044 91.1695C77.5151 91.1476 77.8656 91.463 77.8875 91.8737C77.9093 92.2844 77.5937 92.6352 77.183 92.6571Z" fill="#BCCBFF"/>
<path d="M85.7548 88.1131L58.1474 89.5776C57.7367 89.5995 57.3862 89.2838 57.3644 88.8731C57.3425 88.4624 57.6581 88.1117 58.0688 88.0898L85.6759 86.6256C86.0866 86.6037 86.4374 86.9193 86.4593 87.33C86.4812 87.7407 86.1655 88.0912 85.7548 88.1131Z" fill="#BCCBFF"/>
<path d="M59.2559 59.1982L51.6858 59.5997L51.083 48.2335L58.6531 47.832L59.2559 59.1982Z" fill="#FFB60E"/>
<path d="M50.4502 59.6657L42.8801 60.0672L42.457 52.0919L50.0271 51.6904L50.4502 59.6657Z" fill="#BCCBFF"/>
<path d="M68.0598 58.7316L60.4897 59.1331L59.584 42.0524L67.1541 41.6509L68.0598 58.7316Z" fill="#FF1C48"/>
<g style="mix-blend-mode:multiply" opacity="0.3">
<g style="mix-blend-mode:multiply">
<path d="M82.1144 87.5935C78.4611 87.6756 75.5661 90.7039 75.6482 94.3572C75.7303 98.0105 78.7586 100.905 82.4119 100.823C86.0651 100.741 88.9598 97.7127 88.8778 94.0594C88.7957 90.4061 85.7676 87.5114 82.1144 87.5935Z" stroke="#00C83C" stroke-width="2.016" stroke-miterlimit="10"/>
</g>
</g>
<g style="mix-blend-mode:multiply" opacity="0.3">
<g style="mix-blend-mode:multiply">
<path d="M82.0601 85.2201C77.0958 85.3318 73.1623 89.4465 73.2738 94.4108C73.3853 99.375 77.5002 103.309 82.4645 103.197C87.4287 103.085 91.3625 98.9707 91.2508 94.0064C91.1393 89.0421 87.0244 85.1084 82.0601 85.2201Z" stroke="#00C83C" stroke-width="0.7488" stroke-miterlimit="10"/>
</g>
</g>
<path d="M85.5152 92.2871L81.4213 96.2788L78.9707 94.0909" stroke="#00C83C" stroke-width="1.7856" stroke-miterlimit="10"/>
<path d="M54.1377 86.0275L59.0343 90.4308L60.6167 88.6714L55.72 84.2681L54.1377 86.0275Z" fill="#212121"/>
<path d="M57.3027 90.1205L66.3528 98.2589C67.2196 99.0384 68.5539 98.9675 69.3334 98.1008C70.1127 97.234 70.0421 95.8996 69.1753 95.1203L60.1253 86.9819L57.3027 90.1205Z" fill="#303030"/>
<g opacity="0.2">
<path d="M56.8845 79.2636C57.1214 83.7312 53.6918 87.545 49.2243 87.7819C44.7567 88.0189 40.9428 84.5893 40.7059 80.1217C40.469 75.6541 43.8986 71.8403 48.3661 71.6034C52.8337 71.3665 56.6476 74.796 56.8845 79.2636Z" fill="#00A4FF"/>
</g>
<path d="M41.3281 72.9163C37.5733 77.0917 37.9143 83.5203 42.0896 87.2751C46.265 91.0299 52.6937 90.6889 56.4484 86.5136C60.2032 82.3382 59.8623 75.9095 55.6869 72.1548C51.5115 68.4 45.0829 68.7409 41.3281 72.9163ZM43.0582 74.472C45.9538 71.2521 50.9112 70.9892 54.1312 73.8848C57.3512 76.7804 57.614 81.7379 54.7184 84.9579C51.8228 88.1778 46.8653 88.4406 43.6453 85.545C40.4254 82.6494 40.1626 77.692 43.0582 74.472Z" fill="#303030"/>
</g>
</g>
<defs>
<clipPath id="clip0_246_531">
<rect width="144" height="144" fill="white"/>
</clipPath>
</defs>
</svg>
