<svg width="102" height="102" viewBox="0 0 102 102" fill="none" xmlns="http://www.w3.org/2000/svg">
<g clip-path="url(#clip0_276_5453)">
<mask id="mask0_276_5453" style="mask-type:luminance" maskUnits="userSpaceOnUse" x="0" y="0" width="102" height="102">
<path d="M102 0H0V102H102V0Z" fill="white"/>
</mask>
<g mask="url(#mask0_276_5453)">
<path d="M32.5498 72.1401C32.5498 72.1401 47.2588 82.8993 46.4859 86.1099C46.2659 87.0244 41.2491 85.8178 41.2491 85.8178L32.5498 72.1401Z" fill="#EE6352"/>
<path d="M41.037 58.2351C44.2108 54.6303 46.6501 51.5486 46.6501 51.5486L49.1059 36.4849C49.1059 36.4849 40.9068 38.1957 37.0386 41.7833C36.2555 42.5097 24.9928 55.1915 26.7945 69.3848L41.037 58.2351Z" fill="white"/>
<path d="M26.9889 63.6835C26.984 63.6835 26.9792 63.6834 26.9743 63.683C26.8584 63.6751 26.7709 63.5747 26.7788 63.4588C27.0257 59.8664 28.2798 55.5374 30.3104 51.2691C32.2282 47.2378 34.6285 43.724 36.8958 41.6288C38.0708 40.5429 40.26 38.9947 44.0164 37.7863C46.2576 37.0652 48.0252 36.8027 48.0428 36.8001C48.1068 36.7906 48.1716 36.8115 48.2184 36.8561C48.2652 36.9007 48.2889 36.9644 48.2827 37.0288L46.8593 51.569C46.8554 51.6092 46.84 51.6475 46.8149 51.6791C46.7905 51.71 44.3358 54.8064 41.1947 58.3741C41.1179 58.4613 40.985 58.4697 40.8978 58.393C40.8106 58.3162 40.8022 58.1833 40.8789 58.0961C43.7989 54.7796 46.1231 51.8728 46.4467 51.4662L47.8372 37.2606C47.2673 37.3609 45.8425 37.6402 44.1378 38.1892C40.4588 39.3738 38.3242 40.8815 37.1813 41.9378C34.9519 43.9981 32.586 47.465 30.6903 51.4499C28.6819 55.6716 27.4418 59.9466 27.1986 63.4876C27.191 63.5986 27.0985 63.6835 26.9889 63.6835Z" fill="#7698B3"/>
<path d="M41.6233 47.7272C41.5855 47.7272 41.5472 47.717 41.5127 47.6956C41.4139 47.6345 41.3835 47.5049 41.4447 47.4061C41.5044 47.3096 42.9321 45.0267 45.0764 43.6144C47.0645 42.305 49.9232 41.2585 49.9518 41.2481C50.061 41.2084 50.1816 41.2647 50.2213 41.3738C50.261 41.483 50.2048 41.6037 50.0956 41.6435C50.0674 41.6537 47.2541 42.6839 45.3078 43.9657C43.2402 45.3274 41.8164 47.6047 41.8023 47.6275C41.7625 47.6918 41.6937 47.7272 41.6233 47.7272Z" fill="#7698B3"/>
<path d="M57.9081 56.7969C57.9081 56.7969 57.36 67.8954 47.771 70.1037C46.495 70.3976 44.5367 71.3771 44.2068 72.5779C44.2068 72.5779 43.4585 72.1639 38.5128 98.1237L17.8645 96.8309C19.0808 93.8921 15.7576 85.7014 16.9849 82.8832C23.306 68.368 27.2034 60.9879 27.2034 60.9879L57.9081 56.7969Z" fill="white"/>
<path d="M38.5095 98.786C38.4962 98.786 38.4827 98.7848 38.4692 98.7822C38.3551 98.76 38.2806 98.6496 38.3027 98.5355C39.2565 93.6192 40.1107 89.3785 40.9138 85.571C40.926 85.5125 40.9385 85.4542 40.9508 85.3962C40.9655 85.3276 40.98 85.2594 40.9941 85.1915C41.3792 83.3707 41.7497 81.6681 42.0955 80.1303C42.0958 80.1283 42.0962 80.1263 42.0967 80.1244C43.429 74.1982 43.9584 72.6485 44.0058 72.5142C44.2712 71.5673 45.3769 70.8728 46.0136 70.5426C46.2663 70.411 46.5295 70.292 46.7957 70.189C46.8675 70.1608 46.9447 70.1319 47.0376 70.0991C47.0887 70.0817 47.1359 70.0659 47.1829 70.0507C47.1872 70.0493 47.1932 70.0474 47.2007 70.0454C47.3379 70.0001 47.473 69.9608 47.6025 69.9286C47.6343 69.9201 47.669 69.9119 47.7033 69.9041C47.7116 69.9007 47.7156 69.9005 47.7275 69.8981C47.7315 69.8969 47.7355 69.8959 47.7397 69.895C47.7778 69.8864 47.8153 69.8773 47.8528 69.8682C47.8579 69.8666 47.863 69.8651 47.8683 69.8639C48.5036 69.7102 49.1177 69.5114 49.6934 69.2729C49.9796 69.1546 50.2647 69.0228 50.5411 68.881C51.2194 68.5344 51.8613 68.1198 52.4494 67.6484C52.454 67.6438 52.459 67.6393 52.4642 67.6352C54.219 66.2278 55.5843 64.2836 56.5222 61.8566C56.5234 61.8533 56.5248 61.85 56.5262 61.8467C56.8644 60.9721 57.1414 60.0466 57.3496 59.0955C57.6471 57.7349 57.6971 56.7957 57.6975 56.7863C57.7034 56.6704 57.801 56.5799 57.9182 56.5868C58.0342 56.5926 58.1235 56.6913 58.1177 56.8074C58.1158 56.8467 58.0663 57.7879 57.7607 59.1855C57.5471 60.1607 57.2627 61.11 56.9153 62.0073C56.914 62.0105 56.9127 62.0137 56.9112 62.017C55.9491 64.5031 54.5465 66.4997 52.7423 67.9516C52.7376 67.956 52.7327 67.9604 52.7276 67.9645C52.1132 68.4589 51.442 68.8932 50.7328 69.2556C50.4465 69.4025 50.1508 69.5391 49.8543 69.6617C49.2633 69.9065 48.6336 70.1109 47.9827 70.2691C47.9777 70.2708 47.9725 70.2723 47.9673 70.2735C47.9244 70.2839 47.8816 70.2943 47.8383 70.304C47.8344 70.3052 47.8305 70.3061 47.8267 70.307C47.8223 70.3083 47.8179 70.3094 47.8135 70.3105L47.8015 70.3132C47.7709 70.3202 47.7396 70.3274 47.7079 70.3359C47.5819 70.3673 47.4539 70.4046 47.3235 70.4479C47.3182 70.4496 47.3128 70.4512 47.3073 70.4525C47.2666 70.4657 47.2217 70.481 47.1754 70.4967C47.0899 70.5269 47.017 70.554 46.9487 70.581C46.6959 70.6787 46.4469 70.7913 46.2077 70.916C45.2246 71.4258 44.5693 72.0516 44.4093 72.6334C44.4079 72.6388 44.4062 72.6441 44.4044 72.6492C44.3992 72.6637 43.8671 74.1687 42.5083 80.2115C42.5079 80.2136 42.5075 80.2155 42.5071 80.2173C42.1614 81.7547 41.7909 83.4575 41.4059 85.2781C41.3918 85.3458 41.3771 85.4145 41.3623 85.4838C41.35 85.5414 41.3377 85.5993 41.3256 85.6576C40.5228 89.4631 39.6692 93.7016 38.7158 98.6156C38.6962 98.7162 38.6082 98.786 38.5095 98.786ZM47.7192 69.9006C47.7199 69.9003 47.7208 69.9001 47.7215 69.8998C47.7208 69.9001 47.72 69.9003 47.7192 69.9006Z" fill="#7698B3"/>
<path d="M17.6195 83.8832C17.5912 83.8832 17.5624 83.8775 17.5349 83.8654C17.4285 83.8185 17.3803 83.6944 17.427 83.5881C18.8108 80.4435 19.7882 77.7848 20.6503 75.4391C21.4884 73.1593 22.2799 71.0059 23.2884 68.8313C23.677 67.9946 24.042 67.21 24.3803 66.4856C25.2522 64.62 26.0923 62.8365 26.8774 61.1847C26.8781 61.1831 26.879 61.1816 26.8797 61.18C26.9682 60.9931 27.0144 60.8964 27.0144 60.8964C27.0646 60.7916 27.1902 60.7473 27.2951 60.7976C27.3999 60.8479 27.4441 60.9735 27.3939 61.0782C27.3938 61.0786 27.3485 61.1728 27.2626 61.3544C27.2599 61.3607 27.257 61.3668 27.2538 61.3728C26.4701 63.0217 25.6316 64.8018 24.7615 66.6638C24.4233 67.3878 24.0584 68.1721 23.6701 69.0084C22.6688 71.1672 21.8802 73.3128 21.0453 75.5842C20.1809 77.9357 19.2012 80.601 17.8121 83.7575C17.7775 83.8364 17.7004 83.8832 17.6195 83.8832Z" fill="#7698B3"/>
<path d="M43.1656 49.0342C43.0876 49.0342 43.0126 48.9906 42.9762 48.9157C42.4718 47.878 41.338 47.5196 40.8537 47.3666C40.6459 47.3009 40.5598 47.2737 40.5009 47.1974C40.4299 47.1054 40.4469 46.9733 40.5389 46.9023C40.6172 46.8417 40.7248 46.8451 40.7989 46.9046C40.8311 46.9182 40.9101 46.9431 40.9805 46.9654C41.5163 47.1348 42.7711 47.5313 43.3546 48.7318C43.4054 48.8363 43.3619 48.9622 43.2574 49.013C43.2278 49.0274 43.1965 49.0342 43.1656 49.0342Z" fill="#7698B3"/>
<path d="M56.615 71.5136H55.708V58.4126H56.615V71.5136Z" fill="white"/>
<path d="M57.5203 33.8552H56.6133V26.7495H57.5203V33.8552Z" fill="white"/>
<path d="M55.8929 47.293H51.793V46.2852H55.8929V47.293Z" fill="white"/>
<path d="M48.5894 79.3354L76.8165 79.2869C78.3424 79.2842 79.5795 78.0105 79.5795 76.4418L79.5792 24.3535C79.5792 22.7849 78.3421 21.5155 76.8162 21.5181L48.5891 21.5666C47.0632 21.5692 45.8262 22.8429 45.8262 24.4116L45.8265 76.4998C45.8265 78.0685 47.0635 79.338 48.5894 79.3354Z" fill="#525252"/>
<path d="M50.087 79.2875L78.6862 79.2384C80.1093 79.2359 81.2631 78.048 81.2631 76.585L81.2628 24.205C81.2628 22.742 80.1091 21.5581 78.6859 21.5606L50.0867 21.6098C48.6634 21.6122 47.5098 22.8001 47.5098 24.2632L47.5101 76.6431C47.5101 78.106 48.6638 79.29 50.087 79.2875Z" fill="white"/>
<path d="M47.6413 45.8607L47.5098 46.5999L47.5093 46.6068L47.51 46.6496V46.6758L47.5102 46.7886L47.5101 46.7893C47.5192 46.7854 47.5283 46.7808 47.5375 46.7763C47.5389 46.7757 47.5402 46.7752 47.5416 46.7747C47.5753 46.7583 47.6089 46.7425 47.6424 46.7274L47.6413 45.8607ZM47.6413 45.8607L47.5098 46.5999L47.5093 46.6068L47.51 46.6496V46.6758L47.5102 46.7886C47.5192 46.7847 47.5284 46.7802 47.5375 46.7763C47.5389 46.7757 47.5402 46.7752 47.5416 46.7747C47.5753 46.7583 47.6089 46.7425 47.6424 46.7274L47.6413 45.8607ZM81.3954 76.5842L81.3953 74.8509V74.8503L81.3956 72.5654V72.1866L81.3953 70.0317V70.0311V62.7994L81.3954 60.579L81.3953 54.1686L81.395 24.2044C81.3952 22.6688 80.1796 21.4212 78.6855 21.4238L50.0865 21.4728C49.849 21.4732 49.6184 21.5054 49.3986 21.5649L49.3972 21.5648C49.3966 21.5648 49.3958 21.5654 49.3951 21.5659H49.3945C48.2351 21.8842 47.3771 22.9726 47.3767 24.2633L47.3769 36.9627L47.3766 37.1693L47.3767 42.6287L47.3766 44.9118L47.3764 44.9149L47.3769 44.9176L47.3767 44.9194L47.3772 46.8511L47.3771 46.8517L47.3766 47.3523L47.376 47.3599L47.3767 52.0369L47.3766 54.8652V54.8658L47.3772 70.1321L47.377 70.4337L47.3771 76.6431C47.3774 77.9339 48.236 79.022 49.3984 79.334L49.3998 79.3341C49.6193 79.3932 49.849 79.4241 50.0866 79.4237L77.6428 79.3763L78.6862 79.3747C80.1798 79.372 81.3958 78.1205 81.3954 76.5842ZM77.7913 79.1031H77.7907L77.2898 79.1042L50.0866 79.1507C48.7388 79.153 47.6428 78.0283 47.6423 76.6425V70.4503L47.6426 70.0683V70.0677L47.6421 54.5802L47.6421 54.5795L47.6419 52.0535L47.6423 46.7281L47.6424 46.7274L47.6413 45.8607L47.6418 45.8544L47.6411 42.5516L47.6418 42.542L47.6422 42.5019L47.6417 37.117V37.1164L47.6422 36.8907L47.6419 24.2627C47.6421 22.877 48.7388 21.748 50.0865 21.7458L77.7899 21.698L77.7906 21.6981L78.6855 21.6967C80.0332 21.6945 81.1299 22.8199 81.1298 24.205L81.1299 54.152V60.3091V60.3097L81.13 62.5991L81.1301 69.767L81.1303 71.7656L81.1302 71.7663L81.1303 72.5487L81.1304 74.7151L81.1301 76.5849C81.1299 77.9706 80.034 79.0995 78.6862 79.1018L77.7913 79.1031ZM47.6413 45.8607L47.5098 46.5999L47.5093 46.6068L47.51 46.6496V46.6758L47.5102 46.7886C47.5192 46.7847 47.5284 46.7802 47.5375 46.7763C47.5389 46.7757 47.5402 46.7752 47.5416 46.7747C47.5753 46.7583 47.6089 46.7425 47.6424 46.7274L47.6413 45.8607Z" fill="#7698B3"/>
<path d="M49.5088 25.5829L49.509 73.3526C49.509 74.0967 50.0966 74.6996 50.8204 74.6983L77.9561 74.6517C78.6805 74.6505 79.2674 74.0456 79.2674 73.3015L79.2672 25.5319C79.2672 24.7871 78.6802 24.1848 77.9558 24.186L50.8202 24.2327C50.0962 24.2339 49.5088 24.8383 49.5088 25.5829Z" fill="#FAC05E"/>
<path d="M64.9006 23.0995C64.9006 22.8078 64.6706 22.5718 64.3868 22.5723C64.1031 22.5727 63.873 22.8096 63.873 23.1013C63.8731 23.3929 64.1031 23.629 64.3868 23.6285C64.6706 23.628 64.9006 23.3911 64.9006 23.0995Z" fill="#7698B3"/>
<path d="M61.7872 77.7691L66.9882 77.7601C67.3384 77.7596 67.625 77.4645 67.625 77.1043V76.5588C67.625 76.1987 67.3384 75.9046 66.9881 75.9053L61.7872 75.9141C61.4369 75.9148 61.1504 76.2099 61.1504 76.5699V77.1155C61.1504 77.4756 61.4369 77.7697 61.7872 77.7691Z" fill="white"/>
<path d="M67.7566 77.1038V76.5579C67.7564 76.1217 67.4117 75.7679 66.9872 75.7681L61.7859 75.7769C61.3621 75.7778 61.017 76.1337 61.0166 76.5699L61.0167 77.1151C61.017 77.5513 61.3617 77.9058 61.7861 77.905L66.9867 77.8961C67.4112 77.8952 67.7564 77.54 67.7566 77.1038ZM61.2819 77.1145L61.2819 76.5692C61.2821 76.2836 61.5086 76.0504 61.7859 76.0498L66.9872 76.041C67.2652 76.0405 67.491 76.2728 67.4914 76.5585L67.4914 77.1038C67.4911 77.3901 67.2649 77.6227 66.9874 77.6232L61.7861 77.6321C61.5081 77.6325 61.2823 77.4002 61.2819 77.1145Z" fill="#7698B3"/>
<path d="M61.5156 53.1953C58.1373 53.1953 55.3887 50.4467 55.3887 47.0684C55.3887 43.6899 58.1373 40.9414 61.5156 40.9414C64.8941 40.9414 67.6426 43.6899 67.6426 47.0684C67.6426 50.4467 64.8941 53.1953 61.5156 53.1953ZM61.5156 41.9491C58.6929 41.9491 56.3964 44.2456 56.3964 47.0684C56.3964 49.8911 58.6929 52.1875 61.5156 52.1875C64.3383 52.1875 66.6348 49.8911 66.6348 47.0684C66.6348 44.2456 64.3383 41.9491 61.5156 41.9491Z" fill="white"/>
<path d="M74.165 71.5131H73.1572V26.749H74.165V71.5131Z" fill="white"/>
<path d="M62.0205 41.4455H61.0127V26.7495H62.0205V41.4455Z" fill="white"/>
<path d="M62.0205 71.5132H61.0127V52.6914H62.0205V71.5132Z" fill="white"/>
<path d="M77.3902 65.1043H51.793V64.1973H77.3902V65.1043Z" fill="white"/>
<path d="M77.3902 58.866H51.793V57.959H77.3902V58.866Z" fill="white"/>
<path d="M73.6615 34.3084H51.793V33.4014H73.6615V34.3084Z" fill="white"/>
<path d="M65.7987 43.1824L65.0547 42.6638L67.7127 38.8506V33.855H68.6197V39.1354L65.7987 43.1824Z" fill="white"/>
<path d="M73.662 47.5722H67.1396V46.5645H73.662V47.5722Z" fill="white"/>
<path d="M68.62 58.0391H67.7129V52.2383H73.6613V53.1453H68.62V58.0391Z" fill="white"/>
<path d="M61.516 55.8187H51.793V54.9116H61.516V55.8187Z" fill="white"/>
<path d="M68.1668 39.4466H51.793V38.5396H68.1668V39.4466Z" fill="white"/>
<path d="M77.7451 40.7316H73.6602V39.8247H77.7451V40.7316Z" fill="white"/>
<path d="M77.7451 47.5217H73.6602V46.6147H77.7451V47.5217Z" fill="white"/>
<path d="M58.3652 64.6155H61.4949V58.4406H68.2618V52.6889L73.6615 52.6914V47.0684L67.1056 47.0683C67.1056 47.0683 67.1731 44.5604 65.3914 42.915L68.1668 38.9929L68.1667 33.8549H73.6615L73.6753 32.0498" stroke="#7698B3" stroke-width="0.3825" stroke-miterlimit="10"/>
<path d="M73.042 32.0587C73.042 31.7165 73.3194 31.439 73.6617 31.439C74.004 31.439 74.2813 31.7165 74.2813 32.0587C74.2813 32.401 74.004 32.6784 73.6617 32.6784C73.3194 32.6784 73.042 32.401 73.042 32.0587Z" fill="#EE6352"/>
<path d="M72.7383 52.5241C72.7383 52.1071 73.0763 51.769 73.4933 51.769C73.9103 51.769 74.2483 52.1071 74.2483 52.5241C74.2483 52.9411 73.9103 53.2792 73.4933 53.2792C73.0763 53.2792 72.7383 52.9411 72.7383 52.5241Z" fill="#EE6352"/>
<path d="M57.7148 64.6507C57.7148 64.3037 57.9962 64.0225 58.3432 64.0225C58.6902 64.0225 58.9715 64.3037 58.9715 64.6507C58.9715 64.9977 58.6902 65.279 58.3432 65.279C57.9962 65.279 57.7148 64.9977 57.7148 64.6507Z" fill="#EE6352"/>
<path d="M41.2 85.2341C41.0558 85.176 40.9097 85.1166 40.7639 85.054L40.7632 85.0539C39.5982 84.563 38.3711 83.9319 37.1972 83.1626C30.594 78.8358 27.3182 72.5452 25.7319 69.0614C25.1338 67.7501 24.776 66.8365 24.5697 66.5751C24.4629 66.4391 23.9261 67.2955 23.0702 68.8947C21.5816 71.6751 11.6442 95.9778 8.79688 101.944L42.3252 101.993L46.4776 86.1392L46.4776 86.1386L46.4821 86.1211L46.4855 86.1098C46.1176 86.5978 43.8691 86.2958 41.2 85.2341Z" fill="#7698B3"/>
<path d="M34.9887 67.6978C34.9887 67.6978 28.7273 70.8715 28.4638 68.4674C27.5594 60.2128 33.7693 55.4332 37.6263 52.255C40.1273 50.1941 54.7057 42.0299 55.6533 45.143C56.2286 47.0328 52.2517 50.2323 49.1591 53.1777C47.1571 55.0845 45.6862 57.037 45.5189 57.9443C45.1704 59.8336 45.4055 61.9807 44.5744 63.2122C41.4312 67.8699 34.9887 67.6978 34.9887 67.6978Z" fill="white"/>
<path d="M34.9877 67.9083C34.8719 67.9083 34.7778 67.8146 34.7773 67.6987C34.7768 67.5827 34.8707 67.4881 34.9868 67.4875C35.0415 67.4873 40.4865 67.4288 43.4332 64.3703C44.7505 63.0031 45.3827 61.23 45.3125 59.1003C45.2152 56.1445 48.0911 53.7557 50.8722 51.4456C53.4349 49.317 55.8553 47.3064 55.4458 45.183C55.4046 44.9693 55.2813 44.8302 55.0578 44.7451C53.9345 44.3177 50.7684 45.3538 46.143 47.6628C42.1502 49.6559 38.5144 51.872 37.4249 52.7056C37.3328 52.7762 37.2006 52.7586 37.13 52.6663C37.0594 52.5741 37.077 52.4421 37.1693 52.3714C38.2721 51.5277 41.9388 49.2911 45.955 47.2863C49.3025 45.6154 53.6252 43.7499 55.2074 44.3518C55.5651 44.4879 55.7902 44.7478 55.8588 45.1033C56.3155 47.4711 53.8021 49.5589 51.141 51.7693C48.4378 54.0147 45.6426 56.3365 45.7332 59.0864C45.8072 61.3348 45.1349 63.2113 43.7349 64.6636C42.8466 65.5851 41.1636 66.8248 38.1899 67.4978C36.4195 67.8984 35.046 67.9081 34.9884 67.9083H34.9877Z" fill="#7698B3"/>
</g>
</g>
<defs>
<clipPath id="clip0_276_5453">
<rect width="102" height="102" fill="white"/>
</clipPath>
</defs>
</svg>
