<svg width="122" height="122" viewBox="0 0 122 122" fill="none" xmlns="http://www.w3.org/2000/svg">
<g clip-path="url(#clip0_246_408)">
<mask id="mask0_246_408" style="mask-type:luminance" maskUnits="userSpaceOnUse" x="0" y="0" width="122" height="122">
<path d="M122 0H0V122H122V0Z" fill="white"/>
</mask>
<g mask="url(#mask0_246_408)">
<path d="M111.993 92.6822C109 93.6893 105.717 98.2622 104.451 100.564H80.7708C78.9005 96.7084 73.7564 97.778 73.0082 98.2958C72.2889 98.8138 67.6851 98.9863 70.7063 95.4184C74.4469 91.0162 81.001 93.3131 83.4467 94.7229C83.3893 94.1187 82.6123 92.306 79.85 89.9753C76.9727 87.5295 78.8142 85.6882 81.8929 86.8967C84.6841 87.9901 87.475 92.8815 87.475 92.8815C87.475 92.8815 88.8934 84.0488 91.6845 80.2219C94.3604 76.5388 96.4321 79.2722 95.3962 82.0057C94.5042 84.3364 93.7764 87.9901 93.8052 89.6014C95.7618 87.0692 101.098 82.1735 106.162 80.7349C111.715 79.1523 112.607 83.123 109.384 84.1588C106.162 85.2235 99.042 94.2626 99.042 94.2626C99.042 94.2626 105.116 90.0349 111.446 91.6463C112.511 91.9916 112.741 92.452 111.993 92.6822Z" fill="#EBEBEB"/>
<path d="M36.8953 108.935L17.4394 108.937C13.8714 100.333 22.1582 101.239 24.2587 103.281C22.4172 100.893 22.4172 94.1028 26.3016 92.5491C33.315 89.8289 36.0896 101.915 36.8953 108.935Z" fill="#F8F8F8"/>
<path d="M32.1121 56.4824C31.5366 56.3386 30.9612 56.2235 30.3282 56.1372C28.5154 55.7919 26.4437 55.4178 24.1994 54.4395C24.0843 54.382 22.9046 53.5188 23.998 52.4541C23.998 52.4541 23.0197 52.1376 23.1923 51.332C23.3074 50.699 23.7678 50.5551 24.1418 50.5551C24.0555 50.5263 23.5088 50.3249 23.7102 49.6919C23.9692 48.8862 24.5447 48.7136 24.9763 48.8287C24.9475 48.7999 24.5734 48.5985 24.7461 48.023C24.8324 47.7928 25.2065 47.4763 26.0121 47.5339C27.422 47.6777 29.1197 48.2532 29.1197 48.2532C29.1197 48.2532 29.2635 47.6777 29.6376 47.1886C30.5583 45.8938 31.3928 46.0089 32.1984 46.5556C33.522 47.4188 33.3494 49.3754 33.3494 49.3754C33.3494 49.3754 34.4715 49.8357 35.1621 50.1235C35.2484 50.1523 35.3635 50.2098 35.4499 50.2673C35.4499 50.2673 35.4499 50.2961 35.4786 50.2961C37.9244 53.231 34.5866 56.6263 32.1121 56.4824Z" fill="#DFA391"/>
<path d="M33.0622 56.8565C33.0334 57.0004 32.1414 56.7702 31.8824 56.2523C31.6235 55.7056 33.2348 49.6343 33.7815 49.5192C34.3282 49.4041 35.0475 49.6631 35.0475 49.6631C35.0475 49.6631 33.0622 56.7414 33.0622 56.8565Z" fill="#4879BB"/>
<path d="M54.3254 32.0536C54.0377 32.3701 53.7787 32.7154 53.5485 33.0607C53.2896 33.4635 53.0594 33.8664 52.8867 34.298C51.966 36.3984 51.9372 38.7579 51.7646 41.031C51.5919 43.6494 51.5919 46.2678 51.4481 48.8574C51.4193 49.2602 51.4481 52.1376 50.6424 52.0513C45.0891 51.3607 41.9815 50.181 39.5646 49.6343C37.3202 49.1451 34.932 48.2244 34.3565 49.8357C33.8962 51.1305 31.6231 57.3168 33.2919 58.1224C36.6297 59.7625 55.4188 64.7978 58.958 64.021C63.907 62.8988 66.8419 40.8296 66.065 33.9815C65.8061 31.622 64.54 29.5216 62.0367 29.1475C59.1882 28.6871 56.2245 29.9244 54.3254 32.0536Z" fill="#5D95E6"/>
<path d="M27.538 45.232C27.9121 45.1457 28.2861 45.3759 28.3724 45.7499L30.9908 56.3098C31.0771 56.6839 30.847 57.0579 30.4729 57.1443C30.0988 57.2306 29.7248 57.0004 29.6385 56.6263L27.0201 46.0664C26.9338 45.6924 27.1639 45.3183 27.538 45.232Z" fill="#5D95E6"/>
<path d="M28.5164 53.7775C28.5164 54.9572 27.2503 54.9572 26.5885 54.8133C26.5597 54.8709 26.272 54.8709 25.4088 54.4968C24.5744 54.094 25.9267 49.778 26.7324 47.6775C27.7107 47.7926 28.6027 48.1954 28.948 48.368C30.6168 44.944 31.5664 47.0157 31.8541 48.4544C31.48 48.9435 30.5593 49.9506 29.8399 50.0369C29.2069 50.0945 28.948 49.6629 28.8616 49.3751L28.948 49.9218C29.2932 50.3246 28.8329 50.9001 28.4013 51.2166C29.1206 51.936 28.5164 52.828 28.1423 53.1445C28.3725 53.3747 28.5164 53.4897 28.5164 53.7775Z" fill="#DFA391"/>
<path d="M28.919 48.3394C28.3723 49.4903 29.5808 50.2672 30.3002 49.9219C31.0195 49.5766 31.7676 48.4832 31.7676 48.4832" stroke="#424D51" stroke-width="0.287736" stroke-linecap="round" stroke-linejoin="round"/>
<path d="M28.5157 51.1016C28.5157 51.1016 29.5516 50.3823 28.5733 49.5479C27.8827 48.9436 25.6671 48.7134 24.9766 48.7997" stroke="#424D51" stroke-width="0.287736" stroke-linecap="round" stroke-linejoin="round"/>
<path d="M28.2567 53.0007C28.2567 53.0007 29.4939 51.7347 28.0265 51.0153C27.2496 50.6413 24.5449 50.4399 24.1133 50.5262" stroke="#424D51" stroke-width="0.287736" stroke-linecap="round" stroke-linejoin="round"/>
<path d="M25.4376 54.5544C25.4376 54.5544 26.6461 54.8421 27.7395 54.7846C28.2287 54.7558 28.4876 54.353 28.5164 53.8638C28.574 52.31 24.373 52.3676 23.9414 52.569" stroke="#424D51" stroke-width="0.287736" stroke-linecap="round" stroke-linejoin="round"/>
<path d="M52.6565 52.3964L51.2178 51.9648L51.3041 52.8568" stroke="#424D51" stroke-width="0.287736" stroke-linecap="round" stroke-linejoin="round"/>
<path d="M70.3331 100.593L80.3463 99.9311C80.1449 88.8819 79.9435 77.8329 79.627 66.7551C79.627 63.3598 79.3105 59.9069 79.109 56.5404C78.9364 53.548 78.9939 50.2678 78.2458 47.3041C78.0157 46.4122 61.96 45.9806 61.6435 46.3258C60.809 47.1316 60.2911 48.3974 59.7732 49.4045C58.8524 51.1884 57.9604 52.9724 57.0972 54.7851C55.5147 58.0941 53.9321 61.4318 52.4935 64.7984C51.285 67.6469 49.9326 70.8697 49.9326 74.0059C49.9615 76.7969 54.0185 100.593 54.0185 100.593L64.0029 99.5856C64.0029 99.5856 61.1543 77.0847 60.7516 73.862C60.6364 72.8838 61.5284 71.3875 61.9025 70.5243C63.0535 67.6757 64.377 64.9135 65.7005 62.1513C66.2472 61.0579 66.7652 59.9358 67.3119 58.8423C67.4845 58.4971 68.0888 57.6913 68.06 57.2884C68.9232 71.7329 69.7576 86.1484 70.3331 100.593Z" fill="#DFA391"/>
<path d="M62.9673 89.1113L51.8799 90.2335L53.942 101.484L64.4348 100.822L62.9673 89.1113Z" fill="#CAE3FB"/>
<path d="M69.6084 89.8454L80.3362 89.7734L80.4321 100.794L70.1887 100.938L69.6084 89.8454Z" fill="#CAE3FB"/>
<path d="M63.6854 100.046C63.6854 100.046 64.7212 100.103 64.8363 100.938C64.8938 101.484 64.6061 101.772 64.2896 102.002C64.2896 102.002 64.75 102.29 65.124 103.009C65.5269 103.729 66.1599 105.11 65.7858 106.002C65.6132 106.405 55.3986 105.973 55.3986 105.973L44.666 106.117C44.666 106.117 45.0976 103.988 47.5721 103.355C49.7877 102.779 50.2769 102.75 51.3703 102.635C52.0608 102.549 52.6075 102.261 52.8953 101.715C53.3269 100.88 53.5571 100.449 54.6792 100.19C55.5424 99.9595 62.2179 99.8156 63.6854 100.046Z" fill="#92BDF9"/>
<path d="M65.8157 106.059C66.1323 105.742 63.9742 102.577 61.6436 102.347C59.4856 102.146 57.9606 104.016 56.5506 104.361C55.6299 104.591 54.1912 104.591 52.9539 104.591C52.4073 104.591 45.5016 104.62 45.5016 104.62C45.5016 104.62 43.8615 105.829 44.6095 106.462C45.0124 106.836 65.528 106.375 65.8157 106.059Z" fill="#4879BB"/>
<path d="M70.7939 100.305C70.7939 100.305 69.7868 100.362 69.6718 101.197C69.6142 101.743 69.9307 102.031 70.2184 102.261C70.2184 102.261 69.758 102.549 69.3841 103.297C69.0099 104.016 68.3769 105.398 68.7509 106.289C68.9235 106.692 79.1382 106.146 79.1382 106.146L89.8707 106.203C89.8707 106.203 89.4105 104.074 86.936 103.47C84.7203 102.923 84.2311 102.894 83.1377 102.779C82.4471 102.722 81.8717 102.434 81.584 101.858C81.1524 101.024 80.692 100.679 79.7713 100.333C78.3613 99.8154 72.2902 100.046 70.7939 100.305Z" fill="#92BDF9"/>
<path d="M68.7491 106.347C68.4326 106.031 70.5619 102.837 72.8925 102.606C75.0505 102.376 76.6043 104.247 78.0143 104.563C78.935 104.764 80.3737 104.764 81.611 104.764C82.1576 104.764 89.0633 104.736 89.0633 104.736C89.0633 104.736 90.7034 105.915 89.984 106.577C89.5524 106.923 69.0369 106.635 68.7491 106.347Z" fill="#4879BB"/>
<path d="M68.2834 66.3584L79.8704 65.6683C79.8704 65.6683 78.9503 49.8835 78.2891 47.2383C78.059 46.347 61.843 45.7432 61.4979 46.0882C60.0316 47.5259 53.3037 62.103 53.3037 62.103L63.9418 66.2146L68.1109 57.244L68.2834 66.3584Z" fill="#FFB6A9"/>
<path d="M55.462 103.333C56.0657 103.419 56.6121 103.046 56.6983 102.471C56.7846 101.896 56.3821 101.349 55.7782 101.263C55.1744 101.177 54.6282 101.55 54.5419 102.125C54.4557 102.7 54.8582 103.247 55.462 103.333Z" fill="#CAE3FB"/>
<path d="M79.1524 103.535C78.5486 103.621 78.0023 103.247 77.9159 102.672C77.8297 102.097 78.2323 101.551 78.8073 101.464C79.4111 101.378 79.9575 101.752 80.0437 102.327C80.1586 102.902 79.7562 103.448 79.1524 103.535Z" fill="#CAE3FB"/>
<path d="M135.013 14.7882C134.295 12.1719 133.317 9.69915 132.138 7.62909C130.96 5.5876 129.522 3.94885 127.94 3.05754C126.33 2.16623 124.519 2.05114 122.679 3.08622C120.868 4.09262 118.999 6.16269 117.158 9.55548V9.58416V9.61293C115.405 14.0119 112.156 20.0499 108.102 23.9889C106.29 25.7715 104.335 27.0654 102.294 27.6404C102.409 26.5765 102.466 25.4552 102.495 24.2477C102.581 20.8262 101.287 18.526 99.4473 17.2034C97.636 15.8809 95.3359 15.5646 93.4383 15.9959C91.5406 16.4272 89.9593 17.6635 89.7579 19.5611C89.5567 21.4587 90.7643 23.7876 93.9845 26.3465C96.4859 28.3591 99.0161 28.9918 101.431 28.618C101.029 32.0107 100.31 34.6558 99.4473 36.5534C97.9523 36.0935 96.6297 36.0935 95.5947 36.381C94.6458 36.6684 93.8982 37.2148 93.6107 37.9336C93.3232 38.6811 93.5245 39.5437 94.2145 40.2625C94.5596 40.6362 94.962 40.8662 95.4221 40.9812C95.8821 41.0675 96.3422 41.01 96.8022 40.8374C97.7223 40.4637 98.6136 39.5724 99.4186 38.2498C99.5623 38.0197 99.7061 37.7611 99.8499 37.5022C100.885 37.9048 102.064 38.5373 103.271 39.5149C104.824 40.7512 105.687 41.8151 106.089 42.6488C106.492 43.4827 106.463 44.1152 106.262 44.604C106.06 45.1215 105.6 45.4953 105.112 45.7828C104.623 46.0703 104.076 46.2141 103.731 46.2429C103.559 46.2429 103.329 46.2429 103.041 46.2716C102.093 46.3003 100.626 46.3866 99.0161 46.7028C98.8148 46.3003 98.556 45.9265 98.2974 45.5241C95.8533 41.9301 91.3393 38.5086 86.739 36.2947C86.164 36.0072 85.5603 35.7484 84.9852 35.5184C85.0714 31.9819 84.2951 27.8417 83.0012 24.0464C82.1387 21.4875 80.9887 19.0723 79.6661 17.0884C78.3435 15.1332 76.8196 13.5807 75.1808 12.8044C73.5131 11.9993 71.7305 12.0281 69.948 13.1782C68.1941 14.3282 66.469 16.5134 64.8588 20.0211V20.0499V20.0787C63.4212 24.564 60.5748 30.8318 56.7796 35.0296C55.0832 36.8985 53.2143 38.3648 51.2304 39.0548C51.2592 37.9911 51.2592 36.8698 51.2016 35.6621C51.0579 32.2694 49.6203 30.0555 47.6939 28.848C45.7963 27.6691 43.4674 27.4678 41.5985 28.0429C39.7584 28.5892 38.2345 29.9405 38.1771 31.8381C38.1195 33.7071 39.4997 35.9497 42.8636 38.3074C45.5088 40.1475 48.0677 40.6075 50.4541 40.0612C50.2816 43.4827 49.7353 46.1565 49.0166 48.1117C47.4927 47.7667 46.1701 47.8529 45.1638 48.198C44.2437 48.5142 43.5537 49.118 43.2948 49.8655C43.0362 50.642 43.2948 51.4469 44.0425 52.1369C44.4162 52.482 44.8475 52.712 45.3076 52.7696C45.7675 52.827 46.2276 52.7408 46.6876 52.5396C47.5502 52.1083 48.3839 51.1595 49.1028 49.7793C49.2466 49.5493 49.3616 49.2906 49.4766 49.003C50.5691 49.3193 51.7767 49.8943 53.0418 50.7856C54.6806 51.9357 55.6007 52.9133 56.0607 53.7183C56.5207 54.5234 56.5207 55.156 56.3483 55.6447C56.1757 56.1335 55.7732 56.5648 55.2844 56.881C54.7956 57.1973 54.2781 57.3699 53.9331 57.4273C53.7606 57.4561 53.5306 57.4849 53.2431 57.5137C52.2943 57.6286 50.7704 57.8011 49.1603 58.2611C47.0614 58.865 44.7037 59.9288 43.0074 61.9989C42.7486 62.3152 42.5761 62.6602 42.4611 63.034C40.736 62.2577 38.7521 62.2289 37.4582 63.5803C36.1357 64.9316 35.6181 67.4905 36.5382 71.5158C37.2282 74.6498 38.8096 76.7198 40.9372 77.9275C38.5221 80.3426 36.3082 81.9528 34.4393 82.9016C33.548 81.6077 32.5129 80.7739 31.5354 80.3713C30.6153 79.9976 29.6952 79.9689 29.0052 80.3426C28.2863 80.7452 27.9414 81.5215 28.0277 82.5278C28.0564 83.0453 28.2289 83.4765 28.5164 83.8504C28.8327 84.1953 29.2064 84.4542 29.6952 84.598C30.6441 84.8854 31.8804 84.7417 33.3468 84.1953C33.6055 84.0803 33.8643 83.9653 34.1517 83.8504C34.7556 84.8279 35.2444 86.0355 35.5894 87.5594C36.0207 89.4857 36.0494 90.8371 35.8481 91.7571C35.6469 92.6484 35.2156 93.1085 34.7556 93.3672C34.2668 93.626 33.6917 93.6547 33.1168 93.5685C32.5704 93.4823 32.0529 93.281 31.7654 93.0797C31.6216 92.9935 31.4204 92.8497 31.1904 92.6772C30.3853 92.1022 29.149 91.2109 27.6539 90.4632C25.6987 89.4569 23.226 88.6519 20.5809 89.0545C19.1146 89.2557 18.1657 90.4345 17.7057 91.9009C17.2456 93.3672 17.2744 95.1786 17.8495 96.8174C18.4245 98.4851 19.5458 100.009 21.3284 100.843C23.0824 101.705 25.44 101.849 28.4301 100.843C30.0403 100.325 31.3628 100.038 32.4554 99.9227C32.4554 100.325 32.4842 100.728 32.5417 101.102C32.6854 101.878 32.9442 102.51 33.2892 103.028C33.6055 103.517 34.0081 103.919 34.3818 104.092C35.4744 104.609 36.4519 104.379 37.0558 103.718C37.6595 103.085 37.8895 102.108 37.5445 101.217C37.1995 100.297 36.3082 99.549 34.7843 99.2615C34.3531 99.1751 33.8643 99.1464 33.318 99.1464C33.4905 98.2838 33.9505 97.3637 34.8131 96.415C36.1645 94.9487 37.6308 93.9424 39.6147 93.6547C39.6434 93.626 39.7009 93.626 39.7297 93.626C39.5859 96.6162 40.5348 99.6064 41.1672 101.59C41.3973 102.309 41.8285 102.798 42.3749 103.085C42.9211 103.373 43.5824 103.43 44.2437 103.373C45.5663 103.258 47.0614 102.539 48.2403 101.59C49.419 100.641 50.3966 99.4052 50.5404 98.1113C50.6266 97.4788 50.4829 96.8175 50.0803 96.2137C49.6779 95.6099 49.0166 95.0923 48.0677 94.6898C44.9912 93.3672 42.5761 92.7922 40.5635 92.8497C40.621 92.4759 40.6785 92.131 40.7648 91.7571C41.1672 90.0896 42.0585 88.537 43.7549 87.3006C45.4513 86.0355 47.9527 85.1154 51.6329 84.7129C55.342 84.3392 57.3546 84.7417 58.3897 85.518C59.3672 86.2655 59.5685 87.4156 59.3097 88.882C59.1084 90.0033 58.6772 91.2109 58.2747 92.3896C58.1597 92.7634 58.0159 93.1373 57.9009 93.5109C57.6421 94.2585 57.412 95.0061 57.3258 95.6674C57.2108 96.3287 57.2108 96.9612 57.4696 97.5075C58.6197 99.9514 60.086 101.303 61.7536 101.677C63.4212 102.079 65.2038 101.475 66.9002 100.297C70.3217 97.9387 73.6568 93.1661 75.8133 88.1919C76.9058 85.7193 77.7109 83.1603 78.056 80.8026C78.4009 78.4738 78.3147 76.3174 77.6247 74.621C77.3084 73.8735 76.9058 73.2409 76.3596 72.7234C76.6758 72.3783 76.9346 72.0046 77.1647 71.6308C79.4935 74.1322 81.0174 76.4036 81.9087 78.3012C80.5862 79.1639 79.7235 80.1414 79.2635 81.1189C78.861 82.039 78.7748 82.9591 79.1484 83.6491C79.5223 84.3679 80.2985 84.7705 81.3049 84.7129C81.7937 84.6842 82.2537 84.5404 82.6276 84.2529C83.0012 83.9654 83.26 83.5629 83.4325 83.1028C83.7488 82.154 83.6626 80.8889 83.1738 79.4226C83.0875 79.1639 82.9725 78.905 82.8575 78.6175C83.8638 78.0712 85.1002 77.6112 86.624 77.3237C88.5791 76.9499 89.9017 76.9786 90.8218 77.2087C91.7131 77.4387 92.1731 77.8699 92.4032 78.3588C92.6332 78.8475 92.662 79.4226 92.547 79.9976C92.4319 80.5726 92.2019 81.0615 92.0006 81.349C91.8857 81.4927 91.7419 81.6653 91.5693 81.8952C90.9943 82.6716 90.0456 83.8792 89.2404 85.3455C88.2054 87.2719 87.3141 89.7157 87.6016 92.3609C87.7741 93.8273 88.9242 94.8336 90.3617 95.3511C91.7994 95.84 93.6107 95.8974 95.2783 95.3799C96.946 94.8623 98.4985 93.7698 99.4186 92.0446C100.31 90.3196 100.54 87.9619 99.6487 84.9429C99.1887 83.4191 98.9298 82.1828 98.786 81.1765C99.0449 81.1477 99.3036 81.1189 99.5336 81.0902C100.482 80.9464 101.345 80.6302 102.006 80.2852C102.323 80.1126 102.61 79.9113 102.811 79.6813C103.013 79.4801 103.185 79.1925 103.156 78.8762C103.156 78.5888 102.955 78.3012 102.754 78.0712C102.524 77.8125 102.236 77.5825 101.92 77.3525C101.287 76.9212 100.425 76.5474 99.6199 76.6912C99.2174 76.7775 98.8148 76.9786 98.5273 77.3525C98.2398 77.6975 98.0385 78.215 97.9523 78.8762C97.8947 79.3076 97.8947 79.7963 97.9235 80.4002C96.6584 80.3139 95.4509 79.8251 94.7608 78.7038C93.6683 76.9786 92.8632 75.3973 92.7194 73.3847V73.3559C95.7096 73.6147 98.7574 72.7809 100.77 72.2058C101.489 72.0046 101.978 71.6021 102.294 71.0558C102.581 70.5382 102.696 69.8769 102.639 69.2157C102.553 67.8931 101.92 66.3692 101 65.1616C100.109 63.9541 98.8724 62.9477 97.6072 62.7465C96.946 62.6602 96.2847 62.7465 95.6808 63.149C95.077 63.5227 94.5308 64.184 94.0995 65.1041C92.6044 68.1518 92.0006 70.5382 91.9431 72.5221C91.5981 72.4646 91.2243 72.3783 90.8793 72.2921C89.2404 71.8321 87.7166 70.8833 86.5377 69.1581C85.3589 67.4331 84.4964 64.8741 84.2376 61.1939C83.9789 57.4849 84.4964 55.5585 85.3302 54.6097C86.1353 53.7184 87.314 53.6321 88.8092 53.9771C89.8155 54.2071 90.8793 54.6384 91.9431 55.041C92.1731 55.156 92.4319 55.2422 92.662 55.3285C93.2657 56.3348 94.1858 57.2549 95.2496 57.9449C96.7447 58.865 98.5848 59.3538 100.482 58.9225C102.38 58.4624 104.335 57.1111 106.032 54.466C106.952 53.0283 107.814 51.9933 108.59 51.2169C108.82 51.5619 109.108 51.8495 109.396 52.1083C109.971 52.6258 110.603 52.942 111.178 53.1433C111.724 53.3158 112.299 53.3733 112.702 53.2871C113.852 53.0283 114.456 52.2233 114.542 51.3319C114.628 50.4694 114.197 49.5493 113.363 49.0606C112.501 48.543 111.322 48.5142 109.971 49.2331C109.568 49.4343 109.166 49.7219 108.734 50.0669C108.36 49.2618 108.13 48.2555 108.217 46.9904C108.36 44.9778 108.878 43.2814 110.258 41.8151L110.344 41.7289C112.098 44.144 114.715 45.8979 116.44 47.0479C117.044 47.4505 117.676 47.5655 118.309 47.4505C118.912 47.3067 119.459 46.9616 119.947 46.5016C120.896 45.5528 121.615 44.0865 121.96 42.5914C122.305 41.125 122.276 39.5437 121.586 38.4512C121.241 37.8761 120.724 37.4448 120.034 37.2435C119.344 37.0423 118.51 37.071 117.504 37.3298C114.283 38.1923 112.012 39.2561 110.488 40.55C110.316 40.2337 110.114 39.9175 109.971 39.5724C109.252 38.0198 108.993 36.2372 109.539 34.2246C110.086 32.1832 111.466 29.8831 114.082 27.2954C116.727 24.679 118.567 23.7301 119.861 23.7013C121.098 23.6727 121.96 24.449 122.679 25.7428C123.225 26.7204 123.656 27.9279 124.059 29.1067C124.203 29.4805 124.318 29.8543 124.462 30.2281C124.72 30.9756 125.008 31.6945 125.353 32.2694C125.669 32.8444 126.1 33.362 126.618 33.6207C129.033 34.8284 131.017 34.9721 132.57 34.2246C134.122 33.4771 135.128 31.9244 135.617 29.7967C136.796 25.8577 136.422 20.0211 135.013 14.7882ZM98.8724 37.9623C98.1248 39.2274 97.3197 39.9462 96.6296 40.2337C96.2847 40.3488 95.9683 40.3776 95.6808 40.32C95.3933 40.2337 95.1058 40.0899 94.847 39.8025C94.3296 39.2274 94.2433 38.7098 94.4158 38.2786C94.5884 37.8473 95.1058 37.4161 95.9109 37.1861C96.7447 36.956 97.8947 36.956 99.2174 37.3298C99.1024 37.5599 98.9874 37.7611 98.8724 37.9623ZM48.4702 49.5206C47.8089 50.8432 47.0614 51.6195 46.4001 51.9357C46.0551 52.1083 45.7675 52.137 45.4801 52.1083C45.1926 52.0508 44.905 51.9357 44.6175 51.6483C44.0425 51.1307 43.9275 50.5844 44.0712 50.1531C44.1862 49.7219 44.6462 49.2618 45.4513 48.9743C46.2851 48.6868 47.4065 48.6006 48.7578 48.888C48.6716 49.1181 48.5565 49.3193 48.4702 49.5206ZM33.088 83.5916C31.7079 84.1092 30.6441 84.1954 29.9253 83.9654C29.5802 83.8504 29.3214 83.6779 29.1202 83.4479C28.9477 83.2179 28.8039 82.9303 28.7752 82.5278C28.7177 81.7515 28.9764 81.2915 29.379 81.0615C29.8103 80.8602 30.4715 80.8314 31.2478 81.1477C32.0529 81.4928 32.9442 82.1828 33.7493 83.3328C33.5193 83.4191 33.318 83.5341 33.088 83.5916ZM94.8184 65.4491C95.2209 64.6154 95.6809 64.0977 96.1409 63.8103C96.601 63.5227 97.061 63.4365 97.5498 63.5227C98.5273 63.6665 99.5911 64.5004 100.454 65.6504C101.287 66.8004 101.891 68.1518 101.949 69.3019C101.978 69.8769 101.891 70.3658 101.69 70.7395C101.46 71.0845 101.115 71.372 100.597 71.5158C98.5273 72.0908 95.5659 72.8959 92.7482 72.6372C92.777 70.7682 93.352 68.4969 94.8184 65.4491ZM110.373 49.9231C111.581 49.2906 112.472 49.3769 113.018 49.7219C113.593 50.0669 113.91 50.6994 113.852 51.2745C113.795 51.8208 113.45 52.367 112.587 52.5683C112.357 52.597 111.954 52.597 111.466 52.4245C110.977 52.252 110.431 51.9645 109.942 51.5333C109.683 51.3033 109.424 51.0157 109.194 50.6994C109.626 50.3544 110.028 50.0669 110.373 49.9231ZM117.791 38.0198C118.682 37.7611 119.372 37.7898 119.89 37.9336C120.379 38.0774 120.753 38.3936 121.011 38.7962C121.529 39.6587 121.615 41.01 121.299 42.3901C120.982 43.7989 120.292 45.1215 119.487 45.9266C119.056 46.3292 118.654 46.5879 118.222 46.6742C117.791 46.7604 117.36 46.7029 116.9 46.3866C115.117 45.2078 112.587 43.4827 110.948 41.1825C112.357 39.975 114.513 38.9112 117.791 38.0198ZM94.5596 25.8577C91.4256 23.3276 90.4768 21.2287 90.6206 19.7337C90.7643 18.296 92.0006 17.2322 93.7258 16.8296C95.4221 16.4559 97.521 16.7434 99.1311 17.9223C100.741 19.101 101.949 21.1425 101.863 24.334C101.805 25.5991 101.748 26.8066 101.633 27.9279C99.361 28.3304 97.0034 27.8129 94.5596 25.8577ZM43.3236 37.7323C40.0172 35.4321 38.9246 33.3907 38.9822 31.8957C39.0396 30.4293 40.1897 29.2793 41.8861 28.7904C43.5537 28.2729 45.6525 28.4454 47.3489 29.5093C49.0166 30.5731 50.3679 32.557 50.4829 35.7485C50.5404 37.0135 50.5404 38.2211 50.5116 39.3425C48.2978 39.8887 45.8825 39.5437 43.3236 37.7323ZM43.5824 62.574C45.135 60.6764 47.3202 59.67 49.3616 59.095C50.9142 58.6637 52.323 58.4912 53.3006 58.3762C53.6169 58.3474 53.8756 58.3186 54.0769 58.29C54.5369 58.2324 55.1407 58.0024 55.7157 57.6287C56.2907 57.2549 56.837 56.7374 57.0958 56.0185C57.3546 55.271 57.2971 54.4084 56.7508 53.4596C56.2045 52.5108 55.1695 51.4469 53.5018 50.2969C52.208 49.4056 50.943 48.8018 49.7928 48.428C50.5692 46.3292 51.1154 43.5115 51.2592 39.975C53.5306 39.2561 55.572 37.6749 57.4121 35.6621C61.2936 31.3494 64.1688 24.9952 65.6639 20.4524C67.2452 17.0022 68.8841 14.9608 70.4654 13.9545C72.0181 12.9482 73.5419 12.9482 74.9794 13.6095C76.4459 14.2995 77.8835 15.7371 79.1485 17.6347C80.4136 19.5323 81.5349 21.89 82.3975 24.4202C83.6626 28.0717 84.3814 32.0107 84.3526 35.3747C82.8862 34.8284 81.4199 34.3971 80.0399 34.1958C77.9122 33.8508 75.9283 33.9371 74.4045 34.6558C73.6282 35.0296 72.9956 35.5471 72.5068 36.2085C72.3631 35.9209 72.1905 35.6621 72.0467 35.4034C71.1842 34.0808 70.0629 33.0458 68.3953 33.2182C66.814 33.362 64.8588 34.6271 62.3862 37.4161C59.8847 40.2337 58.5909 42.7638 58.1309 44.9778C57.6709 47.2205 58.1021 49.1468 58.9934 50.7857C59.2234 51.1882 59.4535 51.5619 59.7122 51.9357C59.6547 52.022 59.5973 52.0795 59.5397 52.1658C58.1309 53.8909 57.6996 55.8173 57.6996 57.9449C57.6996 59.4401 58.0733 60.6188 58.6484 61.5389C57.8147 62.4302 56.9808 63.6091 56.0895 65.1904C54.6231 67.8067 52.9268 69.1294 51.2879 69.6469C49.6779 70.0495 48.0965 69.7907 46.7164 69.1007C46.6876 68.6981 46.6014 68.2956 46.4863 67.8931C45.9689 65.9667 44.6462 64.414 43.1224 63.4941C43.2086 63.149 43.3524 62.8327 43.5824 62.574ZM84.3239 36.0935C84.2664 37.0998 84.1513 38.0198 83.9789 38.8824C83.5475 40.8088 82.7138 42.1889 81.4775 42.9076C80.2699 43.5977 78.5447 43.6552 76.1871 42.6776C75.8421 42.5338 75.497 42.2176 75.152 41.7001C74.807 41.1825 74.4907 40.55 74.1745 39.8312C74.0307 39.5149 73.8869 39.1699 73.7431 38.7962C73.4557 38.1923 73.1681 37.5599 72.8806 36.9272C73.3119 36.1797 73.9444 35.6335 74.7207 35.2597C76.0433 34.6271 77.8547 34.5121 79.9249 34.8571C81.3049 35.0871 82.8001 35.5184 84.3239 36.0935ZM45.7675 68.0943C45.8251 68.2668 45.8539 68.4106 45.8825 68.5831C44.79 67.8355 43.9562 66.8292 43.4674 65.823C43.2374 65.3054 43.0936 64.8167 43.0648 64.3566C44.3012 65.1904 45.3363 66.513 45.7675 68.0943ZM37.2858 71.4583C36.3945 67.5193 36.9694 65.2767 38.0045 64.2128C39.0108 63.149 40.6497 63.0915 42.2311 63.8678C42.2599 63.8678 42.2886 63.8966 42.3174 63.8966C42.2599 64.6441 42.4611 65.4204 42.8348 66.1392C43.4386 67.4618 44.5888 68.7268 46.0263 69.5607C46.0551 71.1709 45.4801 72.9535 43.9275 74.8223C43.0936 75.7999 42.2886 76.6912 41.5122 77.4962C39.4997 76.4036 37.9758 74.506 37.2858 71.4583ZM34.6693 100.124C35.9919 100.383 36.6245 100.987 36.8544 101.619C37.0844 102.252 36.912 102.942 36.5382 103.344C36.1645 103.747 35.5318 103.948 34.7556 103.574C34.5544 103.459 34.2381 103.2 33.9505 102.769C33.6343 102.309 33.4042 101.763 33.2892 101.102C33.2318 100.756 33.203 100.383 33.2318 100.009C33.778 100.009 34.2668 100.038 34.6693 100.124ZM47.7803 95.4373C48.6428 95.8112 49.1603 96.2424 49.4766 96.6737C49.7641 97.105 49.8791 97.5651 49.8216 98.0538C49.7066 99.0601 48.9302 100.153 47.8089 101.044C46.7164 101.935 45.3363 102.568 44.2149 102.683C43.6399 102.74 43.1512 102.683 42.7773 102.482C42.3749 102.309 42.0873 101.964 41.9148 101.447C41.2535 99.4052 40.3622 96.5012 40.506 93.6547C42.3749 93.5973 44.7037 94.1148 47.7803 95.4373ZM76.9346 74.966C77.5672 76.4612 77.6534 78.4738 77.3085 80.7452C76.9634 83.0165 76.1871 85.518 75.1233 87.9619C72.9956 92.8785 69.7467 97.5075 66.4977 99.7501C64.8876 100.843 63.335 101.332 61.9549 101.015C60.5748 100.728 59.2522 99.6064 58.1884 97.2775C58.0447 96.9325 58.0159 96.4724 58.1021 95.8687C58.1884 95.2649 58.3897 94.5748 58.6484 93.8273C58.7634 93.4823 58.9072 93.1373 59.0222 92.7634C59.4247 91.5559 59.8847 90.262 60.086 89.0832C60.3448 87.5306 60.201 86.0067 58.8784 85.0005C57.6133 84.023 55.342 83.6491 51.6042 84.0516C47.8377 84.4542 45.1926 85.4317 43.3524 86.7831C41.5122 88.1344 40.5347 89.8595 40.0747 91.6709C39.9597 92.1022 39.9021 92.5334 39.8447 92.9935C39.7584 92.9935 39.6434 93.0223 39.5572 93.0223C37.3432 93.3386 35.7044 94.4886 34.2955 96.0412C33.2892 97.1625 32.7717 98.2838 32.5704 99.3189C31.3916 99.4052 29.9253 99.7213 28.2289 100.297C25.3824 101.274 23.226 101.102 21.6735 100.354C20.1209 99.6064 19.1146 98.255 18.597 96.76C18.0795 95.2361 18.0507 93.5973 18.4533 92.3035C18.8558 91.0096 19.6608 90.1183 20.7246 89.9745C23.1398 89.6296 25.44 90.3484 27.3376 91.2971C28.7752 92.016 29.9541 92.8497 30.7303 93.4247C30.989 93.5973 31.1904 93.741 31.3628 93.856C31.7654 94.0861 32.3691 94.3448 33.0304 94.4598C33.6917 94.5748 34.4393 94.546 35.1294 94.2011C35.8194 93.8273 36.3657 93.1661 36.5957 92.0734C36.8258 90.9809 36.797 89.5145 36.3369 87.5306C35.9631 85.978 35.4457 84.6842 34.8418 83.6491C36.797 82.6428 39.1259 80.9177 41.6273 78.4163C43.7837 79.4226 46.3714 79.6238 49.074 79.3651C53.8181 78.905 59.0222 76.9499 63.0187 74.9661C64.4275 76.0873 66.8714 76.5474 70.5804 75.8573C72.8518 75.4549 74.577 74.5635 75.8421 73.3271C76.3022 73.7872 76.6758 74.3335 76.9346 74.966ZM63.7951 74.5922C64.3701 74.3047 64.9164 73.9886 65.4339 73.7009C68.9416 72.2345 71.5005 71.8321 73.3694 72.1484C74.0882 72.2634 74.7207 72.4934 75.2383 72.8384C74.0882 73.931 72.5068 74.7073 70.4367 75.1098C67.0727 75.7424 64.9738 75.3685 63.7951 74.5922ZM75.7845 72.2634C75.152 71.8321 74.4045 71.5157 73.5131 71.372C71.4718 71.0271 68.7116 71.487 65.1464 72.9821H65.1176H65.0888C64.485 73.3271 63.8525 73.6722 63.1624 74.0172C62.2137 72.9535 62.2424 71.372 63.0474 69.8482C63.8525 68.2956 65.4339 66.9154 67.389 66.4555C69.3154 65.9954 71.6731 66.4268 74.0307 68.5544C74.9794 69.4169 75.8421 70.2508 76.6183 71.0558C76.3596 71.5157 76.1008 71.9184 75.7845 72.2634ZM76.9922 70.3657C76.2446 69.5894 75.4395 68.8131 74.5482 68.0081C72.0181 65.7367 69.4304 65.2191 67.2165 65.7367C65.0601 66.2542 63.3062 67.7781 62.3862 69.5031C61.5237 71.1421 61.3799 73.0109 62.4724 74.391C58.5334 76.3174 53.5593 78.1575 49.0166 78.5888C46.4864 78.8188 44.1575 78.6462 42.2023 77.8125C42.9498 77.0362 43.6975 76.2024 44.4737 75.2823C46.0263 73.4421 46.6876 71.6308 46.7452 69.9344C48.1827 70.567 49.8216 70.797 51.4605 70.1932C53.3293 69.6181 55.1695 68.1518 56.6934 65.3917C57.5271 63.9254 58.3034 62.804 59.051 61.999C59.3097 62.3152 59.5973 62.6027 59.9135 62.8327C60.5173 63.2927 61.1499 63.5803 61.7536 63.7241C62.3574 63.8966 62.9037 63.8966 63.3062 63.7816C64.4275 63.4653 64.9738 62.6027 65.0026 61.7114C65.0314 60.8488 64.5426 59.9575 63.68 59.5262C62.8174 59.0663 61.6387 59.1237 60.316 59.9288C59.9135 60.1876 59.5397 60.475 59.1372 60.8488C58.706 60.1014 58.4184 59.095 58.4184 57.8299C58.4184 55.846 58.821 54.0921 60.086 52.5396L60.1723 52.4533C62.0987 54.7246 64.8014 56.306 66.6128 57.3411C67.2452 57.7149 67.9065 57.8011 68.5104 57.6287C69.1141 57.4849 69.6604 57.0823 70.0918 56.5936C70.9831 55.5873 71.6155 54.0633 71.8456 52.5683C72.0755 51.0732 71.9318 49.5205 71.1842 48.4568C70.7818 47.9105 70.2641 47.5367 69.5454 47.3642C68.8554 47.1917 68.0216 47.2492 67.044 47.5943C63.8813 48.6868 61.6961 49.9231 60.2586 51.3032C60.0285 50.9869 59.8273 50.6706 59.6547 50.3544C58.821 48.8593 58.4472 47.1054 58.8497 45.064C59.2522 42.9939 60.4886 40.6075 62.9325 37.8473C65.4051 35.0584 67.159 33.9945 68.4528 33.8795C69.6604 33.7645 70.5804 34.5121 71.3855 35.7484C71.6155 36.1222 71.8168 36.496 72.0181 36.8985C71.7593 37.4448 71.5868 38.0773 71.4718 38.7962C71.1842 40.8662 71.6443 43.6552 72.9956 47.2779V47.3067V47.3354C75.1808 51.5333 77.6534 57.9449 77.9985 63.5803C78.171 66.1104 77.8835 68.4394 76.9922 70.3657ZM59.5973 61.5389C59.9997 61.1651 60.3735 60.8488 60.7185 60.6476C61.8687 59.9288 62.76 59.9575 63.335 60.2738C63.9387 60.59 64.2551 61.1939 64.2551 61.7689C64.2551 62.3152 63.91 62.8903 63.0762 63.149C62.8462 63.2065 62.4437 63.2352 61.9261 63.0915C61.4661 62.9765 60.9198 62.7177 60.4023 62.3152C60.1148 62.114 59.856 61.8552 59.5973 61.5389ZM60.6898 51.9357C62.0124 50.642 64.0825 49.4343 67.2452 48.3418C68.1365 48.0542 68.8266 47.9967 69.3441 48.1118C69.8617 48.2268 70.2355 48.5142 70.523 48.9168C71.098 49.7219 71.2705 51.0732 71.0404 52.482C70.8105 53.8909 70.2355 55.271 69.4879 56.1335C69.1141 56.5648 68.7116 56.8523 68.2803 56.9386C67.9353 57.0536 67.4753 57.0248 66.9865 56.7374C65.1176 55.6735 62.5011 54.1209 60.6898 51.9357ZM82.7138 82.9016C82.5988 83.2466 82.3975 83.5053 82.1675 83.6779C81.9375 83.8504 81.6213 83.9654 81.2474 83.9942C80.4711 84.023 80.0111 83.7354 79.8099 83.3328C79.5798 82.8728 79.5798 82.2403 79.9249 81.4639C80.2985 80.6588 81.0175 79.7963 82.1962 79.0488C82.2825 79.2789 82.3687 79.5089 82.455 79.7101C82.915 81.1189 82.9725 82.1828 82.7138 82.9016ZM98.7286 79.02C98.8148 78.445 98.9586 78.0712 99.1311 77.8411C99.3037 77.6112 99.5049 77.4962 99.7637 77.4675C100.281 77.3812 100.914 77.6112 101.489 78.0137C101.776 78.215 102.006 78.4163 102.179 78.6175C102.351 78.8188 102.409 78.9625 102.409 78.9913C102.409 78.9913 102.409 79.0775 102.265 79.2213C102.15 79.3651 101.92 79.5089 101.661 79.6813C101.058 79.9976 100.281 80.2564 99.4186 80.4002C99.1887 80.4289 98.9298 80.4577 98.6998 80.4577C98.6423 79.8826 98.671 79.3939 98.7286 79.02ZM89.068 53.1146C87.544 52.7696 85.9627 52.7696 84.8702 54.0059C83.8351 55.2135 83.3463 57.4274 83.6051 61.1651C83.8638 64.9317 84.7265 67.6344 86.0203 69.5032C87.3141 71.4008 88.9817 72.4358 90.793 72.9535C91.2243 73.0972 91.6557 73.1835 92.087 73.241V73.4134C92.2594 75.5986 93.1507 77.3237 94.2433 79.0775C95.1346 80.5152 96.6585 81.0902 98.1248 81.1477C98.2686 82.2116 98.556 83.5341 99.0161 85.1155C99.8499 88.0194 99.6199 90.147 98.8148 91.6709C98.0098 93.1948 96.6297 94.1724 95.1058 94.6324C93.582 95.0924 91.9144 95.0637 90.6493 94.6036C89.3842 94.1436 88.5216 93.3098 88.4067 92.246C88.1192 89.8307 88.9529 87.5306 89.9593 85.6905C90.7356 84.2816 91.5981 83.1603 92.2019 82.3841C92.3744 82.154 92.547 81.9528 92.662 81.7803C92.9495 81.4065 93.2082 80.8026 93.352 80.1414C93.467 79.4801 93.4669 78.7039 93.1507 78.0137C92.8057 77.2949 92.1443 76.7487 91.0807 76.4612C90.0168 76.1736 88.5504 76.1736 86.5378 76.5474C84.9852 76.8637 83.6626 77.3237 82.5988 77.8987C81.6499 75.8862 80.0111 73.4997 77.5959 70.912C78.6598 68.7844 78.976 66.1967 78.8035 63.4941C78.4297 57.7149 75.9283 51.1882 73.7144 46.9616C72.3631 43.4252 71.9893 40.78 72.2481 38.8824C72.3056 38.4798 72.3918 38.1348 72.5068 37.7898C72.6794 38.1924 72.8518 38.5949 73.0244 38.9974C73.1682 39.3711 73.3407 39.7449 73.4845 40.0899C73.8006 40.8088 74.1457 41.4988 74.5196 42.0738C74.8932 42.6489 75.3245 43.1089 75.8708 43.3389C78.3722 44.4028 80.3561 44.4028 81.8512 43.5402C83.3176 42.7064 84.2376 41.0675 84.6976 39.0549C84.8988 38.2498 85.0139 37.3585 85.0714 36.4097C85.5603 36.611 86.049 36.841 86.5377 37.071C91.0519 39.2561 95.4509 42.6202 97.7797 46.0416C97.981 46.3292 98.1823 46.6454 98.3548 46.9616C96.371 47.4505 94.2433 48.3705 92.6044 50.1244C91.5981 51.2169 91.5693 52.7408 92.1731 54.0346C92.2019 54.0922 92.2019 54.1209 92.2306 54.1784C91.1956 53.7759 90.103 53.3447 89.068 53.1146ZM93.697 54.8684C93.5533 54.811 93.4095 54.7534 93.237 54.696C93.0644 54.4372 92.9494 54.1496 92.8345 53.8909C92.3456 52.6258 92.4032 51.4469 93.1507 50.642C94.7034 48.9743 96.7446 48.1118 98.6998 47.6517C99.2461 48.8018 99.5336 49.9231 99.4761 50.9869C99.4186 52.5108 98.6423 53.9484 96.9172 55.1847C96.6297 55.386 96.2272 55.4435 95.6522 55.386C95.077 55.3285 94.4158 55.1272 93.697 54.8684ZM135.042 29.7393C134.467 31.6081 133.547 32.9595 132.282 33.5633C131.017 34.1671 129.292 34.1095 126.992 32.9883C126.647 32.8158 126.33 32.4708 126.043 31.9532C125.727 31.4357 125.468 30.7744 125.18 30.0268C125.065 29.6817 124.922 29.3367 124.807 28.963C124.375 27.7553 123.944 26.4903 123.34 25.4265C122.564 24.0464 121.5 22.9538 119.861 22.9826C118.251 23.0401 116.238 24.1614 113.593 26.7778C110.891 29.4231 109.424 31.8381 108.849 34.0521C108.245 36.266 108.562 38.2211 109.338 39.9175C109.539 40.32 109.741 40.7225 109.999 41.0963L109.798 41.2975C108.274 42.9364 107.699 44.834 107.555 46.9329C107.469 48.428 107.757 49.6355 108.245 50.5844C107.354 51.4182 106.434 52.5396 105.457 54.0634C103.818 56.5936 102.035 57.8012 100.368 58.175C98.671 58.5487 97.0322 58.1174 95.7096 57.2837C95.0483 56.8523 94.4446 56.3348 93.9845 55.7597C94.5308 55.9323 95.077 56.076 95.5659 56.1335C96.1984 56.2198 96.831 56.1623 97.3485 55.7885C99.2749 54.4372 100.166 52.7983 100.281 51.0157C100.339 49.8656 100.051 48.658 99.5049 47.4792C100.971 47.1917 102.265 47.1342 103.156 47.1054C103.473 47.0767 103.731 47.0767 103.933 47.0479C104.393 47.0192 105.025 46.8179 105.6 46.5016C106.175 46.1854 106.779 45.6679 107.067 44.9778C107.383 44.259 107.383 43.3965 106.894 42.3901C106.405 41.4125 105.457 40.2912 103.875 38.9974C102.639 38.0198 101.431 37.3298 100.31 36.8985C101.23 34.8571 101.949 32.097 102.351 28.5604C104.652 27.9854 106.808 26.5478 108.763 24.6502C112.932 20.625 116.238 14.472 117.992 10.0442C119.804 6.709 121.586 4.78261 123.225 3.8913C124.835 2.99999 126.359 3.08622 127.739 3.86263C129.177 4.63884 130.5 6.16269 131.649 8.14663C132.8 10.1305 133.748 12.5744 134.438 15.1333C135.847 20.3086 136.164 25.9727 135.042 29.7393Z" fill="white"/>
<path d="M58.095 38.4702C58.095 38.4702 60.7134 45.3183 61.1737 46.3254C61.6629 47.3324 76.6827 47.764 78.1788 47.0735C78.6393 46.8433 75.3879 35.2187 73.5464 31.2192C73.4888 31.1041 84.0487 22.8173 68.9713 25.8098C65.8351 26.414 57.3181 29.4065 56.3398 30.4999C55.3903 31.5933 58.095 38.4702 58.095 38.4702Z" fill="#5D95E6"/>
<path d="M61.2306 46.0952L58.5547 40.0239" stroke="#424D51" stroke-width="0.287736" stroke-linecap="round" stroke-linejoin="round"/>
<path d="M60.167 30.6438C60.4835 32.4277 67.3316 30.356 66.9576 28.5433C66.3245 27.1046 65.9794 26.2414 64.9146 23.623C64.3392 22.2419 62.9005 22.99 62.0949 23.2777C60.541 23.7956 60.6561 25.6084 60.6561 25.6084C60.6561 25.6084 60.2533 29.723 60.167 30.6438Z" fill="#DFA391"/>
<path d="M60.34 24.4001C60.4839 24.918 61.3471 27.0184 63.3325 27.4213C64.915 27.7378 66.2674 26.9609 66.2674 26.9609C66.2674 26.9609 65.2603 24.2274 65.1452 23.9972C65.0301 23.7383 60.2537 24.026 60.34 24.4001Z" fill="#424D51"/>
<path d="M59.1313 22.9901C59.1313 22.9901 61.0016 27.191 63.6776 26.4429C66.3535 25.666 65.9794 23.3929 65.9507 23.2203C65.9219 23.0476 64.7422 19.2783 63.7927 18.3576C62.8431 17.4368 60.6851 16.516 58.9875 17.8109C57.3186 19.1057 57.6639 20.4868 58.1243 21.609C58.3832 22.2132 59.1313 22.9901 59.1313 22.9901Z" fill="#DFA391"/>
<path d="M59.3042 21.9544C59.074 21.6955 57.1174 20.861 56.4844 22.3573C56.0528 23.3356 56.657 23.9398 57.2325 24.17C57.9518 24.4577 58.7 24.3426 59.2754 23.7672C59.8797 23.1917 59.6783 22.7313 59.6783 22.5299C59.6495 22.2422 59.4768 22.1271 59.3042 21.9544Z" fill="#DFA391"/>
<path d="M63.7057 19.9402C63.6481 19.595 64.2811 17.5808 65.8349 18.0412C66.8707 18.3577 66.9284 19.1921 66.7557 19.7676C66.5255 20.5157 65.9499 21.0049 65.1155 21.0912C64.2811 21.1775 64.051 20.7171 63.9358 20.602C63.7057 20.4006 63.7345 20.1992 63.7057 19.9402Z" fill="#DFA391"/>
<path d="M58.9584 20.1129C58.9584 20.1129 61.6056 20.2856 63.0155 18.2139C63.0155 18.1851 63.7348 19.0771 64.2238 18.703L63.0729 15.7393C63.0729 15.7393 62.6414 14.9337 61.5768 15.394C60.7424 15.7393 57.232 17.2356 57.232 17.2356C57.232 17.2356 56.2536 17.6672 56.714 18.6742C57.1744 19.6813 57.98 21.5804 58.1527 21.494C58.7281 21.2351 58.9584 20.1129 58.9584 20.1129Z" fill="#F0D6AC"/>
<path d="M61.5479 23.2778C62.2672 24.1698 63.1592 23.3929 63.1592 23.3929" stroke="#424D51" stroke-width="0.23978" stroke-linecap="round" stroke-linejoin="round"/>
<path d="M62.2109 21.7817C62.2109 21.7817 62.7289 21.8105 62.8153 22.127C62.8727 22.4723 62.5275 22.5586 62.2973 22.6162" stroke="#424D51" stroke-width="0.23978" stroke-linecap="round" stroke-linejoin="round"/>
<path d="M62.6416 21.0048C62.6416 21.0048 62.6991 20.4581 63.1308 20.1991C63.5624 19.9689 63.8788 20.1128 64.1378 20.343" stroke="#424D51" stroke-width="0.23978" stroke-linecap="round" stroke-linejoin="round"/>
<path d="M63.0444 20.3432C63.1308 20.1993 63.3322 20.1417 63.5048 20.2281C63.6487 20.3144 63.735 20.5158 63.6199 20.6884C63.5337 20.8611 63.3321 20.9186 63.1594 20.8035C63.0156 20.7172 62.9582 20.5158 63.0444 20.3432Z" stroke="#424D51" stroke-width="0.23978" stroke-linecap="round" stroke-linejoin="round"/>
<path d="M59.7354 22.3284C59.7354 22.3284 59.7928 21.7817 60.2244 21.5228C60.656 21.2638 60.9725 21.4364 61.2316 21.6379" stroke="#424D51" stroke-width="0.23978" stroke-linecap="round" stroke-linejoin="round"/>
<path d="M60.1382 21.6955C60.2245 21.5228 60.4259 21.4653 60.5986 21.5804C60.7425 21.6667 60.8288 21.8681 60.7137 22.0408C60.5986 22.2134 60.4259 22.271 60.2533 22.1559C60.1094 22.0695 60.0519 21.8681 60.1382 21.6955Z" stroke="#424D51" stroke-width="0.23978" stroke-linecap="round" stroke-linejoin="round"/>
<path d="M64.9142 19.5948C65.0293 19.5372 65.317 19.3934 65.5473 19.3934M64.9142 19.5948C65.0005 19.1056 65.2882 18.8467 65.2882 18.8467M64.9142 19.5948C64.8854 19.7099 64.8854 19.8825 64.9142 20.0552" stroke="#424D51" stroke-width="0.23978" stroke-linecap="round" stroke-linejoin="round"/>
<path d="M58.5557 22.5014C58.4118 22.5302 58.1241 22.674 58.009 22.8467M58.5557 22.5014C58.1241 22.2712 57.75 22.3 57.75 22.3M58.5557 22.5014C58.6995 22.5877 58.8146 22.674 58.9297 22.8179" stroke="#424D51" stroke-width="0.23978" stroke-linecap="round" stroke-linejoin="round"/>
<path d="M90.5819 37.9814C90.5819 38.6145 83.0719 47.2178 81.029 48.6277C80.9715 48.6564 80.9427 48.6564 80.9139 48.6564C79.6479 48.3975 78.4393 48.3975 78.4393 48.3975L78.3243 50.0088C78.3243 50.0088 76.3677 51.5914 75.2456 51.9942C72.8573 52.8574 72.0805 53.1739 72.1092 53.8932C72.1379 54.6413 73.0588 54.6989 73.0588 54.6989C73.0588 54.6989 72.8573 54.9003 73.3177 55.4182C73.7205 55.8786 74.3824 55.9074 74.3824 55.9074C74.3824 55.9074 74.3247 56.2239 74.7276 56.5404C75.2456 56.972 76.339 56.8281 76.339 56.8281C76.5404 58.0654 78.1229 58.0079 78.612 57.8352C79.6191 57.4899 80.5111 57.0008 81.3167 56.4253C81.3167 56.3965 81.3455 56.3965 81.3455 56.3965C83.2734 55.5909 100.394 43.88 101.113 39.2475L90.5819 37.9814Z" fill="#DFA391"/>
<path d="M73 54.785C74.8703 55.044 78.208 53.0874 78.208 53.0874" stroke="#424D51" stroke-width="0.287736" stroke-linecap="round" stroke-linejoin="round"/>
<path d="M74.1816 55.9934C75.9368 56.1373 79.0731 54.5835 79.0731 54.5835" stroke="#424D51" stroke-width="0.287736" stroke-linecap="round" stroke-linejoin="round"/>
<path d="M76.3379 57.0866C77.5176 57.0866 79.7618 56.0508 79.7618 56.0508" stroke="#424D51" stroke-width="0.287736" stroke-linecap="round" stroke-linejoin="round"/>
<path d="M75.5041 36.4561C75.5041 36.4561 74.3532 35.3915 73.2598 34.0967" stroke="#424D51" stroke-width="0.287736" stroke-linecap="round" stroke-linejoin="round"/>
<path d="M87.7622 51.9939C87.8773 52.0802 87.2155 52.742 86.64 52.6845C86.0358 52.6269 81.6334 48.1382 81.8348 47.5915C82.0362 47.0736 82.5829 46.5845 82.5829 46.5845C82.5829 46.5845 87.6759 51.9076 87.7622 51.9939Z" fill="#4879BB"/>
<path d="M75.2733 25.1194C71.7054 24.918 68.6266 25.8388 68.5691 30.0973C68.4827 35.9383 75.5898 36.3699 79.9922 36.8303C83.7039 37.2331 89.545 37.7223 89.43 37.8086C88.912 38.1827 86.5813 40.9161 84.8837 42.7289C83.3011 44.3977 81.3157 45.9803 82.3805 47.3039C83.2437 48.3685 87.4158 53.4902 88.9407 52.4543C92.0483 50.4114 99.8459 43.2468 101.86 40.2543C103.443 37.8949 102.982 31.8525 94.8106 29.0614C85.9772 26.069 77.8054 25.2633 75.2733 25.1194Z" fill="#5D95E6"/>
<path d="M92.3364 34.9023C92.3364 34.9023 89.9194 37.2618 89.5166 37.8085" stroke="#424D51" stroke-width="0.287736" stroke-linecap="round" stroke-linejoin="round"/>
<path d="M75.5041 36.4561C75.5041 36.4561 74.3532 35.3915 73.2598 34.0967" stroke="#424D51" stroke-width="0.287736" stroke-linecap="round" stroke-linejoin="round"/>
<path d="M28.963 45.8741C31.5271 44.5733 32.5469 41.4439 31.2397 38.8517C29.939 36.2876 26.8096 35.2677 24.2174 36.5749C21.6532 37.8756 20.6334 41.0051 21.9406 43.5973C23.2413 46.1614 26.3708 47.1812 28.963 45.8741Z" fill="#5D95E6"/>
<path d="M28.3203 44.6338C30.1943 43.6696 30.9403 41.4007 29.9761 39.5266C29.0119 37.6526 26.743 36.9066 24.869 37.8708C22.9949 38.835 22.2489 41.1039 23.2131 42.9779C24.1773 44.852 26.4397 45.5699 28.3203 44.6338Z" fill="white"/>
</g>
</g>
<defs>
<clipPath id="clip0_246_408">
<rect width="122" height="122" fill="white"/>
</clipPath>
</defs>
</svg>
