<svg width="148" height="103" viewBox="0 0 148 103" fill="none" xmlns="http://www.w3.org/2000/svg">
<mask id="mask0_246_1472" style="mask-type:luminance" maskUnits="userSpaceOnUse" x="0" y="0" width="148" height="103">
<path d="M147.431 0H0V103H147.431V0Z" fill="white"/>
</mask>
<g mask="url(#mask0_246_1472)">
<path d="M124.567 13.6735V87.0182C124.567 87.8144 123.921 88.4608 123.125 88.4608H24.3107C23.5146 88.4608 22.8682 87.8144 22.8682 87.0182V13.6735C22.8682 12.8774 23.5146 12.231 24.3107 12.231H123.125C123.921 12.231 124.567 12.8774 124.567 13.6735Z" fill="#E9EEFF"/>
<mask id="mask1_246_1472" style="mask-type:luminance" maskUnits="userSpaceOnUse" x="76" y="21" width="40" height="27">
<path d="M76.6406 21.0918H115.879V47.3467H76.6406V21.0918Z" fill="white"/>
</mask>
<g mask="url(#mask1_246_1472)">
<path d="M116.167 22.5344V45.9041C116.167 46.7003 115.52 47.3467 114.724 47.3467H78.3713C77.5751 47.3467 76.9287 46.7003 76.9287 45.9041V22.5344C76.9287 21.7382 77.5751 21.0918 78.3713 21.0918H114.724C115.52 21.0918 116.167 21.7382 116.167 22.5344Z" fill="#8B9AA9" fill-opacity="0.2"/>
<path d="M113.858 27.7277V44.1731C113.858 44.9693 113.212 45.6157 112.416 45.6157H80.6789C79.8827 45.6157 79.2363 44.9693 79.2363 44.1731V27.7277C79.2363 26.9316 79.8827 26.2852 80.6789 26.2852H112.416C113.212 26.2852 113.858 26.9316 113.858 27.7277Z" fill="white"/>
<path d="M90.2004 29.4589V34.6521C90.2004 34.9706 89.9418 35.2292 89.6234 35.2292H82.122C81.8035 35.2292 81.5449 34.9706 81.5449 34.6521V29.4589C81.5449 29.1404 81.8035 28.8818 82.122 28.8818H89.6234C89.9418 28.8818 90.2004 29.1404 90.2004 29.4589Z" fill="#8B9AA9"/>
<path d="M88.4695 30.3242V30.9012H82.6992V30.3242H88.4695Z" fill="#EEF5FF"/>
<path d="M85.0073 31.7671V32.3441H82.6992V31.7671H85.0073Z" fill="#CCDCEB"/>
<path d="M84.0841 33.2095V33.7865H82.6992V33.2095H84.0841Z" fill="white"/>
<path d="M90.2004 37.2484V42.4417C90.2004 42.7602 89.9418 43.0187 89.6234 43.0187H82.122C81.8035 43.0187 81.5449 42.7602 81.5449 42.4417V37.2484C81.5449 36.93 81.8035 36.6714 82.122 36.6714H89.6234C89.9418 36.6714 90.2004 36.93 90.2004 37.2484Z" fill="#8B9AA9"/>
<path d="M88.4695 38.1143V38.6913H82.6992V38.1143H88.4695Z" fill="#E1E4E8"/>
<path d="M85.0073 39.5566V40.1337H82.6992V39.5566H85.0073Z" fill="#CCDCEB"/>
<path d="M84.0841 40.9995V41.5765H82.6992V40.9995H84.0841Z" fill="white"/>
<path d="M100.876 29.4589V34.6521C100.876 34.9706 100.618 35.2292 100.299 35.2292H92.7977C92.4793 35.2292 92.2207 34.9706 92.2207 34.6521V29.4589C92.2207 29.1404 92.4793 28.8818 92.7977 28.8818H100.299C100.618 28.8818 100.876 29.1404 100.876 29.4589Z" fill="#8B9AA9"/>
<path d="M100.01 30.6127C100.01 30.772 99.881 30.9012 99.7218 30.9012H93.3745C93.2152 30.9012 93.0859 30.772 93.0859 30.6127C93.0859 30.4535 93.2152 30.3242 93.3745 30.3242H99.7218C99.881 30.3242 100.01 30.4535 100.01 30.6127Z" fill="white"/>
<path d="M97.7011 32.0556C97.7011 32.2148 97.5718 32.3441 97.4126 32.3441H95.393C95.2338 32.3441 95.1045 32.2148 95.1045 32.0556C95.1045 31.8964 95.2338 31.7671 95.393 31.7671H97.4126C97.5718 31.7671 97.7011 31.8964 97.7011 32.0556Z" fill="#F1F8FF"/>
<path d="M99.1444 33.498C99.1444 33.6572 99.0152 33.7865 98.8559 33.7865H94.2397C94.0805 33.7865 93.9512 33.6572 93.9512 33.498C93.9512 33.3388 94.0805 33.2095 94.2397 33.2095H98.8559C99.0152 33.2095 99.1444 33.3388 99.1444 33.498Z" fill="white"/>
<path d="M100.876 37.2484V42.4417C100.876 42.7602 100.618 43.0187 100.299 43.0187H92.7977C92.4793 43.0187 92.2207 42.7602 92.2207 42.4417V37.2484C92.2207 36.93 92.4793 36.6714 92.7977 36.6714H100.299C100.618 36.6714 100.876 36.93 100.876 37.2484Z" fill="#8B9AA9"/>
<path d="M100.01 38.4028C100.01 38.562 99.881 38.6913 99.7218 38.6913H93.3745C93.2152 38.6913 93.0859 38.562 93.0859 38.4028C93.0859 38.2435 93.2152 38.1143 93.3745 38.1143H99.7218C99.881 38.1143 100.01 38.2435 100.01 38.4028Z" fill="white"/>
<path d="M97.7022 39.8452C97.7022 40.0044 97.5729 40.1337 97.4137 40.1337H93.3745C93.2152 40.1337 93.0859 40.0044 93.0859 39.8452C93.0859 39.6859 93.2152 39.5566 93.3745 39.5566H97.4137C97.5729 39.5566 97.7022 39.6859 97.7022 39.8452Z" fill="#CCE3FB"/>
<path d="M98.2792 41.288C98.2792 41.4473 98.1499 41.5765 97.9907 41.5765H93.3745C93.2152 41.5765 93.0859 41.4473 93.0859 41.288C93.0859 41.1288 93.2152 40.9995 93.3745 40.9995H97.9907C98.1499 40.9995 98.2792 41.1288 98.2792 41.288Z" fill="white"/>
<path d="M111.552 29.4589V34.6521C111.552 34.9706 111.293 35.2292 110.975 35.2292H103.474C103.155 35.2292 102.896 34.9706 102.896 34.6521V29.4589C102.896 29.1404 103.155 28.8818 103.474 28.8818H110.975C111.293 28.8818 111.552 29.1404 111.552 29.4589Z" fill="#8B9AA9"/>
<path d="M105.147 30.6127C105.147 30.772 105.108 30.9012 105.06 30.9012H103.848C103.801 30.9012 103.762 30.772 103.762 30.6127C103.762 30.4535 103.801 30.3242 103.848 30.3242H105.06C105.108 30.3242 105.147 30.4535 105.147 30.6127Z" fill="#EFF7FF"/>
<path d="M107.224 32.0556C107.224 32.2148 107.095 32.3441 106.935 32.3441H104.05C103.891 32.3441 103.762 32.2148 103.762 32.0556C103.762 31.8964 103.891 31.7671 104.05 31.7671H106.935C107.095 31.7671 107.224 31.8964 107.224 32.0556Z" fill="#E7E7E7"/>
<path d="M105.493 33.498C105.493 33.6572 105.454 33.7865 105.406 33.7865H103.848C103.801 33.7865 103.762 33.6572 103.762 33.498C103.762 33.3388 103.801 33.2095 103.848 33.2095H105.406C105.454 33.2095 105.493 33.3388 105.493 33.498Z" fill="#E3F0F4"/>
<path d="M111.552 37.2484V42.4417C111.552 42.7602 111.293 43.0187 110.975 43.0187H103.474C103.155 43.0187 102.896 42.7602 102.896 42.4417V37.2484C102.896 36.93 103.155 36.6714 103.474 36.6714H110.975C111.293 36.6714 111.552 36.93 111.552 37.2484Z" fill="#8B9AA9"/>
<path d="M106.07 38.4028C106.07 38.562 105.941 38.6913 105.781 38.6913H104.05C103.891 38.6913 103.762 38.562 103.762 38.4028C103.762 38.2435 103.891 38.1143 104.05 38.1143H105.781C105.941 38.1143 106.07 38.2435 106.07 38.4028Z" fill="#EFF7FF"/>
<path d="M105.147 39.8452C105.147 40.0044 105.108 40.1337 105.06 40.1337H103.848C103.801 40.1337 103.762 40.0044 103.762 39.8452C103.762 39.6859 103.801 39.5566 103.848 39.5566H105.06C105.108 39.5566 105.147 39.6859 105.147 39.8452Z" fill="#E7E7E7"/>
<path d="M104.8 41.288C104.8 41.4473 104.762 41.5765 104.714 41.5765H103.848C103.801 41.5765 103.762 41.4473 103.762 41.288C103.762 41.1288 103.801 40.9995 103.848 40.9995H104.714C104.762 40.9995 104.8 41.1288 104.8 41.288Z" fill="#E3F0F4"/>
<path d="M79.9576 22.5342C80.3557 22.5342 80.6789 22.8574 80.6789 23.2555C80.6789 23.6535 80.3557 23.9768 79.9576 23.9768C79.5595 23.9768 79.2363 23.6535 79.2363 23.2555C79.2363 22.8574 79.5595 22.5342 79.9576 22.5342Z" fill="#D50707"/>
<path d="M82.2393 22.5351C82.6371 22.5196 82.9726 22.8301 82.988 23.2279C83.0034 23.6257 82.6929 23.9611 82.2952 23.9766C81.8974 23.992 81.5619 23.6815 81.5465 23.2837C81.5311 22.886 81.8415 22.5505 82.2393 22.5351Z" fill="#FFAB00"/>
<path d="M84.5738 22.5342C84.9719 22.5342 85.2951 22.8574 85.2951 23.2555C85.2951 23.6535 84.9719 23.9768 84.5738 23.9768C84.1757 23.9768 83.8525 23.6535 83.8525 23.2555C83.8525 22.8574 84.1757 22.5342 84.5738 22.5342Z" fill="#138B1B"/>
</g>
<mask id="mask2_246_1472" style="mask-type:luminance" maskUnits="userSpaceOnUse" x="30" y="21" width="41" height="27">
<path d="M30.8232 21.0542H70.3498V47.3091H30.8232V21.0542Z" fill="white"/>
</mask>
<g mask="url(#mask2_246_1472)">
<path d="M70.0594 22.7854V46.1551C70.0594 46.9513 69.413 47.5977 68.6168 47.5977H32.2639C31.4677 47.5977 30.8213 46.9513 30.8213 46.1551V22.7854C30.8213 21.9892 31.4677 21.3428 32.2639 21.3428H68.6168C69.413 21.3428 70.0594 21.9892 70.0594 22.7854Z" fill="#8B9AA9" fill-opacity="0.2"/>
<path d="M67.7527 27.9787V44.4241C67.7527 45.2202 67.1063 45.8667 66.3101 45.8667H34.5734C33.7773 45.8667 33.1309 45.2202 33.1309 44.4241V27.9787C33.1309 27.1826 33.7773 26.5361 34.5734 26.5361H66.3101C67.1063 26.5361 67.7527 27.1826 67.7527 27.9787Z" fill="white"/>
<path d="M50.1533 26.5361H66.3102C67.1068 26.5361 67.7528 27.1821 67.7528 27.9787V44.4241C67.7528 45.2207 67.1068 45.8667 66.3102 45.8667H50.1533V26.5361Z" fill="#C9D6DF"/>
<path d="M48.1335 33.1718V41.5387C48.1335 41.8572 47.8749 42.1157 47.5564 42.1157H35.1503C34.8318 42.1157 34.5732 41.8572 34.5732 41.5387V33.1718C34.5732 32.8533 34.8318 32.5947 35.1503 32.5947H47.5564C47.8749 32.5947 48.1335 32.8533 48.1335 33.1718Z" fill="#8B9AA9"/>
<path d="M43.5176 34.6143V35.4798H38.9014V34.6143H43.5176Z" fill="#EEF5FF"/>
<path d="M46.6913 36.6343V37.4998H38.9014V36.6343H46.6913Z" fill="#CCDCEB"/>
<path d="M44.3832 38.6538V39.5194H38.9014V38.6538H44.3832Z" fill="#CCDCEB"/>
<path d="M36.7368 37.002C36.7726 37.002 36.8017 37.031 36.8017 37.0669C36.8017 37.1027 36.7726 37.1318 36.7368 37.1318C36.701 37.1318 36.6719 37.1027 36.6719 37.0669C36.6719 37.031 36.701 37.002 36.7368 37.002Z" fill="white"/>
<path d="M65.7331 33.1718V39.2306C65.7331 39.549 65.4745 39.8076 65.156 39.8076H52.7499C52.4314 39.8076 52.1729 39.549 52.1729 39.2306V33.1718C52.1729 32.8533 52.4314 32.5947 52.7499 32.5947H65.156C65.4745 32.5947 65.7331 32.8533 65.7331 33.1718Z" fill="white"/>
<path d="M64.2888 34.0376V34.9031H53.3252V34.0376H64.2888Z" fill="#EEF5FF"/>
<path d="M59.384 35.7686V36.6341H53.3252V35.7686H59.384Z" fill="#CCDCEB"/>
<path d="M63.568 37.4995C63.966 37.4995 64.2893 37.8227 64.2893 38.2208C64.2893 38.6189 63.966 38.9421 63.568 38.9421C63.1699 38.9421 62.8467 38.6189 62.8467 38.2208C62.8467 37.8227 63.1699 37.4995 63.568 37.4995Z" fill="#8B9AA9"/>
<path d="M33.8521 22.7852C34.2502 22.7852 34.5734 23.1084 34.5734 23.5064C34.5734 23.9045 34.2502 24.2277 33.8521 24.2277C33.4541 24.2277 33.1309 23.9045 33.1309 23.5064C33.1309 23.1084 33.4541 22.7852 33.8521 22.7852Z" fill="#D50808"/>
<path d="M36.4469 22.7856C36.845 22.7856 37.1682 23.1089 37.1682 23.5069C37.1682 23.905 36.845 24.2282 36.4469 24.2282C36.0488 24.2282 35.7256 23.905 35.7256 23.5069C35.7256 23.1089 36.0488 22.7856 36.4469 22.7856Z" fill="#FFAB00"/>
<path d="M39.0436 22.7852C39.4416 22.7852 39.7648 23.1084 39.7648 23.5064C39.7648 23.9045 39.4416 24.2277 39.0436 24.2277C38.6455 24.2277 38.3223 23.9045 38.3223 23.5064C38.3223 23.1084 38.6455 22.7852 39.0436 22.7852Z" fill="#138B1B"/>
</g>
<mask id="mask3_246_1472" style="mask-type:luminance" maskUnits="userSpaceOnUse" x="76" y="52" width="41" height="27">
<path d="M76.6406 52.54H116.167V78.7949H76.6406V52.54Z" fill="white"/>
</mask>
<g mask="url(#mask3_246_1472)">
<path d="M116.167 54.2712V77.6409C116.167 78.4371 115.52 79.0835 114.724 79.0835H78.3713C77.5751 79.0835 76.9287 78.4371 76.9287 77.6409V54.2712C76.9287 53.475 77.5751 52.8286 78.3713 52.8286H114.724C115.52 52.8286 116.167 53.475 116.167 54.2712Z" fill="#8B9AA9" fill-opacity="0.2"/>
<path d="M113.858 59.4645V75.9099C113.858 76.7061 113.212 77.3525 112.416 77.3525H80.6789C79.8827 77.3525 79.2363 76.7061 79.2363 75.9099V59.4645C79.2363 58.6684 79.8827 58.022 80.6789 58.022H112.416C113.212 58.022 113.858 58.6684 113.858 59.4645Z" fill="white"/>
<path d="M90.491 60.6861V65.8488C90.491 66.0453 90.3314 66.2048 90.1349 66.2048H82.4801C82.2836 66.2048 82.124 66.0453 82.124 65.8488V60.6861C82.124 60.4896 82.2836 60.3301 82.4801 60.3301H90.1349C90.3314 60.3301 90.491 60.4896 90.491 60.6861Z" fill="#8B9AA9"/>
<path d="M87.6412 61.5762V62.1102H84.793V61.5762H87.6412Z" fill="#EEF5FF"/>
<path d="M89.5996 62.8223V63.3563H84.793V62.8223H89.5996Z" fill="#CCDCEB"/>
<path d="M88.1752 64.0684V64.6024H84.793V64.0684H88.1752Z" fill="#CCDCEB"/>
<path d="M100.876 60.6861V65.8488C100.876 66.0453 100.716 66.2048 100.52 66.2048H92.8648C92.6683 66.2048 92.5088 66.0453 92.5088 65.8488V60.6861C92.5088 60.4896 92.6683 60.3301 92.8648 60.3301H100.52C100.716 60.3301 100.876 60.4896 100.876 60.6861Z" fill="#8B9AA9"/>
<path d="M98.0269 61.5762V62.1102H95.1787V61.5762H98.0269Z" fill="#EEF5FF"/>
<path d="M99.9854 62.8223V63.3563H95.1787V62.8223H99.9854Z" fill="#CCDCEB"/>
<path d="M98.5639 64.0684V64.6024H95.1816V64.0684H98.5639Z" fill="#CCDCEB"/>
<path d="M93.845 62.2886C94.2871 62.2886 94.6461 62.6475 94.6461 63.0896C94.6461 63.5317 94.2871 63.8907 93.845 63.8907C93.4029 63.8907 93.0439 63.5317 93.0439 63.0896C93.0439 62.6475 93.4029 62.2886 93.845 62.2886Z" fill="white"/>
<path d="M111.263 60.6861V65.8488C111.263 66.0453 111.104 66.2048 110.907 66.2048H103.253C103.056 66.2048 102.896 66.0453 102.896 65.8488V60.6861C102.896 60.4896 103.056 60.3301 103.253 60.3301H110.907C111.104 60.3301 111.263 60.4896 111.263 60.6861Z" fill="#8B9AA9"/>
<path d="M108.415 61.5762V62.1102H105.566V61.5762H108.415Z" fill="#EEF5FF"/>
<path d="M110.373 62.8223V63.3563H105.566V62.8223H110.373Z" fill="#CCDCEB"/>
<path d="M108.949 64.0684V64.6024H105.566V64.0684H108.949Z" fill="#CCDCEB"/>
<path d="M101.743 68.4087V71.0053H82.124V68.4087H101.743Z" fill="#DFE1E3"/>
<path d="M90.7795 73.0249V76.1986H82.124V73.0249H90.7795Z" fill="#8B9AA9"/>
<path d="M111.263 68.4082V71.0048H102.752V68.4082H111.263Z" fill="#8B9AA9"/>
<path d="M111.264 73.0249V76.1986H91.6455V73.0249H111.264Z" fill="#F5F5F5"/>
<path d="M79.9576 54.2715C80.3557 54.2715 80.6789 54.5947 80.6789 54.9928C80.6789 55.3909 80.3557 55.7141 79.9576 55.7141C79.5595 55.7141 79.2363 55.3909 79.2363 54.9928C79.2363 54.5947 79.5595 54.2715 79.9576 54.2715Z" fill="#D50808"/>
<path d="M82.5533 54.2715C82.9514 54.2715 83.2746 54.5947 83.2746 54.9928C83.2746 55.3909 82.9514 55.7141 82.5533 55.7141C82.1552 55.7141 81.832 55.3909 81.832 54.9928C81.832 54.5947 82.1552 54.2715 82.5533 54.2715Z" fill="#FFAB00"/>
<path d="M85.152 54.2715C85.55 54.2715 85.8732 54.5947 85.8732 54.9928C85.8732 55.3909 85.55 55.7141 85.152 55.7141C84.7539 55.7141 84.4307 55.3909 84.4307 54.9928C84.4307 54.5947 84.7539 54.2715 85.152 54.2715Z" fill="#138B1B"/>
</g>
<mask id="mask4_246_1472" style="mask-type:luminance" maskUnits="userSpaceOnUse" x="30" y="53" width="41" height="27">
<path d="M30.5361 53.6567H70.0627V79.9116H30.5361V53.6567Z" fill="white"/>
</mask>
<g mask="url(#mask4_246_1472)">
<path d="M70.0613 55.0993V78.4691C70.0613 79.2652 69.4149 79.9116 68.6188 79.9116H32.2658C31.4697 79.9116 30.8232 79.2652 30.8232 78.4691V55.0993C30.8232 54.3032 31.4697 53.6567 32.2658 53.6567H68.6188C69.4149 53.6567 70.0613 54.3032 70.0613 55.0993Z" fill="#8B9AA9" fill-opacity="0.2"/>
<path d="M67.7547 60.2927V76.7381C67.7547 77.5342 67.1082 78.1806 66.3121 78.1806H34.5754C33.7792 78.1806 33.1328 77.5342 33.1328 76.7381V60.2927C33.1328 59.4965 33.7792 58.8501 34.5754 58.8501H66.3121C67.1082 58.8501 67.7547 59.4965 67.7547 60.2927Z" fill="white"/>
<path d="M50.1553 58.8501H66.3121C67.1087 58.8501 67.7547 59.4961 67.7547 60.2927V76.7381C67.7547 77.5346 67.1087 78.1806 66.3121 78.1806H50.1553V58.8501Z" fill="#C9D6DF"/>
<path d="M64.8692 61.4467V75.5839C64.8692 75.9024 64.6106 76.1609 64.2921 76.1609H53.6171C53.2986 76.1609 53.04 75.9024 53.04 75.5839V61.4467C53.04 61.1282 53.2986 60.8696 53.6171 60.8696H64.2921C64.6106 60.8696 64.8692 61.1282 64.8692 61.4467Z" fill="white"/>
<path d="M60.8302 62.312V63.1776H56.791V62.312H60.8302Z" fill="#E4E4E4"/>
<path d="M64.0039 64.0435V65.1975H54.1943V64.0435H64.0039Z" fill="#E4E4E4"/>
<path d="M57.6565 66.3516V67.5056H54.1943V66.3516H57.6565Z" fill="#E4E4E4"/>
<path d="M64.0012 70.9678V72.1218H60.5391V70.9678H64.0012Z" fill="#E4E4E4"/>
<path d="M57.0795 68.6597V69.8137H54.1943V68.6597H57.0795Z" fill="#E4E4E4"/>
<path d="M60.5414 68.6597V69.8137H57.6562V68.6597H60.5414Z" fill="#E4E4E4"/>
<path d="M64.0053 68.6597V69.8137H61.1201V68.6597H64.0053Z" fill="#E4E4E4"/>
<path d="M64.0027 66.3516V67.5056H58.2324V66.3516H64.0027Z" fill="#E4E4E4"/>
<path d="M61.6962 74.1415C61.6962 74.4599 61.4376 74.7185 61.1192 74.7185H57.08C56.7615 74.7185 56.5029 74.4599 56.5029 74.1415C56.5029 73.823 56.7615 73.5645 57.08 73.5645H61.1192C61.4376 73.5645 61.6962 73.823 61.6962 74.1415Z" fill="#8B9AA9"/>
<path d="M59.9646 70.9678V72.1218H54.1943V70.9678H59.9646Z" fill="#E4E4E4"/>
<path d="M47.5585 61.2747V67.1004C47.5585 67.324 47.377 67.5055 47.1534 67.5055H35.5574C35.3339 67.5055 35.1523 67.324 35.1523 67.1004V61.2747C35.1523 61.0511 35.3339 60.8696 35.5574 60.8696H47.1534C47.377 60.8696 47.5585 61.0511 47.5585 61.2747Z" fill="#8B9AA9"/>
<path d="M44.383 62.312V62.889H38.3242V62.312H44.383Z" fill="#EEF5FF"/>
<path d="M42.6519 63.7549V64.3319H38.3242V63.7549H42.6519Z" fill="#CCDCEB"/>
<path d="M40.9209 65.1973V65.7743H38.3242V65.1973H40.9209Z" fill="#CCDCEB"/>
<path d="M36.6704 63.0981C37.1734 63.0981 37.5819 63.5066 37.5819 64.0097C37.5819 64.5128 37.1734 64.9213 36.6704 64.9213C36.1673 64.9213 35.7588 64.5128 35.7588 64.0097C35.7588 63.5066 36.1673 63.0981 36.6704 63.0981Z" fill="white"/>
<path d="M47.5585 69.9305V75.7562C47.5585 75.9797 47.377 76.1612 47.1534 76.1612H35.5574C35.3339 76.1612 35.1523 75.9797 35.1523 75.7562V69.9305C35.1523 69.7069 35.3339 69.5254 35.5574 69.5254H47.1534C47.377 69.5254 47.5585 69.7069 47.5585 69.9305Z" fill="#8B9AA9"/>
<path d="M41.4336 70.9434V71.551H38.1924V70.9434H41.4336Z" fill="#EEF5FF"/>
<path d="M43.6618 72.3613V72.9689H38.1924V72.3613H43.6618Z" fill="#CCDCEB"/>
<path d="M42.0412 73.7793V74.3869H38.1924V73.7793H42.0412Z" fill="#CCDCEB"/>
<path d="M36.6704 71.7539C37.1734 71.7539 37.5819 72.1624 37.5819 72.6655C37.5819 73.1686 37.1734 73.577 36.6704 73.577C36.1673 73.577 35.7588 73.1686 35.7588 72.6655C35.7588 72.1624 36.1673 71.7539 36.6704 71.7539Z" fill="white"/>
<path d="M33.8541 55.0991C34.2522 55.0991 34.5754 55.4223 34.5754 55.8204C34.5754 56.2185 34.2522 56.5417 33.8541 56.5417C33.456 56.5417 33.1328 56.2185 33.1328 55.8204C33.1328 55.4223 33.456 55.0991 33.8541 55.0991Z" fill="#D50808"/>
<path d="M36.4498 55.0996C36.8479 55.0996 37.1711 55.4228 37.1711 55.8209C37.1711 56.219 36.8479 56.5422 36.4498 56.5422C36.0517 56.5422 35.7285 56.219 35.7285 55.8209C35.7285 55.4228 36.0517 55.0996 36.4498 55.0996Z" fill="#FFAB00"/>
<path d="M39.0455 55.0991C39.4436 55.0991 39.7668 55.4223 39.7668 55.8204C39.7668 56.2185 39.4436 56.5417 39.0455 56.5417C38.6474 56.5417 38.3242 56.2185 38.3242 55.8204C38.3242 55.4223 38.6474 55.0991 39.0455 55.0991Z" fill="#138B1B"/>
</g>
</g>
</svg>
