<svg width="116" height="58" viewBox="0 0 116 58" fill="none" xmlns="http://www.w3.org/2000/svg">
<mask id="mask0_246_768" style="mask-type:luminance" maskUnits="userSpaceOnUse" x="0" y="0" width="116" height="58">
<path d="M115.85 0H0V58H115.85V0Z" fill="white"/>
</mask>
<g mask="url(#mask0_246_768)">
<path d="M101.753 46.1408H19.4275C17.2362 46.1384 15.4604 44.3625 15.458 42.1711V10.9325C15.4604 8.74111 17.2362 6.96544 19.4275 6.96289H101.753C103.944 6.96544 105.72 8.74111 105.722 10.9325V42.1711C105.72 44.3625 103.944 46.1384 101.753 46.1408Z" fill="white"/>
<path d="M101.753 46.1406H19.4276C17.2364 46.1381 15.4606 44.3624 15.458 42.171V10.9324C15.4606 8.74111 17.2364 6.96529 19.4276 6.96289H101.753C103.944 6.96529 105.72 8.74111 105.722 10.9324V42.171C105.72 44.3624 103.944 46.1381 101.753 46.1406ZM19.4276 7.30789C17.426 7.30789 15.8033 8.93069 15.8033 10.9324V42.171C15.8033 44.1727 17.426 45.7955 19.4276 45.7955H101.753C103.755 45.7955 105.377 44.1727 105.377 42.171V30.3923C105.377 17.6431 95.0421 7.30789 82.2929 7.30789H19.4276Z" fill="#E6E6E6"/>
<path d="M11.7082 52.6154C11.7419 52.384 12.0388 52.2356 12.3715 52.2841C12.7041 52.3325 12.9464 52.5594 12.9129 52.7908C12.8791 53.0222 12.5823 53.1705 12.2495 53.1221C11.917 53.0737 11.6745 52.8468 11.7082 52.6154Z" fill="white"/>
<path d="M15.6682 52.2292C15.7019 51.9978 15.9988 51.8494 16.3315 51.8978C16.6641 51.9462 16.9064 52.1731 16.8728 52.4045C16.8391 52.6359 16.5421 52.7843 16.2095 52.7359C15.8769 52.6875 15.6344 52.4606 15.6682 52.2292Z" fill="#3E3C55"/>
<path d="M10.6232 49.4094C10.657 49.178 10.9539 49.0296 11.2866 49.078C11.6191 49.1264 11.8615 49.3533 11.8279 49.5847C11.7942 49.8161 11.4973 49.9645 11.1646 49.9161C10.832 49.8677 10.5895 49.6408 10.6232 49.4094Z" fill="#FF6484"/>
<path d="M9.57228 48.2674C9.57393 48.055 9.69503 47.8836 9.8428 47.8848C9.99057 47.8858 10.109 48.0591 10.1073 48.2714C10.1057 48.4838 9.98458 48.6551 9.8368 48.6541C9.68903 48.653 9.57063 48.4798 9.57228 48.2674Z" fill="#E6E6E6"/>
<path d="M8.9883 45.8211C8.98995 45.6087 9.11104 45.4373 9.25882 45.4385C9.40659 45.4395 9.52514 45.6128 9.52349 45.8251C9.52184 46.0375 9.40059 46.2088 9.25282 46.2078C9.10505 46.2067 8.98665 46.0335 8.9883 45.8211Z" fill="#3E3C55"/>
<path d="M13.5264 50.1261C13.528 49.9138 13.6491 49.7425 13.7969 49.7437C13.9447 49.7447 14.0632 49.918 14.0616 50.1303C14.0599 50.3427 13.9387 50.514 13.7909 50.5128C13.6431 50.5117 13.5247 50.3385 13.5264 50.1261Z" fill="#E6E6E6"/>
<path d="M11.6123 51.0818C11.614 50.8695 11.7351 50.698 11.8828 50.6992C12.0306 50.7003 12.1492 50.8735 12.1475 51.0859C12.1459 51.2983 12.0246 51.4696 11.8768 51.4685C11.7291 51.4675 11.6107 51.2942 11.6123 51.0818Z" fill="#FF6484"/>
<path d="M14.2774 52.848C14.279 52.6356 14.4001 52.4641 14.5479 52.4653C14.6957 52.4664 14.8142 52.6396 14.8125 52.852C14.8109 53.0644 14.6897 53.2357 14.5419 53.2346C14.3941 53.2336 14.2757 53.0603 14.2774 52.848Z" fill="#3E3C55"/>
<path d="M107.089 2.52307C107.162 2.23412 107.558 2.0853 107.973 2.19051C108.389 2.29572 108.666 2.61524 108.593 2.90419C108.52 3.19314 108.124 3.34211 107.708 3.23676C107.293 3.13155 107.016 2.81202 107.089 2.52307Z" fill="white"/>
<path d="M102.017 2.49036C102.09 2.20141 102.486 2.05258 102.901 2.15779C103.317 2.263 103.594 2.58253 103.521 2.87148C103.447 3.16043 103.051 3.3094 102.636 3.20404C102.221 3.09883 101.943 2.77931 102.017 2.49036Z" fill="#3E3C55"/>
<path d="M108.041 6.73157C108.114 6.44262 108.51 6.29379 108.926 6.399C109.341 6.50421 109.618 6.82374 109.545 7.11269C109.472 7.40164 109.076 7.55061 108.66 7.44525C108.245 7.34004 107.968 7.02052 108.041 6.73157Z" fill="#FF6484"/>
<path d="M110.049 8.6238C110.079 8.35463 110.256 8.1535 110.443 8.17433C110.63 8.19532 110.757 8.43046 110.727 8.69948C110.697 8.96865 110.521 9.16993 110.334 9.14894C110.146 9.12811 110.019 8.89296 110.049 8.6238Z" fill="#E6E6E6"/>
<path d="M110.466 11.8015C110.496 11.5324 110.673 11.3312 110.86 11.3521C111.047 11.3731 111.174 11.6082 111.144 11.8772C111.114 12.1464 110.938 12.3477 110.751 12.3267C110.563 12.3058 110.436 12.0707 110.466 11.8015Z" fill="#3E3C55"/>
<path d="M105.281 5.74489C105.311 5.47572 105.487 5.2746 105.674 5.29543C105.861 5.31641 105.989 5.55156 105.959 5.82058C105.929 6.08974 105.753 6.29102 105.565 6.27004C105.378 6.24921 105.251 6.01406 105.281 5.74489Z" fill="#E6E6E6"/>
<path d="M107.834 4.78591C107.864 4.51674 108.04 4.31561 108.227 4.33644C108.414 4.35743 108.542 4.59257 108.512 4.86159C108.481 5.13076 108.305 5.33204 108.118 5.31105C107.931 5.29022 107.803 5.05507 107.834 4.78591Z" fill="#FF6484"/>
<path d="M104.689 2.19509C104.719 1.92592 104.895 1.72479 105.082 1.74562C105.27 1.76661 105.397 2.00175 105.367 2.27077C105.337 2.53994 105.161 2.74121 104.973 2.72023C104.786 2.6994 104.659 2.46425 104.689 2.19509Z" fill="#3E3C55"/>
<path d="M85.5726 16.489H63.6537C63.2725 16.4887 62.9636 16.1797 62.9639 15.7984C62.964 15.4174 63.2728 15.1087 63.6537 15.1084H85.5726C85.9539 15.1084 86.2628 15.4176 86.2628 15.7989C86.2628 16.1801 85.9539 16.489 85.5726 16.489Z" fill="#5D95E6"/>
<path d="M87.2074 25.8091H65.2885C64.9072 25.8088 64.5983 25.4995 64.5986 25.1182C64.5988 24.7373 64.9075 24.4285 65.2885 24.4282H87.2074C87.5887 24.4285 87.8975 24.738 87.8972 25.1193C87.8971 25.5001 87.5884 25.8088 87.2074 25.8091Z" fill="#E6E6E6"/>
<path d="M83.9779 35.1285H62.059C61.6777 35.1282 61.3688 34.8188 61.3691 34.4376C61.3693 34.0566 61.678 33.7479 62.059 33.7476H83.9779C84.3592 33.7476 84.6681 34.0569 84.6681 34.4382C84.6681 34.8194 84.3592 35.1285 83.9779 35.1285Z" fill="#E6E6E6"/>
<path d="M93.3667 19.3329H57.27C57.1873 19.3329 57.1201 19.2658 57.1201 19.1831C57.1201 19.1003 57.1873 19.0332 57.27 19.0332H93.3667C93.4494 19.0332 93.5165 19.1003 93.5165 19.1831C93.5165 19.2658 93.4494 19.3329 93.3667 19.3329Z" fill="#E6E6E6"/>
<path d="M93.3667 28.6249H57.27C57.1873 28.6249 57.1201 28.5578 57.1201 28.4751C57.1201 28.3923 57.1873 28.3252 57.27 28.3252H93.3667C93.4494 28.3252 93.5165 28.3923 93.5165 28.4751C93.5165 28.5578 93.4494 28.6249 93.3667 28.6249Z" fill="#E6E6E6"/>
<path d="M93.3667 37.9169H57.27C57.1873 37.9169 57.1201 37.8498 57.1201 37.7671C57.1201 37.6843 57.1873 37.6172 57.27 37.6172H93.3667C93.4494 37.6172 93.5165 37.6843 93.5165 37.7671C93.5165 37.8498 93.4494 37.9169 93.3667 37.9169Z" fill="#E6E6E6"/>
<path d="M32.0332 55.5631C29.4174 52.383 27.8279 48.7684 27.598 44.5782C27.4115 44.1151 27.6351 43.5883 28.098 43.4009L36.3939 40.0512C36.8571 39.8649 37.3837 40.0885 37.5712 40.5512L42.0063 51.5363C42.1928 51.9993 41.9692 52.526 41.5065 52.7135L33.2105 56.0631C32.7473 56.2496 32.2207 56.0258 32.0332 55.5631Z" fill="#E6E6E6"/>
<path d="M31.3287 51.9886C29.7763 50.5503 29.0226 47.8967 28.4773 44.9264C28.3027 44.4926 28.5122 43.9994 28.9456 43.8239L36.0754 40.9451C36.5091 40.7706 37.0023 40.9801 37.1779 41.4134L41.1246 51.1885C41.2992 51.6224 41.0897 52.1155 40.6563 52.291L36.2397 54.0745C34.3076 54.852 32.1107 53.9189 31.3287 51.9886Z" fill="white"/>
<path d="M37.5064 46.7179L31.988 48.9934C31.8054 49.0693 31.5958 48.9827 31.5201 48.7999C31.4443 48.6173 31.5308 48.4077 31.7136 48.3319L31.7151 48.3313L37.2332 46.0557C37.4159 45.98 37.6254 46.0665 37.7013 46.2493C37.777 46.4319 37.6903 46.6415 37.5077 46.7174L37.5064 46.7179Z" fill="#5D95E6"/>
<path d="M32.4439 46.6739L31.2244 47.1768C31.041 47.2529 30.8305 47.1659 30.7544 46.9824C30.6783 46.7989 30.7652 46.5883 30.9488 46.5122L30.9503 46.5117L32.1696 46.0088C32.3531 45.9327 32.5635 46.0197 32.6397 46.2032C32.7158 46.3867 32.6288 46.5972 32.4453 46.6734L32.4439 46.6739Z" fill="#5D95E6"/>
<path d="M38.7245 49.6385L33.1816 51.9242C32.9979 51.9995 32.7878 51.9117 32.7124 51.7279C32.6374 51.5446 32.7245 51.3351 32.9075 51.2592L38.45 48.9736C38.6339 48.8982 38.844 48.9861 38.9194 49.1698C38.9944 49.3532 38.9075 49.5626 38.7245 49.6385Z" fill="#5D95E6"/>
<path d="M38.1218 48.1768L32.5791 50.4624C32.3954 50.5378 32.1852 50.4498 32.1099 50.266C32.0349 50.0827 32.122 49.8732 32.305 49.7973L37.8475 47.5117C38.0311 47.4356 38.2414 47.5225 38.3177 47.7061C38.3938 47.8895 38.3067 48.1 38.1233 48.1763L38.1218 48.1768Z" fill="#5D95E6"/>
<path d="M48.3859 25.9159C48.3904 29.0422 47.2355 32.0589 45.1446 34.3831V34.3849C44.8491 34.7136 44.5368 35.027 44.2093 35.3237C43.874 35.6273 43.5226 35.9125 43.1565 36.1781C42.9009 36.3644 42.6387 36.5405 42.3695 36.7061C42.0501 36.9047 41.7216 37.0881 41.3839 37.2567C41.1336 37.3828 40.8783 37.5001 40.6176 37.6088C39.062 38.2625 37.3914 38.5988 35.704 38.5978C34.751 38.5988 33.8009 38.4923 32.8719 38.2802C32.4422 38.1825 32.0181 38.0615 31.6016 37.9178C31.4411 37.8643 31.2805 37.8056 31.1217 37.7435C30.1589 37.3712 29.2459 36.8815 28.4035 36.2851C22.6766 32.253 21.3027 24.3418 25.3349 18.6149C29.3668 12.888 37.2781 11.5142 43.0049 15.5463C46.3787 17.9216 48.3859 21.7898 48.3859 25.9159Z" fill="#F1F1F1"/>
<path d="M32.8041 20.1786C32.9879 21.6622 34.0159 22.8854 35.5109 22.8854C37.0057 22.8854 38.2175 21.6736 38.2175 20.1786C38.2175 18.6836 36.9992 17.6101 35.5109 17.4718C33.9314 17.3252 32.568 18.2739 32.8041 20.1786Z" fill="#2E2D41"/>
<path d="M27.3328 43.1739L28.6327 40.0317L29.6573 40.6009L29.0387 43.7972C29.2226 44.3984 28.8844 45.0349 28.2832 45.2189C27.682 45.4028 27.0455 45.0645 26.8614 44.4634C26.7124 43.9765 26.905 43.45 27.3328 43.1739Z" fill="#FFB6B6"/>
<path d="M40.7832 34.6712V34.673C40.7366 35.7672 40.6726 36.8079 40.6191 37.6086C39.0634 38.2624 37.3929 38.5987 35.7055 38.5976C34.7525 38.5987 33.8025 38.4921 32.8734 38.2801C32.4438 38.1823 32.0196 38.0614 31.6031 37.9175C31.6611 37.8802 31.7238 37.8505 31.7896 37.8295C32.4108 37.619 31.7965 37.4274 31.8016 37.2272C31.8206 36.4954 32.0225 35.617 32.2831 34.7747L31.1232 37.7432L30.5193 39.2863C30.5193 39.2863 30.5399 40.6186 30.1569 40.2113C29.772 39.8039 29.7996 41.1225 29.7996 41.1225C29.68 41.2078 29.5769 41.3143 29.4956 41.4366C29.4615 41.4918 29.4487 41.5574 29.4595 41.6214V41.6231C29.4769 41.6733 29.5109 41.716 29.556 41.7439C29.8167 41.92 29.4423 42.3859 29.2765 42.5706C29.2317 42.6206 29.2024 42.65 29.2024 42.65L27.6094 42.5361V42.5051C27.6163 42.317 27.6594 41.3262 27.9063 41.0898C28.1772 40.8292 28.0443 40.4168 28.0443 40.4168C28.0443 40.4168 28.752 39.7902 28.2773 39.281C28.0875 39.0757 28.1718 37.8589 28.4049 36.285C28.914 32.8125 30.1344 27.6003 30.6625 27.6745C30.8844 26.5964 31.6917 25.7338 32.7525 25.4411L34.4733 24.9682L34.7805 23.7549H37.2037L37.6248 24.5522L39.3903 25.3497L39.4126 25.36L39.4679 25.3841L39.4886 25.4498C39.4886 25.4498 39.4869 25.4514 39.4886 25.4514L40.4707 28.5356C40.9125 29.0431 40.8954 32.0081 40.7832 34.6712Z" fill="#5D95E6"/>
<path d="M44.9084 40.886L43.2676 37.9074L44.3519 37.4634L46.461 39.9436C47.0452 40.1756 47.3309 40.8373 47.0989 41.4216C46.8669 42.006 46.205 42.2916 45.6207 42.0595C45.1476 41.8717 44.8567 41.3924 44.9084 40.886Z" fill="#FFB6B6"/>
<path d="M39.3906 25.3262C39.6826 25.8506 42.3518 27.1996 41.8891 28.5536C41.8891 28.5536 44.3968 36.3991 44.7229 36.3478C45.049 36.2966 45.3673 37.1071 45.3673 37.1071C45.3673 37.1071 45.2981 37.636 45.5015 37.4161C45.7048 37.1964 45.6563 37.7725 45.6563 37.7725C45.6563 37.7725 45.5587 38.281 45.8169 38.1427C46.0752 38.0045 45.7357 38.9776 45.7357 38.9776L44.1838 39.7084L43.8888 39.2694C43.8888 39.2694 43.2586 39.1495 43.5551 39.0543C43.8517 38.9593 43.2763 38.6393 43.2763 38.6393C43.2763 38.6393 42.6743 38.2302 42.7582 37.5528C42.8421 36.8752 41.1961 35.5433 41.1961 35.5433C40.0647 33.3093 39.4456 31.0156 39.4479 28.6496L39.3906 25.3262Z" fill="#5D95E6"/>
<path d="M35.8094 18.2451C37.135 18.2451 38.2095 19.3197 38.2095 20.6453C38.2095 21.9709 37.135 23.0458 35.8094 23.0458C34.4838 23.0458 33.4092 21.9709 33.4092 20.6453C33.4092 19.3197 34.4838 18.2451 35.8094 18.2451Z" fill="#FFB6B6"/>
<path d="M33.3248 20.9072C33.4007 21.4287 33.8453 22.1567 33.7412 22.1567C33.6371 22.1567 32.8969 20.0063 33.6371 19.8662C34.1739 19.7644 34.294 19.8536 34.7957 19.636L34.725 19.7027C35.0571 19.9443 35.5193 19.7953 35.8982 19.6381C36.2783 19.4819 36.7394 19.3331 37.0726 19.5736C37.2818 19.7245 37.3704 19.987 37.5005 20.2098C37.6305 20.4336 37.8711 20.6449 38.1188 20.5761C38.3169 20.4995 38.4431 20.3042 38.4311 20.0922C38.4301 19.8861 38.1617 19.6898 38.2521 19.5048C38.52 18.9568 38.279 18.5833 37.6951 18.3254C37.4828 18.2931 37.2704 18.2602 37.058 18.2264C37.1692 18.0724 37.3041 17.9367 37.4577 17.8246C37.3928 17.6583 37.2807 17.5146 37.1351 17.4113C36.9551 17.3277 36.7545 17.2987 36.5582 17.328C36.1189 17.3509 35.68 17.374 35.2413 17.3969C34.9147 17.3911 34.5904 17.4542 34.2898 17.5821C33.9275 17.7686 33.6901 18.1319 33.5173 18.5015C33.1301 19.3322 33.1915 20.0005 33.3248 20.9072Z" fill="#2E2D41"/>
<path d="M98.8899 37.3567C97.5686 37.3337 96.2989 36.8396 95.3097 35.9635C94.9798 35.6709 94.6315 35.1661 94.2747 34.4635C93.8137 33.5467 93.7928 32.4704 94.2181 31.5366C94.02 31.7312 93.8018 31.904 93.5669 32.052L93.4482 32.1281L93.4439 31.9872C93.441 31.8956 93.4403 31.8043 93.4418 31.7159C93.4509 31.195 93.854 30.6734 93.6808 30.1887C92.9502 28.146 90.5562 26.087 94.1312 23.0075C94.4619 22.7226 94.0369 22.1343 94.0446 21.6948C94.1195 17.3869 100.337 10.0402 101.994 14.0182C104.038 18.9241 107.713 18.467 109.32 19.501L109.342 19.5726L109.272 19.5992C108.914 19.7424 108.538 19.8354 108.155 19.8758C108.561 19.9661 108.977 20.0082 109.393 20.0012L109.458 20.0001L109.473 20.0632C109.617 20.687 109.684 21.3261 109.673 21.9664L109.671 22.0355C109.651 23.0189 110.05 23.9645 110.769 24.6357C111.904 25.7074 112.536 27.207 112.511 28.7677C112.495 29.681 111.854 30.869 111.318 31.7048C111.043 32.1361 110.586 32.4179 110.077 32.4696C109.595 32.5219 109.115 32.3575 108.767 32.0211C109.005 32.5209 109.318 32.9812 109.696 33.3858L109.765 33.4602L109.676 33.5101C108.82 33.9897 107.852 34.2332 106.87 34.2157L106.813 34.2146C105.36 34.1743 103.951 34.7208 102.906 35.7307C101.84 36.7908 100.393 37.3768 98.8899 37.3567Z" fill="#E6E6E6"/>
<path d="M96.8304 46.1038C96.7808 46.1029 96.7394 46.0656 96.7332 46.0163C96.5128 43.6868 96.538 41.3405 96.8084 39.0161C97.2163 35.349 98.4135 30.0779 101.8 25.7904C101.834 25.7471 101.897 25.7398 101.94 25.774C101.983 25.8081 101.99 25.8708 101.956 25.9139C98.5992 30.1644 97.4118 35.397 97.0068 39.0382C96.7379 41.3469 96.7125 43.6777 96.9312 45.9918C96.9379 46.0464 96.8991 46.0963 96.8442 46.1031C96.8396 46.1036 96.8351 46.1039 96.8304 46.1038Z" fill="#3E3C55"/>
<path d="M99.7793 31.8859C99.7243 31.8849 99.6803 31.8397 99.6812 31.7845C99.6818 31.7526 99.6976 31.7229 99.7237 31.7045C100.678 31.0823 101.706 30.5813 102.784 30.2129C104.469 29.6291 107.024 29.1178 109.63 29.9973C109.682 30.0148 109.71 30.0714 109.693 30.1237C109.675 30.1758 109.618 30.2039 109.566 30.1864L109.566 30.1862C107.013 29.3248 104.505 29.8277 102.85 30.4014C101.789 30.7635 100.777 31.256 99.8382 31.8679C99.8209 31.88 99.8003 31.8863 99.7793 31.8859Z" fill="#3E3C55"/>
<path d="M95.4125 20.4405C95.4094 20.3854 95.4516 20.3385 95.5065 20.3354C95.5384 20.3335 95.5692 20.3473 95.5893 20.372C96.2787 21.2792 96.8524 22.2686 97.2974 23.3173C98.0009 24.9554 98.6949 27.467 98.0054 30.1294C97.9917 30.1827 97.9374 30.2148 97.8841 30.2012C97.8307 30.1877 97.7986 30.1333 97.8123 30.0799L97.8123 30.0794C98.4876 27.4715 97.8056 25.0056 97.1143 23.396C96.6768 22.3641 96.1125 21.3905 95.4346 20.4978C95.4212 20.4815 95.4136 20.4615 95.4125 20.4405Z" fill="#3E3C55"/>
<path d="M13.1097 35.5071C12.0514 34.5102 10.6365 33.9815 9.18385 34.0399L9.12633 34.0418C8.14543 34.0715 7.17427 33.8401 6.31206 33.3712L6.22215 33.3225L6.29096 33.2471C6.66363 32.8377 6.97108 32.3735 7.20271 31.8707C6.85829 32.2116 6.38043 32.3821 5.8982 32.3358C5.38871 32.2904 4.9278 32.0142 4.64753 31.5864C4.10174 30.7574 3.44561 29.5775 3.41834 28.6644C3.37339 27.1042 3.98645 25.5968 5.10809 24.5111C5.81857 23.8309 6.20611 22.8805 6.1739 21.8975L6.17154 21.8284C6.15227 21.1883 6.21143 20.5484 6.34763 19.9228L6.36149 19.8597L6.42612 19.8599C6.84255 19.8617 7.25781 19.8144 7.66325 19.7191C7.27924 19.6834 6.90191 19.5952 6.54212 19.4564L6.47192 19.4303L6.49332 19.3588C8.08701 18.3048 11.7678 18.716 13.75 13.7851C15.3571 9.78666 21.6663 17.0552 21.7949 21.3618C21.808 21.8012 21.3906 22.3948 21.7248 22.6755C25.3378 25.7102 22.9697 27.7988 22.2646 29.8504C22.0974 30.3372 22.5071 30.8539 22.5226 31.3746C22.5253 31.463 22.5259 31.5542 22.5241 31.6458L22.5214 31.7868L22.4018 31.7122C22.1651 31.567 21.9447 31.3971 21.7442 31.2051C22.1811 32.1335 22.1736 33.21 21.7241 34.1324C21.3761 34.8395 21.0341 35.3485 20.7079 35.6451C18.5378 37.6174 15.2068 37.5568 13.1097 35.5071Z" fill="#E6E6E6"/>
<path d="M19.3138 45.8033C19.3634 45.8018 19.4042 45.764 19.4098 45.7147C19.6011 43.3825 19.5466 41.0367 19.2473 38.7159C18.7937 35.0542 17.5307 29.7984 14.0912 25.5535C14.0565 25.5106 13.9938 25.5041 13.9511 25.5388C13.9082 25.5735 13.9016 25.6362 13.9364 25.679C17.3461 29.8873 18.5989 35.1046 19.0493 38.7404C19.347 41.0457 19.4013 43.3759 19.2115 45.6925C19.2055 45.7473 19.2449 45.7967 19.2998 45.8028C19.3045 45.8033 19.3092 45.8034 19.3138 45.8033Z" fill="#3E3C55"/>
<path d="M16.1878 31.6235C16.2428 31.6218 16.2862 31.576 16.2846 31.5209C16.2836 31.489 16.2673 31.4595 16.241 31.4414C15.2788 30.8312 14.2444 30.343 13.1619 29.9881C11.4702 29.4253 8.90918 28.946 6.3146 29.8579C6.26252 29.8762 6.23528 29.9331 6.25348 29.9851C6.27182 30.037 6.32871 30.0644 6.38065 30.046C8.92225 29.1528 11.437 29.6244 13.0991 30.1774C14.1643 30.5262 15.1819 31.0061 16.1285 31.6062C16.146 31.6181 16.1668 31.6241 16.1878 31.6235Z" fill="#3E3C55"/>
<path d="M20.4096 20.1251C20.412 20.07 20.3692 20.0236 20.3143 20.0212C20.2823 20.0197 20.2515 20.0338 20.2317 20.0589C19.5538 20.9745 18.9925 21.971 18.5605 23.0252C17.8775 24.672 17.2149 27.192 17.9376 29.8456C17.9519 29.8987 18.0065 29.9302 18.0596 29.9159C18.1129 29.9017 18.1444 29.8469 18.1301 29.7937L18.1299 29.7932C17.4221 27.1939 18.0734 24.7197 18.7446 23.1016C19.1692 22.0644 19.7212 21.0838 20.3879 20.1827C20.4011 20.1663 20.4087 20.1461 20.4096 20.1251Z" fill="#3E3C55"/>
</g>
</svg>
